<?xml version="1.0" encoding="utf-8"?>
<!-- Generator: Adobe Illustrator 25.2.1, SVG Export Plug-In . SVG Version: 6.00 Build 0)  -->
<svg version="1.1" id="Layer_2" xmlns="http://www.w3.org/2000/svg" xmlns:xlink="http://www.w3.org/1999/xlink" x="0px" y="0px"
	 viewBox="0 0 360 360" style="enable-background:new 0 0 360 360;" xml:space="preserve">
<style type="text/css">
	.st0{fill:#F4F3EE;}
	.st1{fill:#FDC149;}
</style>
<g>
	<path class="st0" d="M278.9,111c-3.9,20.6-8.2,41.1-12.9,61.5c-1.2,5.1-2.4,10.2-3.7,15.3c-1.1,4.3-3.7,10.1-3.8,14.6
		c-1.7,0-3.3,0-3.5,0c-5.4,0.2-10.8,0.4-16.2,0.5c-41.7,1.1-83.5,1-125.2-0.2c0-0.1,0-0.1-0.1-0.2c-6.9-29.2-12.8-58.6-17.7-88.2
		c-1.9-11.4-1.1-28.2-13.9-33.1C76.1,78.9,69,79.7,63,79.8c-7.7,0.1-15.4,0.3-23.1,0.7c-15.6,0.7-15.7,25,0,24.3
		c7.7-0.4,15.4-0.6,23.1-0.7c0.3,0,3.8,0.1,6.8,0.2c0,0.3,0.1,0.7,0.1,1c2.5,15.5,5,30.9,8,46.3c5.8,30.7,12.6,61.4,20.7,91.6
		c3.3,12.3,8.6,21.5,22.4,22.6c15.5,1.3,31.6,0.1,47.2,0.2c32.4,0.1,64.8,0.1,97.2,0.2c15.6,0,15.7-24.3,0-24.3
		c-31.7-0.1-63.5-0.1-95.2-0.2c-8.1,0-16.2,0-24.3-0.1c-3.4,0-6.8,0-10.1,0c-2.7,0-9.7,1.3-12.2,0c0.2,2.2,0,1.8-0.6-1.1
		c-0.3-1.3-0.7-2.5-1-3.8c-0.8-3.2-1.7-6.3-2.5-9.5c44.5,1.2,89.1,1.1,133.6-0.4c9.5-0.3,20.3,0.7,25.8-8.8c4.9-8.5,6.1-21,8.4-30.5
		c5.6-23.2,10.6-46.5,15-70C305.3,102.2,281.8,95.6,278.9,111z"/>
	<path class="st0" d="M157,285.7c-0.7-1.1-1.5-2.1-2.3-3.1c-0.2-0.3-0.5-0.5-0.8-0.8c-1.1-0.9-2.5-2.1-3.9-2.8
		c-0.8-0.4-1.6-0.7-2.4-1.1c0,0-0.1-0.1-0.1-0.2c-2.3-2.1-5.3-3.7-8.6-3.6c-5.7,0.2-11.3,2.4-15.3,6.6c-2.5,2.6-3.9,5.2-5.2,8.5
		c-0.2,0.6-0.4,1.3-0.5,1.9c-0.3,1.6-0.6,3.4-0.5,5.1c0.1,1.6,0.3,3.3,0.7,4.9c0.4,1.6,1.1,3.2,1.8,4.7c0.3,0.6,0.6,1.2,1,1.7
		c0.9,1.3,1.9,2.7,3.1,3.9c2.5,2.5,5.2,3.9,8.4,5.1c0.6,0.2,1.3,0.4,2,0.5c1.7,0.3,3.5,0.6,5.3,0.5c3.7-0.2,6.3-1,9.6-2.5
		c3.1-1.4,5.6-4,7.5-6.7c0.2-0.3,0.4-0.6,0.6-1c0.6-1.2,1.2-2.5,1.5-3.8c0.4-1.8,0.6-3.7,0.8-5.5c0.3-2.6,0.1-5.2-0.5-7.8
		C158.5,288.7,157.9,287.1,157,285.7z M139.6,298.4c0.1,0,0.2,0,0.3-0.1c0,0,0,0-0.1,0C139.7,298.3,139.7,298.3,139.6,298.4z"/>
	<path class="st0" d="M253.1,282.6c-1.3-1.5-3.1-2.8-4.8-3.8c-0.6-0.4-1.3-0.7-2-1c-2.1-1.5-4.5-2.4-7.2-2.5c-1.9,0-4,0.2-5.8,0.8
		c-1.3,0.4-2.6,1-3.8,1.6c-0.5,0.2-1,0.5-1.5,0.8c-1.5,1-3.1,2.1-4.2,3.5c-0.9,1.1-1.8,2.2-2.6,3.4c-0.5,0.9-0.9,1.8-1.3,2.7
		c-1,2.4-1.4,4.2-1.6,7c-0.1,1.9,0.2,4,0.6,5.8c0.8,3.6,3,7.3,5.6,9.8c2.7,2.7,6.3,4.8,10.1,5.4c5.1,0.9,10.8,0.9,15.4-2.1
		c4.1-2.7,7.2-6.9,8.3-11.7c0.9-3.9,1-8.3-0.5-12C256.5,287.1,255.4,285.2,253.1,282.6z"/>
</g>
<path class="st1" d="M230.9,139c-11.2,0.5-22.5,0.9-33.7,1.4c2.3-2.5,4.6-5,6.6-7.8c5.3-7.4,9.4-15.4,13.1-23.7
	c4-8.9,8.9-18.1,10.9-27.7c4.2-20.2-2.7-48.6-26-53c-19.9-3.7-39.5,2.3-54.5,15.7c-6.7,6-6.1,17.4,0,23.5c6.6,6.6,16.8,6,23.5,0
	c0.8-0.7,1.1-1,1.2-1.2c0.2-0.1,0.5-0.3,0.9-0.6c1.2-0.8,2.5-1.6,3.8-2.3c0.4-0.2,1.8-0.9,2.1-1c1.5-0.5,3-1,4.5-1.4
	c0.3-0.1,2.2-0.4,3-0.6c0.8,0,3.1-0.2,3.1-0.2c1.4,0,2.9,0,4.3,0.2c0,0,0,0,0,0c0,0,0,0,0,0c0,0,0,0,0,0c0.4,0.9,0.4,0.7,0.8,1.6
	c1.5,4,1.2,4,1.3,7.9c0.1,4-2.7,10.8-4.9,15.9c-5.1,11.7-10.9,24.7-18.8,33.3c-9.6,10.5-21.6,18.3-32,27.9
	c-10.5,9.6-2.5,29,11.8,28.4c26.4-1.1,52.7-2.1,79.1-3.2c9-0.4,16.6-7.4,16.6-16.6C247.5,146.9,239.9,138.6,230.9,139z"/>
<path class="st1" d="M981.8,143.2c0-0.1,0-0.1-0.1-0.1c-0.1,0,0,0-0.1,0C981.6,143.1,981.7,143.1,981.8,143.2
	C981.7,143.1,981.8,143.2,981.8,143.2z"/>
<path class="st1" d="M981.7,143.1C981.7,143.1,981.7,143,981.7,143.1C983,143.6,980.7,141.5,981.7,143.1z"/>
<path class="st1" d="M1033.4,98.4c0.4-0.4,0.9-0.7,1.3-1.2c9.5-10.6,14.1-25.9,10.2-39.9c-9.6-34.9-54.9-28.5-81-19.2
	c-8.5,3-14.1,11.4-11.6,20.5c2.3,8.2,12,14.6,20.5,11.6c10.3-3.6,19.5-5.7,29.9-6c2.2-0.1,4.4-0.1,6.6,0.1c0.4,0.1,1.9,0.4,2.7,0.5
	c0.2,0.1,0.3,0.2,0.4,0.3c0,0.1,0.1,0.2,0.2,0.3c0.1,0.2,0.2,0.5,0.2,0.7c0.1,0.2,0,0.1,0.1,0.2c0,0.5,0.1,1.1,0.1,1.6
	c0,0.4,0,0.7-0.1,1c-0.1,0.6-0.2,1.2-0.4,1.7c-0.2,0.5-0.3,0.9-0.4,1.1c-0.3,0.5-0.5,1-0.8,1.5c-0.2,0.4-0.3,0.4-0.4,0.6
	c-0.7,0.8-1.4,1.5-2.2,2.3c-0.7,0.6-1,0.8-1.1,1c-0.8,0.6-1.6,1.1-2.4,1.6c-1.9,1.2-3.9,2.2-6,3.1c-0.3,0.1-4.1,1.4-4.6,1.6
	c-2.3,0.7-4.5,1.4-6.8,2c-7.9,2.1-13.1,10.2-11.9,18.3c1.1,7.5,8,15.2,16.3,14.4c2.7-0.2,5.3-0.3,7.9-0.2c0.2,0,0.3,0,0.4,0
	c0.1,0,0.2,0.1,0.4,0.1c1.2,0.2,2.3,0.5,3.4,0.8c3.1,0.9,5.2,2.2,7.6,4.7c-0.2,0,1.8,3.1,2.2,3.4c0.1,0.5,0.7,3,0.9,3.7
	c0,0.6,0,1.6-0.1,2.2c-0.1,0.3-0.2,0.7-0.4,0.9c-0.3,0.5-0.5,0.9-0.6,1c-0.3,0.5-0.7,1-0.9,1.4c-0.5,0.4-2.2,2-2.3,2.3
	c-0.5,0.3-1.4,0.9-1.6,1c-1.1,0.7-2.3,1.3-3.5,1.9c-0.2,0.1-0.4,0.2-0.6,0.3c-1,0.4-2,0.7-3,1c-2.3,0.7-4.7,1.2-7.1,1.7
	c-0.1,0-0.1,0-0.1,0c-0.1,0-0.1,0-0.2,0c-1.1,0.1-2.1,0.2-3.2,0.2c-1.4,0-2.7,0-4,0c-0.3,0-0.5,0-0.7,0c-0.9-0.2-1.8-0.4-2.8-0.6
	c-0.6-0.1-1-0.3-1.2-0.3c-0.5-0.2-0.9-0.4-1.3-0.6c0.1,0.1,0,0.1,0.1,0.2c0-0.1-0.1-0.1-0.2-0.2c-0.3-0.1-0.3-0.2-0.1-0.1
	c-5.3-7.1-14.4-10.5-22.5-5.7c-7.2,4.2-11.2,15.4-6,22.8c10.4,14.4,26.9,19.6,44.2,17.6c17.1-2,33.7-8.9,44-23.4
	c10.1-14.3,9-34.6-1.2-48.6C1038.1,103,1035.9,100.6,1033.4,98.4z M986.9,144.8C986.3,144.7,986.2,144.6,986.9,144.8L986.9,144.8z
	 M1005.2,141.9C1004.6,142.2,1004.3,142.3,1005.2,141.9L1005.2,141.9z"/>
<path class="st1" d="M1214.9,113.5c-1.9,0.1-3.7,0.2-5.6,0.2c0.3-5.3,0.8-10.6,1.3-15.9c1.1-10.5,3-20.8,4.6-31.2
	c2-13.2,4.2-28.6-10.9-35c-11.9-5-25.4-1.1-34.4,7.7c-8,7.8-13.2,18.8-19,28.3c-12,19.6-24.4,38.9-37.3,57.9
	c-7,10.3,2.2,25.6,14.4,25c15.8-0.7,31.6-1.4,47.4-2c0.1,6.1,0.1,12.1,0.5,18.2c0.6,9,7.2,16.6,16.6,16.6c8.6,0,17.2-7.6,16.6-16.6
	c-0.4-6.5-0.6-13.1-0.7-19.6c2.1-0.1,4.2-0.2,6.4-0.3c9-0.4,16.6-7.4,16.6-16.6C1231.5,121.4,1223.9,113.1,1214.9,113.5z
	 M1173.1,95.1c1.9-3.1,3.8-6.3,5.7-9.4c-0.9,7.1-1.8,14.2-2.3,21.3c-0.2,2.7-0.2,5.4-0.4,8.2c-5.5,0.2-11,0.5-16.5,0.7
	C1164.1,108.9,1168.7,102.1,1173.1,95.1z"/>
<path class="st1" d="M1372,25.7c-10.9,0.6-21.8,1.4-32.7,2.5c-5.1,0.5-10.1,1.1-15.2,1.8c-7.5,1-14.6,1.5-19.6,8
	c-4.1,5.4-4.1,11.9-4.5,18.4c-0.4,5.1-0.7,10.1-1.1,15.2c-0.8,10.8-1.6,21.7-2.4,32.5c-0.8,11.7,11.3,17.7,21.1,16
	c5.4-0.9,10-1.6,15.6-1.5c3.8,0.1,7.8,1.2,10.6,2.7c0.4,0.2,0.5,0.2,0.6,0.3c0.1,0.1,0,0,0.1,0.1c0.2,0.2,1.4,1.5,1.7,1.6
	c0.2,0.4,0.5,0.8,0.7,1.2c0.1,0.2,0.1,0.3,0.2,0.6c0.1,0.2,0.1,0.3,0.1,0.4c0,0.9-0.1,2,0.1,2.7c0,0,0,0,0,0c-0.3,1-0.6,2.2-0.8,3.2
	c-0.1,0.3-0.1,0.2-0.1,0.4c-0.4,0.7-0.7,1.4-1.1,2.1c-0.1,0.2-0.9,1.3-1.3,1.9c-0.4,0.4-0.9,0.9-1,1c-0.1,0.1-0.6,0.6-1,0.9
	c-0.6,0.4-1.9,1.3-1.9,1.3c-0.2,0.1-1.2,0.6-1.4,0.8c-1,0.4-2,0.7-3,1c-0.3,0.1-2.4,0.6-3.1,0.7c-0.6,0-2,0.2-2.3,0.2
	c-2.6,0.1-5.3,0.1-7.8-0.3c-0.4-0.1-1.2-0.3-1.5-0.3c-1.2-0.3-2.4-0.5-3.6-0.9c-3-0.8-5.9-1.9-8.7-3c-8.1-3.3-18.6,3.6-20.5,11.6
	c-2.2,9.7,3,16.9,11.6,20.5c15.2,6.2,33.4,8.2,48.9,2.1c14.8-5.8,27-18.1,30.5-34c3.8-17-2.2-33.4-16.6-43.4
	c-9.6-6.7-20.6-8.6-31.8-8.3c0.4-7.8,0.9-15.6,1.5-23.4c0.1,0,0.2,0,0.3,0c4.3-0.5,8.7-0.9,13.1-1.3c8.7-0.8,17.4-1.4,26.2-1.9
	c8.7-0.4,17.1-7.3,16.6-16.6C1388.3,33.7,1381.3,25.3,1372,25.7z M1346.8,124.2C1346.7,124,1346.7,123.9,1346.8,124.2L1346.8,124.2z
	"/>
<path class="st1" d="M1530.5,87.2c-11.7-3.3-23.5-1.3-34.8,2.2c0-1.4,0.1-2.9,0.1-4.3c0-0.4,0.2-2.8,0.1-3.2
	c0.4-1.4,1.4-3.9,0.1-1.9c2.5-3.7,6.8-6.9,10.2-9.7c2-1.7,5.3-4,7-4.6c7.5-2.9,15.3-0.6,24.2,1.4c8.5,1.9,18.4-2.6,20.5-11.6
	c1.9-8.5-2.5-18.4-11.6-20.5c-13.1-3-26.9-5.6-40.1-2c-12.5,3.4-23.8,12.6-32.4,22.1c-4.6,5-8.4,10.8-9.8,17.6
	c-1.4,6.9-1.4,13.9-1.6,20.9c-0.4,13.3-0.9,26.5,1.1,39.7c2,13.5,8.2,26.6,19.4,34.9c10.1,7.4,23.4,9,35.7,8.8
	c15.1-0.2,23.5-9.9,31.2-21.6c7.2-11,11.1-23.5,9.3-36.7C1556.9,103.2,1545.3,91.4,1530.5,87.2z M1526.2,123.4c0,0,0-0.1,0-0.1
	C1526.2,123.3,1526.2,123.3,1526.2,123.4C1526.2,123.4,1526.2,123.4,1526.2,123.4z M1524.9,120.8
	C1524.2,120.3,1523.6,119.3,1524.9,120.8L1524.9,120.8z M1523.3,134.7c-1.7,3.1-3.8,6.1-6,8.9c-0.1,0-0.3,0-0.4,0
	c-1.8,0-3.7-0.1-5.5-0.2c-0.9-0.1-1.8-0.1-2.7-0.2c-0.2,0-0.3,0-0.4,0c-0.1,0-0.3-0.1-0.6-0.1c-0.9-0.2-1.7-0.4-2.6-0.6
	c0.1,0-0.9-0.3-1.4-0.4c-0.4-0.3-1.7-1.1-2.2-1.4c-1-1-2.8-3.9-3.2-4.9c-1.3-3.4-2.4-8.9-2.6-10.7c0-0.2,0-0.4,0-0.6
	c0.3-0.1,0.6-0.1,1-0.2c7.5-2.7,15.4-5.2,21.7-5.4c0.5,0,0.6,0,0.9,0c0.6,0.1,1.2,0.2,1.8,0.4c0.7,0.2,1.4,0.4,2.1,0.6
	c0.6,0.3,1.3,0.7,1.9,1.1c0.1,0.1,0.1,0.2,0.3,0.3c0,0,0.3,0.3,0.5,0.6c-0.3-0.2,0.2,0.9,0.4,1.2c0.1,0.3,0.1,0.6,0.2,0.7
	c0,1-0.2,3.4-0.1,3.6c-0.3,1.4-0.7,2.8-1.2,4.2C1525.5,129.9,1523.7,134,1523.3,134.7z"/>
<path class="st1" d="M1718.6,29.2c-26.6,1-53.2,1.3-79.9,0.8c-9-0.2-16.6,7.8-16.6,16.6c0,9.2,7.6,16.5,16.6,16.6
	c13.4,0.3,26.8,0.3,40.2,0.2c-4.4,8-8,16.5-11.1,24.5c-9,23.1-13.3,48.1-13.2,72.9c0,9,7.6,16.6,16.6,16.6c9,0,16.7-7.6,16.6-16.6
	c-0.1-21,3.2-40.2,10.6-60.2c3.1-8.3,7-16.8,11.9-24.8c2.8-4.6,3.6-5.9,7.1-9.4c0.8-0.8,1.7-1.6,2.6-2.4c-1.1,0.8-0.9,0.6,0.8-0.6
	c2-1.3,4-2.3,6.2-3.3c6.6-2.9,9.4-12.3,7.6-18.8C1732.7,34.6,1725.8,28.9,1718.6,29.2z"/>
<path class="st1" d="M1883.3,101.1c3.8-5.1,6.8-10.8,8.2-17.1c3.3-14.5-0.1-30.4-11.3-40.7c-20.7-19.2-63.8-17.5-75.6,10.9
	c-5.5,13.3-3.1,28.8,5.5,40.3c2.4,3.2,5.1,6,8,8.4c-6.6,4-12.3,9.5-16,16.2c-7.9,14.1-7.2,32,3.1,44.7c9.5,11.7,26.5,17,41.1,17.2
	c14.7,0.2,29.9-5.6,39.6-16.9c9.9-11.5,14.8-27.3,10.3-42.3C1893.9,113.9,1889.2,106.9,1883.3,101.1z M1835.5,66.3
	C1835.5,66.3,1835.5,66.3,1835.5,66.3C1834.8,67.1,1834.8,67.1,1835.5,66.3z M1835,68c0.1-0.4,0.2-0.8,0.3-1.2
	c0.1-0.2,0.2-0.3,0.3-0.5c0.4-0.2,1-0.7,1.6-1.1c0.5-0.1,1.7-0.6,2.1-0.7c0.5-0.1,1-0.2,1.5-0.3c0.2,0,0.7,0,1.5-0.1
	c1.1,0,2.2-0.1,3.3,0c1.1,0,2.2,0.1,3.2,0.2c0.2,0,0.3,0.1,0.5,0.1c1.1,0.2,2.1,0.5,3.2,0.8c0.8,0.2,1.5,0.5,2.2,0.7
	c0,0,0.1,0.1,0.6,0.3c0.4,0.2,1.4,0.9,1.8,1.2c0.4,0.5,0.9,1,1.2,1.3c1,1.4,1,2.7,1.1,4.1c0.1,0.5,0.1,0.8,0.1,1.1
	c0,0.1-0.1,0.2-0.1,0.4c-0.1,0.6-1.2,3.7-1.1,3.8c-1.4,2.8-3.1,4.9-5.1,6.7c-1.7-0.6-3.3-1.1-5-1.7c-0.2-0.1-0.9-0.4-1.4-0.6
	c-1.1-0.5-2.2-1.1-3.3-1.7c-1-0.6-2-1.2-2.9-1.9c-0.2-0.3-2.1-1.9-2.4-2.1c-0.5-0.4-0.8-0.6-1-0.7c-0.1-0.2-0.3-0.5-0.6-1
	c-0.4-0.6-0.8-1.3-1.1-2c0-0.2-0.4-1.3-0.7-2.1c-0.1-0.4-0.2-1-0.2-1.1c0-0.5,0-1.1,0-1.6C1834.6,70,1834.6,69.9,1835,68z
	 M1864.7,133.5c0,0.6-0.3,2.2-0.3,2.3c-0.1,0.4-0.2,0.8-0.3,1.2c0-0.2-1.3,2.7-1.4,2.9c-1.2,2.4-4.2,5.2-7.7,6.4
	c-5.7,2.1-10.3,1.9-16.6,0.1c-3.1-0.9-5.2-1.3-8-3.8c0.8,0.7,0.2-0.1-0.3-0.7c0.2,0.2,0.2,0.1,0-0.2c0-0.1,0-0.2-0.1-0.6
	c0,0,0,0,0-0.1c0-0.3-0.1-0.6-0.1-1c0-0.4-0.1-0.6-0.1-0.8c0.1,0,0.2-0.3,0.3-1.2c0.2-1.4,1-2.9,2.2-4.1c-0.2,0.2,1.5-1.3,2.2-1.9
	c0.2-0.2,0.5-0.3,1.1-0.7c1-0.6,2-1.1,3-1.6c-0.7,0.3-2.3,0.7,0.8-0.3c2.2-0.7,4.4-1.2,6.7-1.6c4-0.7,7.1-3.3,9.2-6.6
	c1.3,0.7,2.6,1.5,4,2.7c-2.1-1.7,2.4,2.9,2.5,2.8c0.7,0.9,1.2,1.9,1.8,2.9c0,0.3,0.9,2.4,1,2.8c0.1,0.3,0.1,0.4,0.2,0.6
	C1864.7,132.9,1864.7,133.1,1864.7,133.5z"/>
<path class="st1" d="M2045,45.4c-12.2-11.7-28.2-13.8-44.2-10.4c-13.3,2.8-27.2,9.2-33.5,21.9c-5.8,11.8-6.3,28.9-2.8,41.6
	c4.5,16.5,19.7,25.9,36.1,27c7.2,0.5,14-1.1,20.6-3.6c-1.4,2.8-2.8,5.7-4.3,8.5c-1.2,2.2-2.4,4.4-3.8,6.5c-0.5,0.7-0.9,1.4-1.4,2.1
	c-0.1,0.1-1,1.2-1.4,1.7c-0.6,0.6-1.1,1.2-1.7,1.7c-0.3,0.3-0.4,0.4-0.5,0.6c-0.2,0.1-0.5,0.2-0.9,0.5c0,0-0.2,0.1-0.3,0.2
	c-0.6,0.2-1.9,0.8-2.2,0.9c-0.5,0.1-1.1,0.2-1.7,0.4c-0.3,0-0.9,0-1.6,0c-0.7,0-1.4-0.1-2.1-0.1c3.3-0.1,0.1,0-1.2-0.3
	c-0.7-0.2-1.4-0.5-2-0.6c-0.1,0-0.1,0-0.1,0c-0.1-0.1-0.1-0.1-0.4-0.3c-0.5-0.3-1-0.6-1.5-0.9c0-0.1-1.2-1.1-1.8-1.7
	c-6.1-6.3-17.5-6.5-23.5,0c-6.2,6.7-6.5,16.8,0,23.5c9,9.3,22.5,14.6,35.5,13.5c15.4-1.2,27.1-9.2,35.9-21.7
	c15.2-21.7,25.7-49.8,21.8-76.4C2060.1,67.2,2054.4,54.4,2045,45.4z M2023.5,71C2023.2,70.6,2022.6,69.7,2023.5,71L2023.5,71z
	 M2004.3,92.2c-0.1,0-0.1,0-0.1,0c-0.8-0.1-1.8-0.1-2.7,0c-0.6-0.1-1.2-0.3-1.8-0.4c-0.3-0.1-0.3-0.1-0.5-0.1
	c-0.6-0.3-1.1-0.6-1.7-0.9c-0.2-0.8-0.3-0.8-0.4-0.4c0.1,0.1,0.1,0.2,0.2,0.3c-0.1-0.1-0.2-0.2-0.2-0.2c0,0,0,0,0,0.1
	c0.1,0.1,0.1,0.1,0.2,0.2c-0.1,0-0.2-0.1-0.2-0.2c0,0.2,0.1,0.5,0.2,0.7c-0.1-0.2-0.1-0.5-0.2-0.7c-0.7-0.5-1.2-1.1,0-0.1
	c0,0,0-0.1,0-0.1c-0.2-0.2-0.2-0.3,0-0.1c-0.2-0.7-0.4-1.5-0.6-2.2c0-0.3,0-0.4-0.1-0.9c-0.1-1.2-0.1-2.3-0.2-3.5
	c-0.1-1.8-0.1-3.7-0.1-5.5c0-1,0.2-2.1,0.1-3.2c0-0.2,0-0.2,0-0.3c0.1-0.2,0.1-0.4,0.2-0.7c0.2-0.7,0.4-1.5,0.6-2.2c0,0,0,0,0-0.1
	c0.1-0.1,0.1,0,0.2-0.1c0.2-0.2,0.1-0.1,0.2-0.2c0,0,0,0,0,0c0,0,0,0,0,0c1.1-0.6,3.5-1.7,3.4-1.7c2.1-0.7,4.2-1.4,6.3-2
	c0.5-0.1,3.3-0.7,3.8-0.9c1.7-0.2,3.5-0.2,5.2-0.1c0.1,0.1,2,0.5,2.6,0.5c0.5,0.3,1.5,0.8,1.7,0.9c0.3,0.2,0.4,0.2,0.4,0.2
	c0.1,0.1,0.2,0.3,0.6,0.7c0.7,0.8,1.4,1.5,2.1,2.2c1.2,1.7,2.2,3.5,3.2,5.4c0.1,0.2,0.1,0.2,0.1,0.3c0.3,0.8,0.6,1.6,0.8,2.4
	c0.1,0.3,0.1,0.6,0.2,0.9c-0.6,0.3-1.3,0.5-1.8,0.9c-3.7,2.5-7.4,5-11.3,7.2C2010.9,90.5,2009.6,90.8,2004.3,92.2z M1996.4,88.3
	C1996.5,89,1996.5,89.5,1996.4,88.3L1996.4,88.3z"/>
<path class="st1" d="M1997,90.5C1997,90.5,1997,90.5,1997,90.5C1997.1,90.5,1997.1,90.5,1997,90.5C1997,90.5,1997,90.4,1997,90.5
	C1997,90.4,1997,90.5,1997,90.5z"/>
<path class="st1" d="M1997,90.3C1997,90.3,1997,90.4,1997,90.3C1997.1,90.4,1997.1,90.4,1997,90.3c0,0,0-0.1,0-0.1
	C1997,90.2,1997,90.3,1997,90.3z"/>
<path class="st1" d="M2227.8,85.5c-8.9-0.4-17.8-0.6-26.8-0.8c-0.2-8.4-0.7-16.8-1.7-25.2c-0.6-4.6-1.5-8.4-4.9-11.8
	c-2.9-2.9-7.6-5.1-11.8-4.9c-8.1,0.4-17.8,7.4-16.6,16.6c1.1,8.3,1.5,16.5,1.7,24.8c-10.3,0-20.7,0-31,0.3
	c-8.7,0.2-17,7.5-16.6,16.6c0.4,8.8,7.3,16.9,16.6,16.6c10.1-0.3,20.2-0.2,30.3-0.3c-0.5,8.6-1.1,17.2-1.8,25.8
	c-0.7,8.7,8.1,17,16.6,16.6c9.6-0.4,15.9-7.3,16.6-16.6c0.7-8.4,1.3-16.9,1.8-25.4c9.2,0.2,18.3,0.4,27.5,0.8
	c8.7,0.4,17-8,16.6-16.6C2244,92.7,2237.1,85.9,2227.8,85.5z"/>
</svg>
