<?xml version="1.0" encoding="utf-8"?>
<!-- Generator: Adobe Illustrator 25.2.1, SVG Export Plug-In . SVG Version: 6.00 Build 0)  -->
<svg version="1.1" xmlns="http://www.w3.org/2000/svg" xmlns:xlink="http://www.w3.org/1999/xlink" x="0px" y="0px"
	 viewBox="0 0 360 360" style="enable-background:new 0 0 360 360;" xml:space="preserve">
<style type="text/css">
	.st0{display:none;}
	.st1{fill:#F4F3EE;}
</style>
<g id="Layer_1" class="st0">
	
		<image style="display:inline;overflow:visible;" width="216" height="233" xlink:href="25AD344.jpg"  transform="matrix(0.336 0 0 0.336 144.118 141.2295)">
	</image>
</g>
<g id="Layer_2">
	<g>
		<path class="st1" d="M278.9,111c-3.9,20.6-8.2,41.1-12.9,61.5c-1.2,5.1-2.4,10.2-3.7,15.3c-1.1,4.3-3.7,10.1-3.8,14.6
			c-1.7,0-3.3,0-3.5,0c-5.4,0.2-10.8,0.4-16.2,0.5c-41.7,1.1-83.5,1-125.2-0.2c0-0.1,0-0.1-0.1-0.2c-6.9-29.2-12.8-58.6-17.7-88.2
			c-1.9-11.4-1.1-28.2-13.9-33.1C76.1,78.9,69,79.7,63,79.8c-7.7,0.1-15.4,0.3-23.1,0.7c-15.6,0.7-15.7,25,0,24.3
			c7.7-0.4,15.4-0.6,23.1-0.7c0.3,0,3.8,0.1,6.8,0.2c0,0.3,0.1,0.7,0.1,1c2.5,15.5,5,30.9,8,46.3c5.8,30.7,12.6,61.4,20.7,91.6
			c3.3,12.3,8.6,21.5,22.4,22.6c15.5,1.3,31.6,0.1,47.2,0.2c32.4,0.1,64.8,0.1,97.2,0.2c15.6,0,15.7-24.3,0-24.3
			c-31.7-0.1-63.5-0.1-95.2-0.2c-8.1,0-16.2,0-24.3-0.1c-3.4,0-6.8,0-10.1,0c-2.7,0-9.7,1.3-12.2,0c0.2,2.2,0,1.8-0.6-1.1
			c-0.3-1.3-0.7-2.5-1-3.8c-0.8-3.2-1.7-6.3-2.5-9.5c44.5,1.2,89.1,1.1,133.6-0.4c9.5-0.3,20.3,0.7,25.8-8.8
			c4.9-8.5,6.1-21,8.4-30.5c5.6-23.2,10.6-46.5,15-70C305.3,102.2,281.8,95.6,278.9,111z"/>
		<path class="st1" d="M157,285.7c-0.7-1.1-1.5-2.1-2.3-3.1c-0.2-0.3-0.5-0.5-0.8-0.8c-1.1-0.9-2.5-2.1-3.9-2.8
			c-0.8-0.4-1.6-0.7-2.4-1.1c0,0-0.1-0.1-0.1-0.2c-2.3-2.1-5.3-3.7-8.6-3.6c-5.7,0.2-11.3,2.4-15.3,6.6c-2.5,2.6-3.9,5.2-5.2,8.5
			c-0.2,0.6-0.4,1.3-0.5,1.9c-0.3,1.6-0.6,3.4-0.5,5.1c0.1,1.6,0.3,3.3,0.7,4.9c0.4,1.6,1.1,3.2,1.8,4.7c0.3,0.6,0.6,1.2,1,1.7
			c0.9,1.3,1.9,2.7,3.1,3.9c2.5,2.5,5.2,3.9,8.4,5.1c0.6,0.2,1.3,0.4,2,0.5c1.7,0.3,3.5,0.6,5.3,0.5c3.7-0.2,6.3-1,9.6-2.5
			c3.1-1.4,5.6-4,7.5-6.7c0.2-0.3,0.4-0.6,0.6-1c0.6-1.2,1.2-2.5,1.5-3.8c0.4-1.8,0.6-3.7,0.8-5.5c0.3-2.6,0.1-5.2-0.5-7.8
			C158.5,288.7,157.9,287.1,157,285.7z M139.6,298.4c0.1,0,0.2,0,0.3-0.1c0,0,0,0-0.1,0C139.7,298.3,139.7,298.3,139.6,298.4z"/>
		<path class="st1" d="M253.1,282.6c-1.3-1.5-3.1-2.8-4.8-3.8c-0.6-0.4-1.3-0.7-2-1c-2.1-1.5-4.5-2.4-7.2-2.5c-1.9,0-4,0.2-5.8,0.8
			c-1.3,0.4-2.6,1-3.8,1.6c-0.5,0.2-1,0.5-1.5,0.8c-1.5,1-3.1,2.1-4.2,3.5c-0.9,1.1-1.8,2.2-2.6,3.4c-0.5,0.9-0.9,1.8-1.3,2.7
			c-1,2.4-1.4,4.2-1.6,7c-0.1,1.9,0.2,4,0.6,5.8c0.8,3.6,3,7.3,5.6,9.8c2.7,2.7,6.3,4.8,10.1,5.4c5.1,0.9,10.8,0.9,15.4-2.1
			c4.1-2.7,7.2-6.9,8.3-11.7c0.9-3.9,1-8.3-0.5-12C256.5,287.1,255.4,285.2,253.1,282.6z"/>
	</g>
</g>
</svg>
