<?xml version="1.0" encoding="utf-8"?>
<!-- Generator: Adobe Illustrator 25.2.1, SVG Export Plug-In . SVG Version: 6.00 Build 0)  -->
<svg version="1.1" id="Layer_1" xmlns="http://www.w3.org/2000/svg" xmlns:xlink="http://www.w3.org/1999/xlink" x="0px" y="0px"
	 viewBox="0 0 500 500" style="enable-background:new 0 0 500 500;" xml:space="preserve">
<style type="text/css">
	.st0{fill:#010101;}
</style>
<g>
	<g>
		<path class="st0" d="M1718.9-327c7.2-5.5,13.8-11.8,19.8-18.6c7-8,13.4-16.5,18.8-25.7c10.1-16.9,16.4-35.6,20.8-54.7
			c2.5-10.6,3.6-21.6,4.4-32.4c0.1-2.8-0.5-5.3-1.7-7.7c-0.8-2.5-2.2-4.6-4.1-6.4c-1.8-2-4-3.3-6.4-4.1c-2.4-1.3-5-1.8-7.7-1.7
			c-5.2,0.2-10.5,1.9-14.1,5.9c-1,1.3-2.1,2.7-3.1,4c-1.8,3.1-2.7,6.5-2.7,10.1c-0.4,5-0.8,10.1-1.4,15.1c0.2-1.8,0.5-3.5,0.7-5.3
			c-0.9,7-2.6,13.8-4.4,20.6c-2.2,8.2-4.6,16.2-7.8,24c0.7-1.6,1.3-3.2,2-4.8c-4.8,11.4-11.1,22.1-18.7,32c1-1.3,2.1-2.7,3.1-4
			c-7.4,9.6-16,18.2-25.6,25.6c-2,1.8-3.3,4-4.1,6.4c-1.3,2.4-1.8,5-1.7,7.7c-0.1,2.8,0.5,5.3,1.7,7.7c0.8,2.5,2.2,4.6,4.1,6.4
			c3.8,3.5,8.8,6.1,14.1,5.9c1.8-0.2,3.5-0.5,5.3-0.7C1713.5-322.8,1716.4-324.5,1718.9-327L1718.9-327z"/>
	</g>
</g>
<g>
	<g>
		<path class="st0" d="M1136.1-544.5c39.6,1.3,79.3,1.9,119,1.8c39.7-0.1,79.3-0.8,118.9-2.2c22.2-0.8,44.5-1.8,66.7-3
			c5.3-0.3,10.3-2,14.1-5.9c3.5-3.5,6.1-9.2,5.9-14.1c-0.2-5.2-1.9-10.5-5.9-14.1c-3.8-3.5-8.8-6.1-14.1-5.9
			c-39.6,2.1-79.2,3.6-118.9,4.5c-39.7,0.8-79.3,1-119,0.5c-22.3-0.3-44.5-0.8-66.8-1.5c-5-0.2-10.6,2.3-14.1,5.9
			c-3.5,3.5-6.1,9.2-5.9,14.1c0.2,5.2,1.9,10.5,5.9,14.1C1126-546.7,1130.6-544.7,1136.1-544.5L1136.1-544.5z"/>
	</g>
</g>
<g>
	<g>
		<path class="st0" d="M1157.2-354.9c-1.3-26.9-2.2-53.8-2.6-80.7c-0.4-26.9-0.4-53.8,0.1-80.7c0.3-15.1,0.7-30.2,1.2-45.3
			c0.1-2.8-0.5-5.3-1.7-7.7c-0.8-2.5-2.2-4.6-4.1-6.4c-1.8-2-4-3.3-6.4-4.1c-2.4-1.3-5-1.8-7.7-1.7c-5.2,0.2-10.5,1.9-14.1,5.9
			c-3.7,4-5.7,8.7-5.9,14.1c-1,26.9-1.5,53.8-1.6,80.7c-0.1,26.9,0.3,53.8,1.1,80.7c0.5,15.1,1.1,30.2,1.8,45.3
			c0.3,5.3,2.1,10.3,5.9,14.1c1.8,2,4,3.3,6.4,4.1c2.4,1.3,5,1.8,7.7,1.7c5.2-0.2,10.5-1.9,14.1-5.9
			C1154.8-344.5,1157.4-349.6,1157.2-354.9L1157.2-354.9z"/>
	</g>
</g>
<g>
	<g>
		<path class="st0" d="M1424-566.6c0.2,28.2,0.3,56.4,0.5,84.7c0.2,28.2,0.3,56.4,0.5,84.7c0.1,15.8,0.2,31.6,0.3,47.4
			c0,5.1,2.2,10.5,5.9,14.1c1.8,2,4,3.3,6.4,4.1c2.4,1.3,5,1.8,7.7,1.7c5.2-0.2,10.5-1.9,14.1-5.9c3.6-3.9,5.9-8.7,5.9-14.1
			c-0.2-28.2-0.3-56.4-0.5-84.7s-0.3-56.4-0.5-84.7c-0.1-15.8-0.2-31.6-0.3-47.4c0-5.1-2.2-10.5-5.9-14.1c-1.8-2-4-3.3-6.4-4.1
			c-2.4-1.3-5-1.8-7.7-1.7c-5.2,0.2-10.5,1.9-14.1,5.9C1426.3-576.9,1424-572,1424-566.6L1424-566.6z"/>
	</g>
</g>
<g>
	<g>
		<path class="st0" d="M1445.8-366.9c-40.5-0.2-81-0.5-121.5-0.7c-40.3-0.2-80.6-0.5-120.9-0.7c-22.7-0.1-45.5-0.3-68.2-0.4
			c-5.1,0-10.5,2.3-14.1,5.9c-3.5,3.5-6.1,9.2-5.9,14.1c0.2,5.2,1.9,10.5,5.9,14.1c3.9,3.6,8.7,5.8,14.1,5.9
			c40.5,0.2,81,0.5,121.5,0.7c40.3,0.2,80.6,0.5,120.9,0.7c22.7,0.1,45.5,0.3,68.2,0.4c5.1,0,10.5-2.3,14.1-5.9
			c3.5-3.5,6.1-9.2,5.9-14.1c-0.2-5.2-1.9-10.5-5.9-14.1C1456-364.7,1451.2-366.9,1445.8-366.9L1445.8-366.9z"/>
	</g>
</g>
<g>
	<g>
		<path class="st0" d="M1194.8-487.2c23.3,9,46.7,18.1,70,27.2c6.6,2.6,13.2,5.2,19.9,7.8c2.7,0.8,5.3,1,8,0.4
			c2.7-0.1,5.1-0.9,7.4-2.4c2.3-1.3,4.2-3,5.6-5.2c1.8-1.9,3-4.2,3.6-6.8c1.2-5.1,0.9-10.9-2-15.4c-1-1.3-2.1-2.7-3.1-4
			c-2.5-2.5-5.4-4.2-8.8-5.1c-23.3-9.1-46.6-18.2-69.9-27.3c-6.7-2.6-13.3-5.2-20-7.7c-2.7-0.8-5.3-1-8-0.4
			c-2.7,0.1-5.1,0.9-7.4,2.4c-2.3,1.3-4.2,3-5.6,5.2c-1.8,1.9-3,4.2-3.6,6.8c-1.2,5.1-0.9,10.9,2,15.4c1,1.3,2.1,2.7,3.1,4
			C1188.4-489.8,1191.4-488.1,1194.8-487.2L1194.8-487.2z"/>
	</g>
</g>
<g>
	<g>
		<path class="st0" d="M1300.6-454.1c5.5-3.2,11.3-5.9,17.2-8.4c-1.6,0.7-3.2,1.3-4.8,2c9.2-3.9,18.5-7.2,27.9-10.6
			c10.7-3.9,21.4-7.9,31.9-12.3c4.8-2,9.5-4.2,14.1-6.7c2.3-1.3,4.2-3,5.6-5.2c1.8-1.9,3-4.2,3.6-6.8c0.8-2.7,1-5.3,0.4-8
			c-0.1-2.7-0.9-5.1-2.4-7.4c-2.8-4.3-6.9-8-12-9.2c-5.3-1.2-10.5-0.6-15.4,2c-4.8,2.6-9.8,4.9-14.8,7c1.6-0.7,3.2-1.3,4.8-2
			c-9.6,4-19.3,7.5-29.1,11c-11.1,4-22.2,8.2-33,12.9c-4.8,2.1-9.6,4.4-14.2,7.1c-4.3,2.5-7.9,7.1-9.2,12c-0.8,2.7-1,5.3-0.4,8
			c0.1,2.7,0.9,5.1,2.4,7.4c2.8,4.3,6.9,8,12,9.2C1290.4-450.8,1295.8-451.3,1300.6-454.1L1300.6-454.1z"/>
	</g>
</g>
<g>
	<g>
		<path class="st0" d="M1674.9-251.5c35.1-2.1,70.2-3.3,105.3-3.8c35.1-0.5,70.3-0.2,105.4,1c19.7,0.6,39.4,1.5,59.1,2.6
			c2.8,0.1,5.3-0.5,7.7-1.7c2.5-0.8,4.6-2.2,6.4-4.1c2-1.8,3.3-4,4.1-6.4c1.3-2.4,1.8-5,1.7-7.7c-0.2-5.2-1.9-10.5-5.9-14.1
			c-1.3-1-2.7-2.1-4-3.1c-3.1-1.8-6.5-2.7-10.1-2.7c-35.1-2-70.2-3.2-105.3-3.6c-35.1-0.4-70.3,0-105.4,1.1
			c-19.7,0.7-39.4,1.6-59.1,2.7c-5.3,0.3-10.3,2-14.1,5.9c-2,1.8-3.3,4-4.1,6.4c-1.3,2.4-1.8,5-1.7,7.7c0.2,5.2,1.9,10.5,5.9,14.1
			C1664.6-253.9,1669.6-251.2,1674.9-251.5L1674.9-251.5z"/>
	</g>
</g>
<g>
	<g>
		<path class="st0" d="M1694.4-282.7c-0.2-1-0.3-2-0.5-3c0.2,1.8,0.5,3.5,0.7,5.3c-0.9-6.8-0.9-13.6,0-20.3
			c-0.2,1.8-0.5,3.5-0.7,5.3c0.7-5.3,1.9-10.6,4-15.5c-0.7,1.6-1.3,3.2-2,4.8c1-2.3,2.1-4.4,3.6-6.4c-1,1.3-2.1,2.7-3.1,4
			c1.3-1.7,2.9-3.3,4.6-4.6c-1.3,1-2.7,2.1-4,3.1c2.1-1.6,4.4-2.9,6.8-3.9c-1.6,0.7-3.2,1.3-4.8,2c4.9-2,10.2-3.1,15.4-3.8
			c-1.8,0.2-3.5,0.5-5.3,0.7c13.8-1.8,27.8-2.6,41.8-3.2c14.2-0.6,28.5-0.8,42.8-0.6c28.7,0.3,57.3,1.6,85.9,3
			c8.1,0.4,16.2,0.7,24.2,1.1c4,0.2,8.1,0.4,12.1,0.6c3.9,0.2,7.9,0.1,11.8,0.6c-1.8-0.2-3.5-0.5-5.3-0.7c1.1,0.2,2.1,0.4,3.1,0.8
			c-1.6-0.7-3.2-1.3-4.8-2c0.5,0.3,1,0.5,1.5,0.9c-1.3-1-2.7-2.1-4-3.1c0.7,0.5,1.2,1.1,1.8,1.8c-1-1.3-2.1-2.7-3.1-4
			c2.2,2.9,3.7,6.4,5.1,9.7c-0.7-1.6-1.3-3.2-2-4.8c3,7.2,5.1,14.8,6.1,22.5c-0.2-1.8-0.5-3.5-0.7-5.3c1,7.6,1,15.3,0,22.9
			c0.2-1.8,0.5-3.5,0.7-5.3c0,0.2,0,0.3-0.1,0.5c-0.8,2.7-1,5.3-0.4,8c0.1,2.7,0.9,5.1,2.4,7.4c1.3,2.3,3,4.2,5.2,5.6
			c1.9,1.8,4.2,3,6.8,3.6c5.1,1.2,10.9,0.9,15.4-2c1.3-1,2.7-2.1,4-3.1c2.5-2.5,4.2-5.4,5.1-8.8c1-7.4,1.8-14.6,1.4-22
			c-0.4-7.3-1.4-14.7-3.2-21.8c-1.8-7.1-4.5-13.9-7.6-20.5c-1.9-4-4-7.3-6.8-10.7c-3.5-4.2-9.1-7.5-14.5-8.5
			c-7.7-1.5-15.7-1.4-23.5-1.7c-6.4-0.3-12.7-0.6-19.1-0.9c-12.9-0.6-25.8-1.2-38.6-1.8c-25.6-1.1-51.2-2-76.8-1.7
			c-12.7,0.1-25.5,0.5-38.2,1.3c-6.4,0.4-12.8,0.9-19.2,1.5c-6.9,0.7-13.8,1.3-20.6,2.7c-14.2,2.9-27.7,10.8-34.8,23.7
			c-2.1,3.8-3.7,7.9-5,12c-0.9,2.8-1.5,5.7-2,8.6c-1.3,7.5-2.2,15.2-1.7,22.8c0.3,4.7,0.9,9.3,1.7,13.9c0.6,2.6,1.8,4.9,3.6,6.8
			c1.4,2.2,3.3,3.9,5.6,5.2c2.3,1.5,4.8,2.3,7.4,2.4c2.7,0.6,5.3,0.5,8-0.4c4.8-1.6,9.5-4.6,12-9.2c0.7-1.6,1.3-3.2,2-4.8
			C1695.3-275.6,1695.3-279.1,1694.4-282.7L1694.4-282.7z"/>
	</g>
</g>
<g>
	<g>
		<path class="st0" d="M1826.8-452.1c3.3,20.7,10,40.8,20,59.4c4.3,8,9.3,15.7,14.8,23c6.6,8.8,13.6,17.2,21.2,25.2
			c7.9,8.3,16.2,16.2,24.7,23.9c3.9,3.6,8.8,5.9,14.1,5.9c2.8,0.1,5.3-0.5,7.7-1.7c2.5-0.8,4.6-2.2,6.4-4.1
			c3.5-3.8,6.1-8.8,5.9-14.1c-0.2-5.2-1.9-10.6-5.9-14.1c-11.7-10.6-23.2-21.6-33.5-33.6c-2.8-3.2-5.4-6.4-8-9.8
			c1,1.3,2.1,2.7,3.1,4c-7-9.1-13.3-18.8-18.4-29.1c-1.5-3-2.8-5.9-4.1-9c0.7,1.6,1.3,3.2,2,4.8c-5.6-13.2-9.3-27.1-11.5-41.2
			c-0.6-2.6-1.8-4.9-3.6-6.8c-1.4-2.2-3.3-3.9-5.6-5.2c-2.3-1.5-4.8-2.3-7.4-2.4c-2.7-0.6-5.3-0.5-8,0.4c-4.8,1.6-9.5,4.6-12,9.2
			c-0.7,1.6-1.3,3.2-2,4.8C1825.8-459.2,1825.8-455.7,1826.8-452.1L1826.8-452.1z"/>
	</g>
</g>
<g>
	<g>
		<path class="st0" d="M1844.3-482.1c-29.9-0.9-59.8,0.2-89.7,0.1c-4.3,0-8.6,0-12.8-0.1c-2.1,0-4.2-0.1-6.3-0.1
			c-2.2-0.1-4.4,0-6.5-0.2c1.8,0.2,3.5,0.5,5.3,0.7c-0.2,0-0.5-0.1-0.7-0.2c1.6,0.7,3.2,1.3,4.8,2c-0.2-0.1-0.4-0.2-0.6-0.3
			c1.3,1,2.7,2.1,4,3.1c-0.1-0.1-0.2-0.2-0.3-0.2c1,1.3,2.1,2.7,3.1,4c-0.2-0.2-0.3-0.4-0.4-0.6c0.7,1.6,1.3,3.2,2,4.8
			c-0.1-0.4-0.2-0.7-0.3-1.1c0.2,1.8,0.5,3.5,0.7,5.3c-0.3-2.7-0.1-5.6-0.1-8.3c0-3.5,0.1-7.1,0.2-10.6c0.2-7.7,0.4-15.5,0.9-23.2
			c0.2-3.3,0.4-6.6,0.9-9.9c-0.2,1.8-0.5,3.5-0.7,5.3c0.1-0.9,0.2-1.8,0.5-2.6c-0.7,1.6-1.3,3.2-2,4.8c0.1-0.3,0.2-0.5,0.4-0.7
			c-1,1.3-2.1,2.7-3.1,4c0.1-0.2,0.3-0.3,0.5-0.5c-1.3,1-2.7,2.1-4,3.1c0.2-0.1,0.4-0.2,0.6-0.3c-1.6,0.7-3.2,1.3-4.8,2
			c0.3-0.1,0.6-0.2,1-0.3c-1.8,0.2-3.5,0.5-5.3,0.7c2.2-0.3,4.4,0.1,6.6,0.2c2.5,0.1,5,0.3,7.4,0.4c4.9,0.2,9.8,0.5,14.6,0.6
			c9.8,0.4,19.5,0.7,29.3,0.8c19.6,0.3,39.3,0.3,58.9-0.2c5.5-0.1,11.1-0.3,16.6-0.5c2.7-0.1,5.5-0.2,8.2-0.3c2.6-0.1,5.4-0.5,8-0.2
			c-1.8-0.2-3.5-0.5-5.3-0.7c0.4,0.1,0.8,0.1,1.2,0.3c-1.6-0.7-3.2-1.3-4.8-2c0.4,0.2,0.7,0.3,1,0.6c-1.3-1-2.7-2.1-4-3.1
			c0.2,0.2,0.4,0.3,0.5,0.5c-1-1.3-2.1-2.7-3.1-4c0.5,0.6,0.8,1.2,1.1,1.9c-0.7-1.6-1.3-3.2-2-4.8c1.2,2.8,1.7,5.8,2.1,8.7
			c-0.2-1.8-0.5-3.5-0.7-5.3c1.5,11.2,1.3,22.7,0.9,34c-0.1,2.5-0.1,5-0.4,7.5c0.2-1.8,0.5-3.5,0.7-5.3c-0.1,0.4-0.2,0.8-0.3,1.1
			c0.7-1.6,1.3-3.2,2-4.8c-0.1,0.2-0.2,0.5-0.4,0.7c1-1.3,2.1-2.7,3.1-4c-0.2,0.2-0.3,0.4-0.5,0.5c1.3-1,2.7-2.1,4-3.1
			c-0.3,0.2-0.6,0.4-0.9,0.5c1.6-0.7,3.2-1.3,4.8-2c-0.7,0.2-1.4,0.4-2.2,0.5c1.8-0.2,3.5-0.5,5.3-0.7
			C1870.3-482,1857.4-481.1,1844.3-482.1c-2.8-0.1-5.3,0.5-7.7,1.7c-2.5,0.8-4.6,2.2-6.4,4.1c-2,1.8-3.3,4-4.1,6.4
			c-1.3,2.4-1.8,5-1.7,7.7c0.2,5.2,1.9,10.5,5.9,14.1c1.3,1,2.7,2.1,4,3.1c3.1,1.8,6.5,2.7,10.1,2.7c7.9,0.6,15.8,0.7,23.6,0.1
			c4-0.3,7.9-0.7,11.8-1.2c1-0.1,2.1-0.3,3.1-0.4c2.4-0.3,5-0.4,7.4-1.1c1-0.3,2-0.8,2.9-1.2c0.2-0.1,1.9-0.7,2.7-1.1
			c0.2-0.1,0.3-0.2,0.5-0.3c1-0.6,3.4-2.5,4.2-3.2c0.1-0.1,0.3-0.2,0.4-0.4c0.7-0.7,2.7-3.3,3.2-4.2c0.1-0.2,0.3-0.4,0.4-0.7
			c0.7-1.6,1.3-3.2,2-4.8c0-0.1,0.1-0.2,0.1-0.4c0.6-1.9,0.7-4.1,0.9-6.1c0.1-0.4,0.1-0.9,0.1-1.3c0-0.4,0-0.8,0.1-1.3
			c0-1,0.1-2,0.1-3c0.1-2.4,0.2-4.9,0.2-7.3c0.1-5.7,0.1-11.5-0.1-17.2c-0.3-6.9-0.9-13.8-2.3-20.5c-0.2-1-0.4-1.9-0.7-2.8
			c-0.8-2.6-1.9-5.2-3.1-7.6c-0.2-0.3-0.4-0.6-0.6-0.9c-1.1-1.5-2.3-3.3-3.6-4.6c-0.9-0.8-3.2-2.6-4.2-3.2c-0.2-0.1-0.4-0.3-0.6-0.4
			c-0.7-0.4-3-1.3-2.7-1.2c-0.9-0.4-1.9-0.9-3-1.2c-3.8-0.8-7.2-0.9-10.9-0.7c-17.5,0.8-34.9,1.2-52.4,1.3
			c-17.6,0.1-35.1-0.1-52.7-0.6c-8.8-0.3-17.5-0.6-26.3-1.1c-2.2-0.1-4.5-0.2-6.7-0.3c-1.9-0.1-3.9-0.4-5.9-0.3
			c-2,0.1-4.1,0.4-6,0.8c-1.2,0.3-2.1,0.7-3.4,1.3c-2.9,1.2-2.6,1-5,2.9c-2.3,1.8-4,3.5-5.6,6.1c-0.2,0.2-0.3,0.5-0.4,0.7
			c-0.6,1.1-1.7,3.8-2.1,5c-0.1,0.4-0.2,0.8-0.3,1.2c-0.2,1.3-0.4,2.6-0.5,3.9c-1.5,11-1.8,22.1-2.1,33.1
			c-0.1,5.1-0.2,10.3-0.2,15.4c0,1.9-0.1,3.8,0.1,5.7c0.1,1.9,0.4,4.2,0.8,6.1c0,0.2,0.1,0.3,0.2,0.5c0.3,0.9,1.6,4.1,2.1,4.9
			c0.1,0.2,0.2,0.4,0.4,0.6c0.6,1,2.5,3.4,3.3,4.2c0.7,0.7,3.3,2.7,4.2,3.3c0.2,0.1,0.4,0.2,0.6,0.3c3.9,2,7.3,2.8,11.6,3
			c1.1,0.1,2.3,0.1,3.4,0.1c16.5,0.4,32.9,0.3,49.4,0.1c16.3-0.2,32.7-0.4,49-0.2c4.2,0.1,8.5,0.2,12.7,0.3c2.8,0.1,5.3-0.5,7.7-1.7
			c2.5-0.8,4.6-2.2,6.4-4.1c2-1.8,3.3-4,4.1-6.4c1.3-2.4,1.8-5,1.7-7.7c-0.2-5.2-1.9-10.5-5.9-14.1
			C1854.4-479.9,1849.7-482,1844.3-482.1L1844.3-482.1z"/>
	</g>
</g>
<g>
	<g>
		<path class="st0" d="M1807.9-668.9c-5.1-0.1-10.3,0.6-15.2,1.7c-3.5,0.8-6.9,2-10.2,3.3c-4.6,1.9-9.3,3.8-13.7,6
			c-4.4,2.2-8.2,5.1-12.1,8.2c-3.8,3.1-6.9,7.2-9.6,11.2c-1.9,2.7-3.5,5.7-5.1,8.6c-4.1,7.6-8.2,15.5-10.4,23.9
			c-2.3,8.6-2.8,17.7-2.9,26.6c0,3.3,0,6.5,0.3,9.8c0.5,4.8,1,9.8,2.6,14.3c1.1,2.9,2.2,5.9,3.8,8.6c1.6,2.8,3.8,5.4,5.8,7.9
			c2.1,2.5,4.5,4.8,6.9,7c3.5,3.2,7.3,6.2,11.2,9c2.6,1.9,5.4,3.5,8.3,4.9c4.5,2.1,9.1,4,14,4.9c5.1,1,10.3,1.6,15.4,1.7
			c7.2,0.2,14.5-0.2,21.7-0.9c8.5-0.8,17.1-2,25.1-5.1c4.4-1.7,8.9-3.6,12.9-6.1c4-2.5,7.8-5.4,11.1-8.8c3.3-3.4,6.2-7.2,8.7-11.2
			c2.5-4,4.3-8.5,6.1-12.9c3.1-7.8,4.4-16,5.3-24.3c1-8.6,0.2-17.2-1.3-25.7c-1.4-7.8-4.3-15.4-7.9-22.5c-3.4-6.6-8-12.7-13.1-18
			c-3.1-3.3-6.7-6-10.3-8.7c-2.3-1.8-4.8-3.4-7.3-4.8c-15.8-8.5-34.1-11-51.6-6.9c-4.7,1.1-9.1,3-13.5,5c-2.3,1.3-4.2,3-5.6,5.2
			c-1.8,1.9-3,4.2-3.6,6.8c-0.8,2.7-1,5.3-0.4,8c0.1,2.7,0.9,5.1,2.4,7.4c2.8,4.3,6.9,8,12,9.2c1.8,0.2,3.5,0.5,5.3,0.7
			c3.6,0,7-0.9,10.1-2.7c0.4-0.2,0.8-0.3,1.2-0.5c-1.6,0.7-3.2,1.3-4.8,2c3.9-1.6,7.9-2.7,12.1-3.3c-1.8,0.2-3.5,0.5-5.3,0.7
			c4.6-0.6,9.2-0.6,13.9,0c-1.8-0.2-3.5-0.5-5.3-0.7c4.6,0.6,9.1,1.9,13.4,3.6c-1.6-0.7-3.2-1.3-4.8-2c4.2,1.8,8.1,4.1,11.7,6.9
			c-1.3-1-2.7-2.1-4-3.1c3.9,3.1,7.4,6.6,10.5,10.5c-1-1.3-2.1-2.7-3.1-4c3.1,4.1,5.7,8.5,7.7,13.2c-0.7-1.6-1.3-3.2-2-4.8
			c2.2,5.2,3.6,10.7,4.4,16.2c-0.2-1.8-0.5-3.5-0.7-5.3c0.8,6.5,0.8,13.1-0.1,19.5c0.2-1.8,0.5-3.5,0.7-5.3
			c-0.9,6.3-2.4,12.5-4.8,18.3c0.7-1.6,1.3-3.2,2-4.8c-1.6,3.8-3.6,7.4-6.1,10.7c1-1.3,2.1-2.7,3.1-4c-2,2.5-4.2,4.7-6.7,6.7
			c1.3-1,2.7-2.1,4-3.1c-3.2,2.5-6.7,4.4-10.4,6c1.6-0.7,3.2-1.3,4.8-2c-5.5,2.3-11.3,3.6-17.1,4.4c1.8-0.2,3.5-0.5,5.3-0.7
			c-5.5,0.7-11.1,1-16.7,1.2c-5.4,0.2-10.8,0.3-16.2-0.4c1.8,0.2,3.5,0.5,5.3,0.7c-3.7-0.5-7.3-1.4-10.8-2.8c1.6,0.7,3.2,1.3,4.8,2
			c-4-1.7-7.7-4-11.1-6.6c1.3,1,2.7,2.1,4,3.1c-4.7-3.6-9.2-7.7-12.9-12.3c1,1.3,2.1,2.7,3.1,4c-1.4-1.8-2.5-3.7-3.4-5.8
			c0.7,1.6,1.3,3.2,2,4.8c-1.1-2.7-1.8-5.6-2.2-8.5c0.2,1.8,0.5,3.5,0.7,5.3c-0.5-4-0.6-8.1-0.5-12.1c0.1-4.5,0.2-9.1,0.8-13.6
			c-0.2,1.8-0.5,3.5-0.7,5.3c0.7-5,2-9.8,3.9-14.5c-0.7,1.6-1.3,3.2-2,4.8c1.7-4,3.7-7.8,5.8-11.6c1.9-3.6,3.9-7.1,6.3-10.3
			c-1,1.3-2.1,2.7-3.1,4c1.7-2.2,3.6-4.1,5.7-5.8c-1.3,1-2.7,2.1-4,3.1c4.5-3.5,9.8-5.8,15-8.1c-1.6,0.7-3.2,1.3-4.8,2
			c5-2.1,10.2-3.9,15.7-4.7c-1.8,0.2-3.5,0.5-5.3,0.7c1.9-0.2,3.9-0.4,5.9-0.3c2.8,0.1,5.3-0.5,7.7-1.7c2.5-0.8,4.6-2.2,6.4-4.1
			c2-1.8,3.3-4,4.1-6.4c1.3-2.4,1.8-5,1.7-7.7c-0.2-5.2-1.9-10.5-5.9-14.1C1818-666.7,1813.3-668.8,1807.9-668.9L1807.9-668.9z"/>
	</g>
</g>
<g>
	<g>
		<path class="st0" d="M2300.9-332c-1-33.5-1.8-67.1-2.4-100.6c-0.6-33.4-1-66.7-1.2-100.1c-0.1-18.8-0.2-37.7-0.2-56.5
			c0-5.1-2.2-10.5-5.9-14.1c-1.8-2-4-3.3-6.4-4.1c-2.4-1.3-5-1.8-7.7-1.7c-5.2,0.2-10.5,1.9-14.1,5.9c-3.6,3.9-5.9,8.7-5.9,14.1
			c0,33.5,0.2,67.1,0.6,100.6c0.4,33.4,1,66.7,1.7,100.1c0.4,18.8,0.9,37.6,1.5,56.5c0.2,5.2,2.1,10.4,5.9,14.1c1.8,2,4,3.3,6.4,4.1
			c2.4,1.3,5,1.8,7.7,1.7c5.2-0.2,10.5-1.9,14.1-5.9C2298.6-321.7,2301.1-326.7,2300.9-332L2300.9-332z"/>
	</g>
</g>
<g>
	<g>
		<path class="st0" d="M2286.1-577.5c24.4-4.1,48.8-8.2,73-13.5c24-5.3,47.7-11.7,70.7-20.5c14.4-5.5,28.5-11.7,42.1-19
			c2.3-1.3,4.2-3,5.6-5.2c1.8-1.9,3-4.2,3.6-6.8c0.8-2.7,1-5.3,0.4-8c-0.1-2.7-0.9-5.1-2.4-7.4c-2.8-4.3-6.9-8-12-9.2
			c-1.8-0.2-3.5-0.5-5.3-0.7c-3.6,0-7,0.9-10.1,2.7c-8.6,4.6-17.3,8.7-26.3,12.5c1.6-0.7,3.2-1.3,4.8-2c-19.1,8-38.8,14.3-58.9,19.5
			c-20.2,5.2-40.6,9.3-61.1,13c-11.5,2.1-23.1,4-34.7,6c-2.6,0.6-4.9,1.8-6.8,3.6c-2.2,1.4-3.9,3.3-5.2,5.6
			c-1.5,2.3-2.3,4.8-2.4,7.4c-0.6,2.7-0.5,5.3,0.4,8c1.6,4.8,4.6,9.5,9.2,12c1.6,0.7,3.2,1.3,4.8,2
			C2279-576.6,2282.5-576.6,2286.1-577.5L2286.1-577.5z"/>
	</g>
</g>
<g>
	<g>
		<path class="st0" d="M2286.1-512.1c23.9-6.3,47.8-12.5,71.8-18.6c24-6.1,48-12.1,72-17.9c13.5-3.3,27-6.6,40.5-9.8
			c2.6-0.6,4.9-1.8,6.8-3.6c2.2-1.4,3.9-3.3,5.2-5.6c1.5-2.3,2.3-4.8,2.4-7.4c0.6-2.7,0.5-5.3-0.4-8c-1.6-4.8-4.6-9.5-9.2-12
			c-4.9-2.6-10-3.3-15.4-2c-24.1,5.7-48.1,11.6-72.1,17.6c-24,6-48,12-71.9,18.2c-13.5,3.5-26.9,7-40.3,10.5
			c-4.8,1.3-9.4,4.9-12,9.2c-1.5,2.3-2.3,4.8-2.4,7.4c-0.6,2.7-0.5,5.3,0.4,8c1.6,4.8,4.6,9.5,9.2,12
			C2275.5-511.6,2280.7-510.7,2286.1-512.1L2286.1-512.1z"/>
	</g>
</g>
<g>
	<g>
		<path class="st0" d="M2448.2-645.2c-1.7,22.3-1.3,44.7-0.7,67.1c0.6,19,1.2,38,1.9,57c0.4,12.1,0.9,24.2,1.5,36.3
			c0.5,11.1,1,22.3,1.4,33.4c0.6,16.4,1.2,32.8,1.7,49.2c0.1,2.8,0.2,5.5,0.3,8.3c0.2,5.2,2.1,10.4,5.9,14.1c1.8,2,4,3.3,6.4,4.1
			c2.4,1.3,5,1.8,7.7,1.7c5.2-0.2,10.5-1.9,14.1-5.9c3.5-3.8,6-8.8,5.9-14.1c-0.6-17.5-1.1-35-1.8-52.5c-0.4-11.5-0.9-22.9-1.4-34.4
			c-0.5-11.6-1-23.2-1.4-34.9c-0.7-18-1.3-35.9-1.8-53.9c-0.7-22.4-1.3-44.8-0.1-67.1c0.2-2.8,0.3-5.6,0.5-8.4
			c0.1-2.8-0.5-5.3-1.7-7.7c-0.8-2.5-2.2-4.6-4.1-6.4c-1.8-2-4-3.3-6.4-4.1c-2.4-1.3-5-1.8-7.7-1.7c-5.2,0.2-10.5,1.9-14.1,5.9
			c-1,1.3-2.1,2.7-3.1,4C2449.1-652.2,2448.2-648.8,2448.2-645.2L2448.2-645.2z"/>
	</g>
</g>
<g>
	<g>
		<path class="st0" d="M2463.3-451.1c-12.8,0.3-25.7,1.9-38.1,4.6c-5.3,1.2-10.6,2.6-15.8,4.3c-6.6,2.1-13.2,4.7-19.2,8
			c-3.6,2-6.7,4.4-9.9,7c-1.7,1.4-3.3,2.8-4.8,4.4c-3.9,4.2-7.5,9.1-10,14.3c-2.5,5.2-4.7,10.7-6,16.4c-1.3,5.7-2,11.6-2.2,17.4
			c-0.2,5.4,0.1,10.7,0.8,16c0.4,3.3,0.9,6.6,2.1,9.8c1,2.7,2.1,5.4,3.5,7.9c1.3,2.3,3.1,4.4,4.7,6.4c0.7,0.8,1.4,1.6,2.1,2.3
			c2,1.8,4.2,3.5,6.4,4.9c0.9,0.6,1.8,1.1,2.8,1.5c2.4,1.1,5.1,2.4,7.7,2.9c2.8,0.6,5.7,1,8.6,1.1c3.1,0,6.1-0.5,9.1-1
			c2.6-0.4,5.1-1.2,7.7-1.9c8.9-2.4,17.7-5.1,26.3-8.6c5.7-2.3,11.4-4.7,16.8-7.7c5.1-2.9,9.8-6.3,14.3-10c4.5-3.7,8-8.1,11.6-12.7
			c3.8-5.1,6.4-11.1,8.5-17.1c2.1-6.1,3-12.7,3.6-19.1c0.5-5,0.5-9.9,0.4-14.9c-0.1-2.4-0.2-4.9-0.3-7.3c-0.2-5.3-2.1-10.4-5.9-14.1
			c-1.8-2-4-3.3-6.4-4.1c-2.4-1.3-5-1.8-7.7-1.7c-5.2,0.2-10.5,1.9-14.1,5.9c-3.5,3.8-6.1,8.8-5.9,14.1c0.4,8.2,0.6,16.5-0.4,24.7
			c0.2-1.8,0.5-3.5,0.7-5.3c-0.7,5-1.8,9.8-3.8,14.4c0.7-1.6,1.3-3.2,2-4.8c-1.5,3.4-3.3,6.6-5.6,9.6c1-1.3,2.1-2.7,3.1-4
			c-2.7,3.5-6,6.6-9.5,9.4c1.3-1,2.7-2.1,4-3.1c-5.9,4.5-12.6,8-19.4,10.9c1.6-0.7,3.2-1.3,4.8-2c-5.7,2.4-11.5,4.4-17.3,6.2
			c-2.9,0.9-5.8,1.7-8.7,2.5c-3.4,0.9-6.8,2-10.3,2.5c1.8-0.2,3.5-0.5,5.3-0.7c-1.7,0.2-3.3,0.2-5,0c1.8,0.2,3.5,0.5,5.3,0.7
			c-1.4-0.2-2.7-0.6-4.1-1.1c1.6,0.7,3.2,1.3,4.8,2c-1.5-0.7-2.9-1.5-4.2-2.5c1.3,1,2.7,2.1,4,3.1c-1.2-1-2.4-2.1-3.4-3.4
			c1,1.3,2.1,2.7,3.1,4c-1-1.4-1.9-2.9-2.6-4.4c0.7,1.6,1.3,3.2,2,4.8c-1.1-2.6-1.7-5.2-2-8c0.2,1.8,0.5,3.5,0.7,5.3
			c-0.8-6.7-0.8-13.5,0.1-20.1c-0.2,1.8-0.5,3.5-0.7,5.3c0.7-5.1,1.9-10.1,3.9-14.8c-0.7,1.6-1.3,3.2-2,4.8c1.5-3.5,3.4-6.8,5.7-9.9
			c-1,1.3-2.1,2.7-3.1,4c2.1-2.6,4.4-5,7.1-7c-1.3,1-2.7,2.1-4,3.1c3.6-2.7,7.5-4.9,11.7-6.6c-1.6,0.7-3.2,1.3-4.8,2
			c11.9-5,24.9-8,37.7-9.8c-1.8,0.2-3.5,0.5-5.3,0.7c6.4-0.9,12.9-1.4,19.4-1.5c5.2-0.1,10.4-2.1,14.1-5.9c2-1.8,3.3-4,4.1-6.4
			c1.3-2.4,1.8-5,1.7-7.7c-0.2-5.2-1.9-10.5-5.9-14.1C2473.6-448.8,2468.6-451.2,2463.3-451.1L2463.3-451.1z"/>
	</g>
</g>
<g>
	<g>
		<path class="st0" d="M2280.8-377c-3.4-2-7.1-3.5-10.8-4.9c-2.1-0.8-4.3-1.4-6.5-1.8c-6.3-1.3-12.9-2-19.3-1.5
			c-6.4,0.5-12.9,1.4-19,3.4c-3.8,1.2-7.4,2.8-11,4.4c-2.1,1-4.2,2.1-6.1,3.3c-11.1,7-20.2,16.4-27.2,27.4c-2.6,4-4.7,8.2-6.6,12.5
			c-2.5,5.7-4.9,11.4-6.4,17.4c-0.9,3.8-1.4,7.7-1.8,11.5c-0.2,2.3-0.3,4.6-0.1,6.9c0.3,3.8,0.7,7.7,2,11.3c0.8,2.5,1.9,4.9,3,7.2
			c0.5,1.1,1.1,2.1,1.8,3.1c4.5,6.4,10.2,12.1,17.5,15.4c3.7,1.7,7.5,3.3,11.5,4.2c4.1,0.9,8.3,1.5,12.4,1.6
			c4.5,0.2,8.9-0.5,13.4-1.1c2.7-0.4,5.4-0.9,8.1-1.7c6.5-1.8,12.8-4.5,18.8-7.6c5.4-2.8,10.2-6.4,15-10.2c3.6-2.8,6.9-6,9.9-9.4
			c8.1-9.3,14.3-19.6,18-31.3c1.8-5.9,2.7-12.1,3-18.3c0.1-2.2,0.1-4.4-0.1-6.6c-0.3-4-0.9-8.1-1.7-12c-0.5-2.3-1.2-4.6-2-6.8
			c-0.6-2.6-1.8-4.9-3.6-6.8c-1.4-2.2-3.3-3.9-5.6-5.2c-2.3-1.5-4.8-2.3-7.4-2.4c-2.7-0.6-5.3-0.5-8,0.4c-4.8,1.6-9.5,4.6-12,9.2
			c-2.4,4.5-3.8,10.4-2,15.4c1.3,3.5,2.2,7.2,2.7,10.9c-0.2-1.8-0.5-3.5-0.7-5.3c0.6,4.5,0.6,9,0,13.5c0.2-1.8,0.5-3.5,0.7-5.3
			c-0.7,4.8-2,9.4-3.8,13.8c0.7-1.6,1.3-3.2,2-4.8c-2.1,5-4.9,9.7-8.2,14c1-1.3,2.1-2.7,3.1-4c-3.7,4.8-8.1,9.1-12.9,12.9
			c1.3-1,2.7-2.1,4-3.1c-5,3.8-10.4,7-16.1,9.4c1.6-0.7,3.2-1.3,4.8-2c-5.3,2.2-10.9,3.9-16.6,4.7c1.8-0.2,3.5-0.5,5.3-0.7
			c-3.9,0.5-7.8,0.6-11.8,0.1c1.8,0.2,3.5,0.5,5.3,0.7c-3.2-0.4-6.4-1.2-9.4-2.5c1.6,0.7,3.2,1.3,4.8,2c-2.3-1-4.4-2.2-6.4-3.6
			c1.3,1,2.7,2.1,4,3.1c-1.5-1.2-2.8-2.5-4-4c1,1.3,2.1,2.7,3.1,4c-1.2-1.5-2.1-3.2-2.9-4.9c0.7,1.6,1.3,3.2,2,4.8
			c-0.8-2-1.3-4-1.6-6.1c0.2,1.8,0.5,3.5,0.7,5.3c-0.4-3.1-0.3-6.2,0.1-9.4c-0.2,1.8-0.5,3.5-0.7,5.3c0.8-5.9,2.7-11.6,5-17
			c-0.7,1.6-1.3,3.2-2,4.8c2.8-6.5,6.2-12.7,10.5-18.3c-1,1.3-2.1,2.7-3.1,4c3.4-4.4,7.3-8.3,11.6-11.7c-1.3,1-2.7,2.1-4,3.1
			c3.8-2.9,8-5.4,12.4-7.3c-1.6,0.7-3.2,1.3-4.8,2c4.9-2,10-3.4,15.3-4.1c-1.8,0.2-3.5,0.5-5.3,0.7c4.7-0.6,9.5-0.7,14.3,0
			c-1.8-0.2-3.5-0.5-5.3-0.7c3.9,0.5,7.6,1.5,11.2,3c-1.6-0.7-3.2-1.3-4.8-2c1.5,0.6,2.9,1.4,4.3,2.2c2.3,1.5,4.8,2.3,7.4,2.4
			c2.7,0.6,5.3,0.5,8-0.4c2.6-0.6,4.9-1.8,6.8-3.6c2.2-1.4,3.9-3.3,5.2-5.6c2.5-4.6,3.7-10.3,2-15.4
			C2288.3-370,2285.3-374.3,2280.8-377L2280.8-377z"/>
	</g>
</g>
<g>
	<g>
		<path class="st0" d="M216.2-550.2c-13.3,8.5-24.5,19.6-32.9,33c-4.1,6.5-7.2,13.6-9.7,20.9c-2.4,7.4-3.7,15.3-4.1,23.1
			c-0.1,2.9,0,5.7,0.2,8.6c0.5,4.6,1.1,9.3,2.2,13.8c1.7,7.1,4.6,14.1,8.1,20.5c1.4,2.6,3.1,5.1,4.9,7.5c2.7,3.5,5.4,7,8.6,10.1
			c3.2,3.1,6.7,5.8,10.3,8.3c2.4,1.7,5,3.2,7.7,4.5c4.7,2.2,9.5,4.1,14.4,5.5c3.5,0.9,7.1,1.6,10.7,2.1c8.5,1.2,17,2.3,25.6,1.8
			c4.9-0.3,9.9-0.9,14.7-1.9c4.8-1,9.2-2.8,13.7-4.7c3.1-1.3,6-3,8.7-5.1c3.8-2.9,7.4-5.7,10.5-9.4c3-3.7,5.9-7.4,8.2-11.6
			c2.3-4.3,4.2-8.9,5.9-13.5c1.2-3.4,2.1-6.9,2.8-10.5c1-5.3,1.7-10.6,1.9-16c0.1-3.9-0.1-7.8-0.6-11.7c-0.6-4.8-1.3-9.6-2.6-14.3
			c-1.3-4.5-3.1-8.8-5-13.1c-1.3-3-2.7-5.8-4.4-8.6c-2.4-4-5.3-7.7-8.2-11.3c-1.9-2.4-4-4.7-6.2-6.9c-3.4-3.3-7.3-6.3-11.1-9.1
			c-2.6-1.9-5.4-3.6-8.3-5.1c-4.3-2.3-8.9-4.2-13.5-5.8c-3.3-1.2-6.6-2.1-10-2.7c-8.1-1.6-16.5-2.5-24.7-1.7
			c-4.9,0.4-9.9,1.1-14.7,2.2c-2.6,0.6-4.9,1.8-6.8,3.6c-2.2,1.4-3.9,3.3-5.2,5.6c-1.5,2.3-2.3,4.8-2.4,7.4c-0.6,2.7-0.5,5.3,0.4,8
			c1.6,4.8,4.6,9.5,9.2,12c1.6,0.7,3.2,1.3,4.8,2c3.5,1,7.1,1,10.6,0c2.2-0.5,4.3-0.9,6.5-1.2c-1.8,0.2-3.5,0.5-5.3,0.7
			c6-0.8,12.1-0.8,18.2,0c-1.8-0.2-3.5-0.5-5.3-0.7c6.2,0.8,12.2,2.5,17.9,4.9c-1.6-0.7-3.2-1.3-4.8-2c5.2,2.2,10.2,5.1,14.7,8.6
			c-1.3-1-2.7-2.1-4-3.1c4.6,3.6,8.7,7.7,12.2,12.3c-1-1.3-2.1-2.7-3.1-4c3.7,4.8,6.7,10,9.1,15.6c-0.7-1.6-1.3-3.2-2-4.8
			c2.3,5.5,3.8,11.2,4.6,17c-0.2-1.8-0.5-3.5-0.7-5.3c0.8,6.2,0.8,12.4,0,18.6c0.2-1.8,0.5-3.5,0.7-5.3c-0.8,6-2.4,11.9-4.7,17.5
			c0.7-1.6,1.3-3.2,2-4.8c-1.8,4.3-4.1,8.3-6.9,12c1-1.3,2.1-2.7,3.1-4c-2.1,2.7-4.5,5.1-7.1,7.2c1.3-1,2.7-2.1,4-3.1
			c-2.7,2.1-5.6,3.7-8.7,5.1c1.6-0.7,3.2-1.3,4.8-2c-4,1.7-8.2,2.7-12.5,3.3c1.8-0.2,3.5-0.5,5.3-0.7c-8.5,1.1-17.1,0.6-25.6-0.5
			c1.8,0.2,3.5,0.5,5.3,0.7c-6.5-0.9-12.9-2.3-18.9-4.8c1.6,0.7,3.2,1.3,4.8,2c-4-1.7-7.8-3.9-11.3-6.6c1.3,1,2.7,2.1,4,3.1
			c-3.7-2.9-7.1-6.3-10-10c1,1.3,2.1,2.7,3.1,4c-3.2-4.2-5.8-8.7-7.9-13.6c0.7,1.6,1.3,3.2,2,4.8c-2.1-5.1-3.6-10.4-4.4-15.9
			c0.2,1.8,0.5,3.5,0.7,5.3c-0.7-5.4-0.7-10.9,0-16.3c-0.2,1.8-0.5,3.5-0.7,5.3c0.8-6,2.5-11.9,4.8-17.5c-0.7,1.6-1.3,3.2-2,4.8
			c2.6-6.1,6-11.8,10-17c-1,1.3-2.1,2.7-3.1,4c4.4-5.7,9.5-10.7,15.1-15.1c-1.3,1-2.7,2.1-4,3.1c2-1.6,4.1-3,6.3-4.4
			c4.3-2.8,7.8-6.9,9.2-12c0.8-2.7,1-5.3,0.4-8c-0.1-2.7-0.9-5.1-2.4-7.4c-2.8-4.3-6.9-8-12-9.2
			C226.5-553.4,220.8-553.1,216.2-550.2L216.2-550.2z"/>
	</g>
</g>
<g>
	<g>
		<path class="st0" d="M265.3-590.4c0-0.8,0-1.5,0-2.3c0-0.1,0-0.1,0-0.2c0,0,0,0,0-0.1c-0.2-1.6-0.5-3.8-0.7-5.4c0,0,0-0.1,0-0.1
			c0.2,1.8,0.5,3.5,0.7,5.3c0,0,0,0,0,0c-0.2,1.8-0.5,3.5-0.7,5.3c0-0.1,0.1-0.3,0.1-0.4c0.2-0.8,0.3-1.5,0.4-2.3
			c0.8-2.7,1-5.3,0.4-8c-0.1-2.7-0.9-5.1-2.4-7.4c-1.3-2.3-3-4.2-5.2-5.6c-1.9-1.8-4.2-3-6.8-3.6c-1.8-0.2-3.5-0.5-5.3-0.7
			c-3.6,0-7,0.9-10.1,2.7c-1.3,1-2.7,2.1-4,3.1c-2.5,2.5-4.2,5.4-5.1,8.8c-0.1,0.8-0.2,1.7-0.4,2.5c0,0,0,0.1,0,0.1
			c-1.3,4.2-0.6,6.5,0,10.7c-0.2-1.8-0.5-3.5-0.7-5.3c0.1,0.9,0.1,1.7,0.1,2.6c-0.1,2.8,0.5,5.3,1.7,7.7c0.8,2.5,2.2,4.6,4.1,6.4
			c1.8,2,4,3.3,6.4,4.1c2.4,1.3,5,1.8,7.7,1.7c1.8-0.2,3.5-0.5,5.3-0.7c3.4-1,6.3-2.7,8.8-5.1c1-1.3,2.1-2.7,3.1-4
			C264.4-583.5,265.3-586.8,265.3-590.4L265.3-590.4z"/>
	</g>
</g>
<g>
	<g>
		<path class="st0" d="M139.5-514.8c-2.9-1.5-5.7-2.7-8.8-4c-1.4-0.6-2.9-1-4.3-1.4c-2.7-0.8-5.3-1-8-0.4c-2.7,0.1-5.1,0.9-7.4,2.4
			c-2.3,1.3-4.2,3-5.6,5.2c-1.8,1.9-3,4.2-3.6,6.8c-0.2,1.8-0.5,3.5-0.7,5.3c0,3.6,0.9,7,2.7,10.1c1,1.3,2.1,2.7,3.1,4
			c2.5,2.5,5.4,4.2,8.8,5.1c1.5,0.5,3.1,0.9,4.6,1.5c-1.6-0.7-3.2-1.3-4.8-2c1.3,0.5,2.5,1.2,3.7,1.8c2.3,1.5,4.8,2.3,7.4,2.4
			c2.7,0.6,5.3,0.5,8-0.4c2.6-0.6,4.9-1.8,6.8-3.6c2.2-1.4,3.9-3.3,5.2-5.6c0.7-1.6,1.3-3.2,2-4.8c1-3.5,1-7.1,0-10.6
			c-0.7-1.6-1.3-3.2-2-4.8C144.9-510.7,142.5-513.1,139.5-514.8L139.5-514.8z"/>
	</g>
</g>
<g>
	<g>
		<path class="st0" d="M369.5-484.6c1.7-0.3,3.4-0.6,5.1-1c2.6-0.6,5.3-1,8-1.4c2.6-0.6,4.9-1.8,6.8-3.6c2.2-1.4,3.9-3.3,5.2-5.6
			c1.5-2.3,2.3-4.8,2.4-7.4c0.6-2.7,0.5-5.3-0.4-8c-0.7-1.6-1.3-3.2-2-4.8c-1.8-3-4.2-5.4-7.2-7.2c-1.6-0.7-3.2-1.3-4.8-2
			c-3.5-1-7.1-1-10.6,0c-2.7,0.4-5.4,0.8-8,1.4c-1.7,0.4-3.4,0.7-5.1,1c-2.6,0.6-4.9,1.8-6.8,3.6c-2.2,1.4-3.9,3.3-5.2,5.6
			c-1.5,2.3-2.3,4.8-2.4,7.4c-0.6,2.7-0.5,5.3,0.4,8c0.7,1.6,1.3,3.2,2,4.8c1.8,3,4.2,5.4,7.2,7.2c1.6,0.7,3.2,1.3,4.8,2
			C362.4-483.7,365.9-483.7,369.5-484.6L369.5-484.6z"/>
	</g>
</g>
<g>
	<g>
		<path class="st0" d="M161-386.2c-0.8,1-1.7,2-2.5,3c-0.6,0.6-1.2,1.2-1.8,1.7c-0.7,0.6-1.3,1.2-2,1.8c-2,1.8-3.3,4-4.1,6.4
			c-1.3,2.4-1.8,5-1.7,7.7c-0.1,2.8,0.5,5.3,1.7,7.7c0.8,2.5,2.2,4.6,4.1,6.4c1.3,1,2.7,2.1,4,3.1c3.1,1.8,6.5,2.7,10.1,2.7
			c1.8-0.2,3.5-0.5,5.3-0.7c3.4-1,6.3-2.7,8.8-5.1c1-0.9,2-1.7,2.9-2.6c0.6-0.6,1.1-1.2,1.7-1.8c0.6-0.7,1.1-1.4,1.7-2.1
			c2-1.8,3.3-4,4.1-6.4c1.3-2.4,1.8-5,1.7-7.7c0.1-2.8-0.5-5.3-1.7-7.7c-0.8-2.5-2.2-4.6-4.1-6.4c-1.3-1-2.7-2.1-4-3.1
			c-3.1-1.8-6.5-2.7-10.1-2.7c-1.8,0.2-3.5,0.5-5.3,0.7C166.4-390.4,163.5-388.6,161-386.2L161-386.2z"/>
	</g>
</g>
<g>
	<g>
		<path class="st0" d="M305.8-356.5c2.2,1.7,4.3,3.5,6.6,5.1c3,2.1,7.1,3.1,10.7,3.1c3.6,0,7-0.9,10.1-2.7c4.5-2.6,7.8-7,9.2-12
			c1-3.5,1-7.2,0-10.6c-0.9-3.3-2.7-6.4-5.1-8.8c-2.5-2.5-5.5-4.2-8.8-5.2c-1.7-0.5-3.6-0.8-5.3-0.7c0,0-5.3,0.7-5.3,0.7
			c-1.7,0.4-3.3,1.1-4.8,2c-3,1.7-5.4,4.2-7.2,7.2c-2.7,4.6-3.4,10.3-2,15.4c0.3,1.2,1.1,3.4,2,4.8c1,1.5,2.2,2.9,3.4,4.4
			c0.7,0.9,1.5,1.7,2.3,2.5c1.8,2,4,3.3,6.4,4.1c2.4,1.3,5,1.8,7.7,1.7c2.8,0.1,5.3-0.5,7.7-1.7c2.5-0.8,4.6-2.2,6.4-4.1
			c1-1.3,2.1-2.7,3.1-4c1.8-3.1,2.7-6.5,2.7-10.1c-0.2-1.8-0.5-3.5-0.7-5.3c-1-3.4-2.7-6.3-5.1-8.8c-0.8-0.9-1.7-1.7-2.4-2.7
			c1,1.3,2.1,2.7,3.1,4c-0.1-0.1-0.1-0.1-0.2-0.2c0.7,1.6,1.3,3.2,2,4.8c0,0,0,0,0,0c0.2,1.8,0.5,3.5,0.7,5.3c0,0,0,0,0,0
			c-0.2,1.8-0.5,3.5-0.7,5.3c0,0,0,0,0,0c-0.7,1.6-1.3,3.2-2,4.8c0,0,0,0,0,0c-1,1.3-2.1,2.7-3.1,4c0,0,0,0,0,0
			c-1.3,1-2.7,2.1-4,3.1c0,0,0,0,0,0c-1.6,0.7-3.2,1.3-4.8,2c0,0,0,0,0,0c-1.8,0.2-3.5,0.5-5.3,0.7c0,0,0,0,0,0
			c-1.8-0.2-3.5-0.5-5.3-0.7c0,0,0,0,0,0c-1.6-0.7-3.2-1.3-4.8-2c0,0,0,0,0,0c-1.3-1-2.7-2.1-4-3.1c0,0,0,0,0,0
			c-1-1.3-2.1-2.7-3.1-4c0,0,0,0,0,0c-0.7-1.6-1.3-3.2-2-4.8c0,0,0,0,0,0c-0.2-1.8-0.5-3.5-0.7-5.3c0,0,0,0,0,0
			c0.2-1.8,0.5-3.5,0.7-5.3c0,0,0,0,0,0c0.7-1.6,1.3-3.2,2-4.8c0,0,0,0,0,0c1-1.3,2.1-2.7,3.1-4c0,0,0,0,0,0c1.3-1,2.7-2.1,4-3.1
			c0,0,0,0,0,0c1.6-0.7,3.2-1.3,4.8-2c0,0,0,0,0,0c1.8-0.2,3.5-0.5,5.3-0.7c0,0,0,0,0,0c1.8,0.2,3.5,0.5,5.3,0.7c0,0,0,0,0,0
			c1.6,0.7,3.2,1.3,4.8,2c-0.2-0.1-0.3-0.2-0.5-0.3c-0.5-0.3-1-0.7-1.4-1.1c1.3,1,2.7,2.1,4,3.1c-0.4-0.3-0.8-0.6-1.1-0.9
			c-1.8-2-4-3.3-6.4-4.1c-2.4-1.3-5-1.8-7.7-1.7c-2.8-0.1-5.3,0.5-7.7,1.7c-2.5,0.8-4.6,2.2-6.4,4.1c-1,1.3-2.1,2.7-3.1,4
			c-1.8,3.1-2.7,6.5-2.7,10.1c0.2,1.8,0.5,3.5,0.7,5.3C301.6-362,303.3-359,305.8-356.5L305.8-356.5z"/>
	</g>
</g>
<g>
	<g>
		<path class="st0" d="M362.5-411.7c13.6,4.9,27.4,9.1,41.4,12.8c5.1,1.3,10.9,0.6,15.4-2c2.3-1.3,4.2-3,5.6-5.2
			c1.8-1.9,3-4.2,3.6-6.8c1.2-5.1,0.9-10.9-2-15.4c-2.8-4.4-6.8-7.8-12-9.2c-14-3.7-27.8-7.9-41.4-12.8c-2.7-0.8-5.3-1-8-0.4
			c-2.7,0.1-5.1,0.9-7.4,2.4c-2.3,1.3-4.2,3-5.6,5.2c-1.8,1.9-3,4.2-3.6,6.8c-1.2,5.1-0.9,10.9,2,15.4c1,1.3,2.1,2.7,3.1,4
			C356.1-414.3,359.1-412.6,362.5-411.7L362.5-411.7z"/>
	</g>
</g>
<g>
	<g>
		<path class="st0" d="M224.8-348.5c0.1,0.5,0.1,1,0.2,1.5c-0.2-1.8-0.5-3.5-0.7-5.3c1.4,10.8,2.4,21.7,2.9,32.6
			c0.2,5.3,2.1,10.3,5.9,14.1c1.8,2,4,3.3,6.4,4.1c2.4,1.3,5,1.8,7.7,1.7c5.2-0.2,10.5-1.9,14.1-5.9c3.5-3.8,6.1-8.8,5.9-14.1
			c-0.6-13.2-2-26.3-3.8-39.4c-0.6-2.6-1.8-4.9-3.6-6.8c-1.4-2.2-3.3-3.9-5.6-5.2c-2.3-1.5-4.8-2.3-7.4-2.4c-2.7-0.6-5.3-0.5-8,0.4
			c-4.8,1.6-9.5,4.6-12,9.2c-0.7,1.6-1.3,3.2-2,4.8C223.9-355.6,223.9-352.1,224.8-348.5L224.8-348.5z"/>
	</g>
</g>
<g>
	<g>
		<path class="st0" d="M122.7-451.2c-12.1,4.9-23.7,10.9-34.9,17.7c-2.4,1.4-4.8,2.9-7.1,4.5c-2.3,1.3-4.2,3-5.6,5.2
			c-1.8,1.9-3,4.2-3.6,6.8c-0.8,2.7-1,5.3-0.4,8c0.1,2.7,0.9,5.1,2.4,7.4c2.8,4.3,6.9,8,12,9.2c5,1.1,11,1,15.4-2
			c5.6-3.8,11.5-7.2,17.4-10.4c6.1-3.3,12.3-6.6,18.7-9.3c-1.6,0.7-3.2,1.3-4.8,2c0.4-0.2,0.8-0.3,1.2-0.5c2.6-0.6,4.9-1.8,6.8-3.6
			c2.2-1.4,3.9-3.3,5.2-5.6c1.5-2.3,2.3-4.8,2.4-7.4c0.6-2.7,0.5-5.3-0.4-8c-1.6-4.8-4.6-9.5-9.2-12c-1.6-0.7-3.2-1.3-4.8-2
			C129.8-452.1,126.2-452.1,122.7-451.2L122.7-451.2z"/>
	</g>
</g>
<g>
	<g>
		<path class="st0" d="M176.3-578.2c-10.9-11.1-23.1-21-36-29.7c-2.3-1.5-4.8-2.3-7.4-2.4c-2.7-0.6-5.3-0.5-8,0.4
			c-2.6,0.6-4.9,1.8-6.8,3.6c-2.2,1.4-3.9,3.3-5.2,5.6c-2.5,4.6-3.7,10.3-2,15.4c0.7,1.6,1.3,3.2,2,4.8c1.8,3,4.2,5.4,7.2,7.2
			c3.5,2.4,7,4.9,10.4,7.5c-1.3-1-2.7-2.1-4-3.1c7.6,5.9,14.8,12.2,21.6,19.1c3.6,3.6,9,5.9,14.1,5.9c2.8,0.1,5.3-0.5,7.7-1.7
			c2.5-0.8,4.6-2.2,6.4-4.1c3.5-3.8,6.1-8.8,5.9-14.1C182-569.3,180.2-574.3,176.3-578.2L176.3-578.2z"/>
	</g>
</g>
<g>
	<g>
		<path class="st0" d="M334.8-548.6c10.1-9.7,20.3-19.3,30.4-29c2-1.8,3.3-4,4.1-6.4c1.3-2.4,1.8-5,1.7-7.7c0.1-2.8-0.5-5.3-1.7-7.7
			c-0.8-2.5-2.2-4.6-4.1-6.4c-3.8-3.5-8.8-6.1-14.1-5.9c-5.4,0.2-10.2,2.1-14.1,5.9c-10.1,9.7-20.3,19.3-30.4,29
			c-2,1.8-3.3,4-4.1,6.4c-1.3,2.4-1.8,5-1.7,7.7c-0.1,2.8,0.5,5.3,1.7,7.7c0.8,2.5,2.2,4.6,4.1,6.4c3.8,3.5,8.8,6.1,14.1,5.9
			C326-543,330.8-544.9,334.8-548.6L334.8-548.6z"/>
	</g>
</g>
<g>
	<g>
		<path class="st0" d="M758.6-627.9c-18.8,3.5-37.2,9.9-54.1,18.9c-9.2,4.9-17.7,10.9-25.8,17.4c-6.6,5.2-12.7,11.1-18.1,17.5
			c-6.4,7.5-12.2,15.6-16.9,24.3c-4.7,8.6-8.6,17.9-11.2,27.3c-5.7,20.2-5.3,41.5-2.9,62.2c1.2,10.7,2.8,21.3,6.2,31.5
			c2.8,8.8,6.5,17.4,11,25.5c4.5,8.1,9.9,15.6,15.7,22.9c4.9,6.1,10.2,11.7,16.1,16.9c6.9,6.1,14.4,11.8,22.2,16.8
			c7.9,5,16.3,8.9,25,12.5c19.6,8.2,41.1,11.5,62.3,9.4c18.7-1.8,37.7-5.1,55.5-11.2c9.1-3.1,18.2-6.9,26.6-11.6
			c8.3-4.6,16.2-10.3,23.3-16.7c2.9-2.6,5.7-5.5,8.2-8.5c2-1.8,3.3-4,4.1-6.4c1.3-2.4,1.8-5,1.7-7.7c0.1-2.8-0.5-5.3-1.7-7.7
			c-0.8-2.5-2.2-4.6-4.1-6.4c-3.8-3.5-8.8-6.1-14.1-5.9c-5,0.2-10.7,1.9-14.1,5.9c-4.1,4.9-8.8,9.3-13.8,13.2c1.3-1,2.7-2.1,4-3.1
			c-7.8,6-16.4,10.7-25.4,14.6c1.6-0.7,3.2-1.3,4.8-2c-12.8,5.4-26.4,9-40.1,11.5c-4.3,0.8-8.6,1.5-12.9,2c1.8-0.2,3.5-0.5,5.3-0.7
			c-11.2,1.5-22.5,2.1-33.7,0.6c1.8,0.2,3.5,0.5,5.3,0.7c-10.7-1.5-21.1-4.5-31-8.7c1.6,0.7,3.2,1.3,4.8,2
			c-11-4.6-21.3-10.7-30.7-18c1.3,1,2.7,2.1,4,3.1c-9.2-7.1-17.5-15.4-24.6-24.6c1,1.3,2.1,2.7,3.1,4c-6.7-8.7-12.3-18.1-16.5-28.2
			c0.7,1.6,1.3,3.2,2,4.8c-4.3-10.3-7-21.1-8.5-32.1c0.2,1.8,0.5,3.5,0.7,5.3c-1-7.8-1.7-15.6-2-23.4c-0.3-7.7-0.2-15.5,0.8-23.2
			c-0.2,1.8-0.5,3.5-0.7,5.3c1.2-9,3.7-17.9,7.2-26.3c-0.7,1.6-1.3,3.2-2,4.8c3.9-9.3,9.1-18.1,15.3-26.2c-1,1.3-2.1,2.7-3.1,4
			c6.7-8.6,14.4-16.3,23-22.9c-1.3,1-2.7,2.1-4,3.1c10.2-7.8,21.3-14.1,33.1-19.1c-1.6,0.7-3.2,1.3-4.8,2
			c11.7-4.9,23.9-8.5,36.4-10.8c2.6-0.6,4.9-1.8,6.8-3.6c2.2-1.4,3.9-3.3,5.2-5.6c1.5-2.3,2.3-4.8,2.4-7.4c0.6-2.7,0.5-5.3-0.4-8
			c-1.6-4.8-4.6-9.5-9.2-12c-1.6-0.7-3.2-1.3-4.8-2C765.7-628.8,762.1-628.8,758.6-627.9L758.6-627.9z"/>
	</g>
</g>
<g>
	<g>
		<path class="st0" d="M747-613.6c-4,10.6-7.5,21.4-10.4,32.4c-3.3,12.5-5.5,25.3-6.9,38.1c-1.2,10.7-1.4,21.6-0.5,32.3
			c0.9,11.3,2.7,22.6,5.9,33.4c1.3,4.6,3,9,4.8,13.4c2.5,5.9,5,11.8,8.2,17.3c2.4,4.2,5,8.2,7.9,12c3.9,5.1,7.8,10.1,12.4,14.5
			c15.7,15.5,35.3,25.9,56.1,33c19.6,6.7,40.1,9.9,60.6,12.4c2.4,0.3,4.7,0.6,7.1,0.8c2.8,0.1,5.3-0.5,7.7-1.7
			c2.5-0.8,4.6-2.2,6.4-4.1c2-1.8,3.3-4,4.1-6.4c1.3-2.4,1.8-5,1.7-7.7c-0.2-5.2-1.9-10.5-5.9-14.1c-1.3-1-2.7-2.1-4-3.1
			c-3.1-1.8-6.5-2.7-10.1-2.7c-3.8-0.4-7.6-0.9-11.4-1.4c1.8,0.2,3.5,0.5,5.3,0.7c-16.4-2.2-32.7-5.2-48.5-10.3
			c-4.4-1.4-8.8-3.1-13.1-4.9c1.6,0.7,3.2,1.3,4.8,2c-9.6-4.1-18.9-9.2-27.2-15.6c1.3,1,2.7,2.1,4,3.1c-6.8-5.3-12.9-11.3-18.2-18.1
			c1,1.3,2.1,2.7,3.1,4c-5.9-7.7-10.8-16.2-14.6-25.2c0.7,1.6,1.3,3.2,2,4.8c-4.6-11-7.7-22.7-9.3-34.5c0.2,1.8,0.5,3.5,0.7,5.3
			c-1.9-14.8-1.6-29.7,0.4-44.5c-0.2,1.8-0.5,3.5-0.7,5.3c2.2-16,6.2-31.6,11.3-46.9c1.5-4.4,3-8.8,4.6-13.1c0.8-2.7,1-5.3,0.4-8
			c-0.1-2.7-0.9-5.1-2.4-7.4c-1.3-2.3-3-4.2-5.2-5.6c-1.9-1.8-4.2-3-6.8-3.6c-5.1-1.2-10.9-0.9-15.4,2c-1.3,1-2.7,2.1-4,3.1
			C749.7-619.9,748-617,747-613.6L747-613.6z"/>
	</g>
</g>
<g>
	<g>
		<path class="st0" d="M2653.2-480.2c1.3,26.5,2.5,53.1,3,79.6c0.4,23.7,0.3,47.4-0.3,71.1c-0.4,15.8-1,31.6-1.6,47.5
			c-0.1,3.4,0.6,6.7,2.2,9.6c1,3.1,2.7,5.8,5.2,8c2.3,2.4,4.9,4.2,8,5.2c3,1.6,6.2,2.3,9.6,2.2c2.2-0.3,4.4-0.6,6.6-0.9
			c4.2-1.2,7.9-3.3,11-6.4c1.3-1.7,2.6-3.4,3.9-5.1c2.3-3.9,3.4-8.1,3.4-12.6c1.1-26.5,2-53.1,2.2-79.6c0.2-23.7-0.3-47.4-1.1-71.1
			c-0.6-15.8-1.3-31.6-2.1-47.5c0.1-3.4-0.6-6.7-2.2-9.6c-1-3.1-2.7-5.8-5.2-8c-2.3-2.4-4.9-4.2-8-5.2c-3-1.6-6.2-2.3-9.6-2.2
			c-2.2,0.3-4.4,0.6-6.6,0.9c-4.2,1.2-7.9,3.3-11,6.4C2656.2-493.1,2652.9-486.8,2653.2-480.2L2653.2-480.2z"/>
	</g>
</g>
<g>
	<g>
		<path class="st0" d="M2679.1-253.3c24.4-0.5,48.9-0.9,73.3-1.2c21.1-0.3,42.2-0.4,63.4-0.4c20,0,39.9,0.2,59.9,0.5
			c21,0.3,41.9,0.8,62.9,1.4c23.8,0.6,47.7,1.4,71.5,2.2c3.2,0.1,6.5,0.2,9.7,0.3c3.4,0.1,6.7-0.6,9.6-2.2c3.1-1,5.8-2.7,8-5.2
			c2.4-2.3,4.2-4.9,5.2-8c1.6-3,2.3-6.2,2.2-9.6c-0.3-6.5-2.4-13.2-7.3-17.7c-5-4.6-10.8-7.1-17.7-7.3c-24.4-0.8-48.9-1.6-73.3-2.3
			c-21.1-0.6-42.2-1.1-63.4-1.5c-20-0.3-39.9-0.5-59.9-0.6c-21-0.1-41.9,0-62.9,0.3c-23.8,0.3-47.7,0.7-71.5,1.1
			c-3.2,0.1-6.5,0.1-9.7,0.2c-6.5,0.1-13.1,2.7-17.7,7.3c-2.4,2.3-4.2,4.9-5.2,8c-1.6,3-2.3,6.2-2.2,9.6c0.3,6.5,2.4,13.2,7.3,17.7
			C2666.2-256.2,2672.3-253.2,2679.1-253.3L2679.1-253.3z"/>
	</g>
</g>
<g>
	<g>
		<path class="st0" d="M3044.9-277.3c-0.6-15.1-1.2-30.2-1.8-45.3c-0.5-12.8-0.9-25.7-1.2-38.5c-0.3-12-0.5-24-0.7-36
			c-0.1-12.7-0.2-25.3-0.1-38c0-14.7,0.2-29.5,0.4-44.2c0-2.1,0.1-4.1,0.1-6.2c0.1-3.4-0.6-6.7-2.2-9.6c-1-3.1-2.7-5.8-5.2-8
			c-2.3-2.4-4.9-4.2-8-5.2c-3-1.6-6.2-2.3-9.6-2.2c-2.2,0.3-4.4,0.6-6.6,0.9c-4.2,1.2-7.9,3.3-11,6.4c-1.3,1.7-2.6,3.4-3.9,5.1
			c-2.3,3.9-3.4,8.1-3.4,12.6c-0.2,15.1-0.4,30.2-0.5,45.3c-0.1,12.8,0,25.7,0.1,38.5c0.1,12,0.3,24,0.6,36
			c0.3,12.7,0.7,25.3,1.2,37.9c0.5,14.7,1.1,29.5,1.7,44.2c0.1,2,0.2,4.1,0.2,6.1c-0.1,3.4,0.6,6.7,2.2,9.6c1,3.1,2.7,5.8,5.2,8
			c2.3,2.4,4.9,4.2,8,5.2c3,1.6,6.2,2.3,9.6,2.2c2.2-0.3,4.4-0.6,6.6-0.9c4.2-1.2,7.9-3.3,11-6.4
			C3042-264.4,3045.2-270.7,3044.9-277.3L3044.9-277.3z"/>
	</g>
</g>
<g>
	<g>
		<path class="st0" d="M2792.7-552.4c14.3-0.1,28.6-0.2,42.9-0.4c11-0.1,22.1-0.3,33.1-0.4c9.1-0.1,18.3-0.2,27.4-0.2
			c3.4,0.1,6.7-0.6,9.6-2.2c3.1-1,5.8-2.7,8-5.2c2.4-2.3,4.2-4.9,5.2-8c1.6-3,2.3-6.2,2.2-9.6c-0.3-2.2-0.6-4.4-0.9-6.6
			c-1.2-4.2-3.3-7.9-6.4-11c-4.9-4.5-10.9-7.4-17.7-7.3c-14.3,0.1-28.6,0.2-42.9,0.4c-11,0.1-22.1,0.3-33.1,0.4
			c-9.1,0.1-18.3,0.2-27.4,0.2c-3.4-0.1-6.7,0.6-9.6,2.2c-3.1,1-5.8,2.7-8,5.2c-2.4,2.3-4.2,4.9-5.2,8c-1.6,3-2.3,6.2-2.2,9.6
			c0.3,2.2,0.6,4.4,0.9,6.6c1.2,4.2,3.3,7.9,6.4,11C2779.9-555.2,2786-552.3,2792.7-552.4L2792.7-552.4z"/>
	</g>
</g>
<g>
	<g>
		<path class="st0" d="M2921.6-579c-1-18-1.9-35.9-2.9-53.9c0.1-3.4-0.6-6.7-2.2-9.6c-1-3.1-2.7-5.8-5.2-8c-2.3-2.4-4.9-4.2-8-5.2
			c-3-1.6-6.2-2.3-9.6-2.2c-2.2,0.3-4.4,0.6-6.6,0.9c-4.2,1.2-7.9,3.3-11,6.4c-4.4,4.7-7.7,11-7.3,17.7c1,18,1.9,35.9,2.9,53.9
			c-0.1,3.4,0.6,6.7,2.2,9.6c1,3.1,2.7,5.8,5.2,8c2.3,2.4,4.9,4.2,8,5.2c3,1.6,6.2,2.3,9.6,2.2c2.2-0.3,4.4-0.6,6.6-0.9
			c4.2-1.2,7.9-3.3,11-6.4C2918.7-566.1,2922-572.4,2921.6-579L2921.6-579z"/>
	</g>
</g>
<g>
	<g>
		<path class="st0" d="M2815.3-583.1c-0.3-19-0.7-37.9-1-56.9c0.1-3.4-0.6-6.7-2.2-9.6c-1-3.1-2.7-5.8-5.2-8c-2.3-2.4-4.9-4.2-8-5.2
			c-3-1.6-6.2-2.3-9.6-2.2c-2.2,0.3-4.4,0.6-6.6,0.9c-4.2,1.2-7.9,3.3-11,6.4c-4.4,4.8-7.4,10.9-7.3,17.7c0.3,19,0.7,37.9,1,56.9
			c-0.1,3.4,0.6,6.7,2.2,9.6c1,3.1,2.7,5.8,5.2,8c2.3,2.4,4.9,4.2,8,5.2c3,1.6,6.2,2.3,9.6,2.2c2.2-0.3,4.4-0.6,6.6-0.9
			c4.2-1.2,7.9-3.3,11-6.4C2812.4-570.3,2815.4-576.4,2815.3-583.1L2815.3-583.1z"/>
	</g>
</g>
<g>
	<g>
		<path class="st0" d="M2797.1-619.3c13.4-0.1,26.8-0.3,40.2-0.6c10.1-0.2,20.3-0.4,30.4-0.6c8.6-0.1,17.3-0.2,25.9-0.3
			c3.4,0.1,6.7-0.6,9.6-2.2c3.1-1,5.8-2.7,8-5.2c2.4-2.3,4.2-4.9,5.2-8c1.6-3,2.3-6.2,2.2-9.6c-0.3-2.2-0.6-4.4-0.9-6.6
			c-1.2-4.2-3.3-7.9-6.4-11c-4.9-4.5-10.9-7.4-17.7-7.3c-13.4,0.1-26.8,0.3-40.2,0.6c-10.1,0.2-20.3,0.4-30.4,0.6
			c-8.6,0.1-17.3,0.2-25.9,0.3c-3.4-0.1-6.7,0.6-9.6,2.2c-3.1,1-5.8,2.7-8,5.2c-2.4,2.3-4.2,4.9-5.2,8c-1.6,3-2.3,6.2-2.2,9.6
			c0.3,2.2,0.6,4.4,0.9,6.6c1.2,4.2,3.3,7.9,6.4,11C2784.3-622.2,2790.4-619.3,2797.1-619.3L2797.1-619.3z"/>
	</g>
</g>
<g>
	<g>
		<path class="st0" d="M2679.1-460.7c18.3,0,36.5,0.1,54.8,0.1c5.1,0,10.3,0,15.4,0c3.4,0.1,6.7-0.6,9.6-2.2c3.1-1,5.8-2.7,8-5.2
			c2.4-2.3,4.2-4.9,5.2-8c1.6-3,2.3-6.2,2.2-9.6c-0.3-2.2-0.6-4.4-0.9-6.6c-1.2-4.2-3.3-7.9-6.4-11c-1.7-1.3-3.4-2.6-5.1-3.9
			c-3.9-2.3-8.1-3.4-12.6-3.4c-18.3,0-36.5-0.1-54.8-0.1c-5.1,0-10.3,0-15.4,0c-3.4-0.1-6.7,0.6-9.6,2.2c-3.1,1-5.8,2.7-8,5.2
			c-2.4,2.3-4.2,4.9-5.2,8c-1.6,3-2.3,6.2-2.2,9.6c0.3,2.2,0.6,4.4,0.9,6.6c1.2,4.2,3.3,7.9,6.4,11c1.7,1.3,3.4,2.6,5.1,3.9
			C2670.3-461.8,2674.6-460.7,2679.1-460.7L2679.1-460.7z"/>
	</g>
</g>
<g>
	<g>
		<path class="st0" d="M2723.7-485.5c-1.1,15.4-1.3,30.8-0.9,46.2c0.3,12.3,0.9,24.6,0.4,36.9c-0.3,8.1-1.1,16.1-2.1,24.1
			c0.3-2.2,0.6-4.4,0.9-6.6c-0.8,6.2-1.9,12.5-3.1,18.6c-1,3.3-1.2,6.6-0.4,10c0.2,3.3,1.1,6.4,3,9.3c1.6,2.9,3.7,5.3,6.4,7
			c2.4,2.2,5.2,3.7,8.5,4.5c2.2,0.3,4.4,0.6,6.6,0.9c4.5,0,8.7-1.2,12.6-3.4c1.7-1.3,3.4-2.6,5.1-3.9c3.1-3.1,5.2-6.8,6.4-11
			c3.6-18.9,6.1-38.1,6.3-57.4c0.1-14.5-0.8-28.9-0.8-43.4c0-10.6,0.4-21.2,1.1-31.8c0.1-3.4-0.6-6.7-2.2-9.6c-1-3.1-2.7-5.8-5.2-8
			c-2.3-2.4-4.9-4.2-8-5.2c-3-1.6-6.2-2.3-9.6-2.2c-2.2,0.3-4.4,0.6-6.6,0.9c-4.2,1.2-7.9,3.3-11,6.4c-1.3,1.7-2.6,3.4-3.9,5.1
			C2724.8-494.2,2723.7-490,2723.7-485.5L2723.7-485.5z"/>
	</g>
</g>
<g>
	<g>
		<path class="st0" d="M2747.6-322.7c27-0.8,54-1.6,81.1-1.7c22.3-0.1,44.6,0.2,66.9,0.9c16.7,0.5,33.3,1,50,1.6
			c4.5,0,8.7-1.2,12.6-3.4c2.9-1.6,5.3-3.7,7-6.4c2.2-2.4,3.7-5.2,4.5-8.5c1.2-4.4,1.2-8.9,0-13.3c-0.2-1.2-0.4-2.4-0.6-3.6
			c0.3,2.2,0.6,4.4,0.9,6.6c-2.8-21.6,1.8-43.2,3.8-64.7c0.9-10.2,1.1-20.5,0.9-30.8c-0.1-5.2-0.3-10.3-0.6-15.5
			c-0.2-4-0.2-8-0.6-11.9c-0.3-2.8-0.5-5.7-1.2-8.4c-1.2-4.7-2.1-5.5-4.5-8.6c1.8,2.3-1.3-1.8-2-2.6c0,0-5-3.9-5.1-3.9
			c0,0-6-2.5-6-2.5c0,0-6.6-0.9-6.7-0.9c-41.2-1.8-4.4,0.3-6.7,0.9c-4.9,1.4-5.3,2-8.5,4.5c-3.2,2.5-4.1,3-6.6,7.2
			c-1.1,2-2,4.2-2.7,6.4c-0.1,0.3-0.2,0.7-0.3,1c0.8-2,1.7-4,2.5-6c0,0.1-0.1,0.1-0.1,0.2c1.3-1.7,2.6-3.4,3.9-5.1c0,0,0,0-0.1,0.1
			c1.7-1.3,3.4-2.6,5.1-3.9c0,0,0,0,0,0c2-0.8,4-1.7,6-2.5c0,0,0,0,0,0c2.2-0.3,4.4-0.6,6.6-0.9c0,0,0,0,0,0
			c2.2,0.3,4.4,0.6,6.6,0.9c0,0,0,0,0,0c2,0.8,4,1.7,6,2.5c0,0,0,0,0,0c1.7,1.3,3.4,2.6,5.1,3.9c0,0,0,0,0,0
			c1.3,1.7,2.6,3.4,3.9,5.1c0,0,0-0.1-0.1-0.1c0.8,2,1.7,4,2.5,6c-0.1-0.3-0.2-0.7-0.2-1.1c0.3,2.2,0.6,4.4,0.9,6.6
			c-0.3-2.6-0.7-5.6-0.4-8.2c-0.3,2.2-0.6,4.4-0.9,6.6c0.1-0.4,0.2-0.8,0.3-1.1c-0.8,2-1.7,4-2.5,6c0.1-0.1,0.1-0.2,0.2-0.3
			c-1.3,1.7-2.6,3.4-3.9,5.1c0.1-0.2,0.3-0.4,0.5-0.6c-1.7,1.3-3.4,2.6-5.1,3.9c0.3-0.2,0.6-0.4,1-0.6c-2,0.8-4,1.7-6,2.5
			c0.5-0.2,1-0.3,1.5-0.4c-2.2,0.3-4.4,0.6-6.6,0.9c9.1-0.6,18.3-0.4,27.4-0.1c8,0.2,16,0.5,24,0.5c5,0,10,0,14.9-0.2
			c6.6-0.2,13-2.6,17.7-7.3c2.4-2.3,4.2-4.9,5.2-8c1.6-3,2.3-6.2,2.2-9.6c-0.3-2.2-0.6-4.4-0.9-6.6c-1.2-4.2-3.3-7.9-6.4-11
			c-4.8-4.4-11-7.6-17.7-7.3c-14.5,0.5-29-0.2-43.6-0.4c-3.8-0.1-7.7-0.1-11.5,0c-2.1,0-4.3,0.1-6.4,0.1c-1,0-2.1,0.1-3.1,0.1
			c-0.6,0-1.1,0-1.7,0.1c-1.8,0.1-5.1,0.6-6.8,0.9c-0.3,0-0.5,0.1-0.8,0.2c-0.2,0.1-0.4,0.1-0.5,0.2c-1.4,0.5-4.9,1.9-6.1,2.6
			c-1.2,0.7-2.3,1.7-3.3,2.5c-3.1,2.4-2.6,2-5,5.1c-0.9,1.2-1.5,1.8-2.2,2.9c-0.8,2-1.7,4-2.5,6c-0.1,0.2-0.2,0.4-0.2,0.6
			c-0.1,0.2-0.1,0.4-0.1,0.6c-0.4,1.7-0.8,5.1-0.9,6.8c0,0.4-0.1,0.8-0.1,1.2c0,0.8,0.1,1.7,0.1,2.5c0.1,1.1,0.1,2.3,0.2,3.4
			c0.3,2.7,0.5,5.5,1.1,8.2c0,0.1,0,0.2,0.1,0.2c0.1,0.4,2.4,5.7,2.6,6.1c0.2,0.4,3.6,4.8,4,5.1c0,0,0,0,0,0
			c1.7,1.3,3.4,2.6,5.1,3.9c1,0.5,2,0.9,3,1.3c10.5,4.4,1.9,1,3,1.3c0,0,6.6,0.9,6.7,0.9c0,0,6.6-0.9,6.7-0.9c0,0,6-2.5,6-2.5
			c0.2-0.1,4.9-3.8,5.1-3.9c0.2-0.2,3.8-4.9,4-5.1c1.4-2.4,2-5,3.1-7.5c-0.8,2-1.7,4-2.5,6c0-0.1,0.1-0.1,0.1-0.2
			c-1.3,1.7-2.6,3.4-3.9,5.1c0,0,0,0,0.1-0.1c-1.7,1.3-3.4,2.6-5.1,3.9c0,0,0,0,0,0c-2,0.8-4,1.7-6,2.5c0,0,0,0,0,0
			c-2.2,0.3-4.4,0.6-6.6,0.9c0,0,0,0,0,0c-2.2-0.3-4.4-0.6-6.6-0.9c0,0,0,0,0,0c-2-0.8-4-1.7-6-2.5c0,0,0,0,0,0
			c-1.7-1.3-3.4-2.6-5.1-3.9c0,0,0,0,0,0c-1.3-1.7-2.6-3.4-3.9-5.1c0,0,0,0.1,0.1,0.1c-0.8-2-1.7-4-2.5-6c0.1,0.3,0.2,0.7,0.2,1.1
			c-0.3-2.2-0.6-4.4-0.9-6.6c0.3,2.5,0.4,5,0.5,7.5c0.2,4.3,0.4,8.6,0.6,12.9c0.3,8.2,0.5,16.4,0.2,24.7c-0.6,17.8-3.8,35.3-5.1,53
			c-0.8,12.1-0.1,23.8,1.9,35.7c8-10.5,16.1-21.1,24.1-31.6c-27-0.9-54-1.9-81.1-2.3c-22.3-0.3-44.6-0.2-66.9,0.3
			c-16.7,0.3-33.3,0.8-50,1.3c-6.5,0.2-13,2.7-17.7,7.3c-2.4,2.3-4.2,4.9-5.2,8c-1.6,3-2.3,6.2-2.2,9.6c0.3,2.2,0.6,4.4,0.9,6.6
			c1.2,4.2,3.3,7.9,6.4,11C2734.7-325.6,2740.9-322.5,2747.6-322.7L2747.6-322.7z"/>
	</g>
</g>
<g>
	<g>
		<path class="st0" d="M2685.8-450.5c1.8,15.8,2.3,31.7,0.9,47.6c-1.2,13.1-3.2,26.2-3.8,39.3c-0.4,8.5-0.4,17,0,25.4
			c0.1,2.3,0.2,4.6,0.4,6.8c0.3,2.5,0.4,6.2,1.4,8.9c0.8,2.2,1.8,4.8,2.9,6.8c0.5,0.9,2.2,2.9,2.2,2.8c0.8,1.1,1.5,2.1,2.5,3.1
			c1.7,1.7,3.8,3.3,5.9,4.5c1.3,0.7,4.7,2.1,6.2,2.6c0.3,0.1,0.5,0.2,0.8,0.3c3.1,0.8,6.3,1.1,9.5,1.2c2.7,0.1,5.3,0.2,8,0.3
			c20.9,0.7,41.9,1.4,62.8,2.2c21,0.7,42,1.4,63.1,2.2c21,0.7,42,1.4,63.1,2.2c10.5,0.4,21,0.7,31.5,1.1c10.3,0.4,20.7,0.9,31,1.1
			c3.1,0.1,6.2-0.5,9.2-1c0.5-0.1,1-0.2,1.4-0.3c1.2-0.4,2.5-1,3.6-1.5c1-0.4,2.4-0.9,3.5-1.5c0.2-0.1,0.5-0.3,0.7-0.4
			c1.3-0.9,4-2.9,5.2-4c1.1-1,1.8-2.1,2.8-3.4c2.8-3.7,4-5.6,5.6-10.6c0.9-2.9,1.1-6,1.4-9c0.1-1.1,0.2-2.2,0.3-3.3
			c0.1-2.5,0.3-5.1,0.4-7.6c0.4-8.6,0.8-17.2,1-25.8c0.3-13.8,0.2-27.5-0.7-41.3c-0.9-15.2-2.5-30.4-4.2-45.6
			c-0.5-4.8-1-9.5-1.5-14.3c0.1-3.4-0.6-6.7-2.2-9.6c-1-3.1-2.7-5.8-5.2-8c-2.3-2.4-4.9-4.2-8-5.2c-3-1.6-6.2-2.3-9.6-2.2
			c-2.2,0.3-4.4,0.6-6.6,0.9c-4.2,1.2-7.9,3.3-11,6.4c-1.3,1.7-2.6,3.4-3.9,5.1c-2.3,3.9-3.4,8.1-3.4,12.6c2,18.6,4.2,37.2,5.4,55.9
			c1.1,15.7,1.3,31.5,0.9,47.3c-0.1,5.5-0.3,10.9-0.6,16.4c-0.1,3-0.3,5.9-0.4,8.9c-0.2,3.1-0.2,6.3-0.6,9.3
			c0.3-2.2,0.6-4.4,0.9-6.6c-0.1,0.9-0.3,1.9-0.7,2.7c0.8-2,1.7-4,2.5-6c-0.3,0.6-0.6,1.2-1,1.7c1.3-1.7,2.6-3.4,3.9-5.1
			c-0.3,0.3-0.5,0.6-0.8,0.8c1.7-1.3,3.4-2.6,5.1-3.9c-0.5,0.3-0.9,0.6-1.4,0.8c2-0.8,4-1.7,6-2.5c-0.7,0.2-1.3,0.4-2,0.5
			c2.2-0.3,4.4-0.6,6.6-0.9c-4,0.4-8.2-0.1-12.2-0.2c-4.4-0.2-8.8-0.3-13.2-0.5c-8.6-0.3-17.2-0.6-25.8-0.9
			c-17.2-0.6-34.4-1.2-51.6-1.8c-34.6-1.2-69.1-2.4-103.7-3.5c-9.7-0.3-19.4-0.7-29.1-1c-4.8-0.2-9.5-0.3-14.3-0.5
			c-4.8-0.2-9.6,0-14.4-0.6c2.2,0.3,4.4,0.6,6.6,0.9c-0.6-0.1-1.1-0.2-1.7-0.4c2,0.8,4,1.7,6,2.5c-0.3-0.1-0.5-0.3-0.7-0.4
			c1.7,1.3,3.4,2.6,5.1,3.9c-0.3-0.3-0.6-0.5-0.8-0.8c1.3,1.7,2.6,3.4,3.9,5.1c-0.2-0.3-0.4-0.6-0.6-1c0.8,2,1.7,4,2.5,6
			c-0.3-0.7-0.5-1.5-0.6-2.3c0.3,2.2,0.6,4.4,0.9,6.6c-0.6-4.7-0.6-9.6-0.7-14.4c-0.1-4.3-0.1-8.6,0-12.9c0.2-7.3,0.8-14.5,1.5-21.7
			c1.4-13.4,3.3-26.7,3.4-40.2c0.1-10.1-0.6-20.2-1.8-30.2c0.1-3.4-0.6-6.7-2.2-9.6c-1-3.1-2.7-5.8-5.2-8c-2.3-2.4-4.9-4.2-8-5.2
			c-3-1.6-6.2-2.3-9.6-2.2c-2.2,0.3-4.4,0.6-6.6,0.9c-4.2,1.2-7.9,3.3-11,6.4c-1.3,1.7-2.6,3.4-3.9,5.1
			C2686.9-459.3,2685.8-455.1,2685.8-450.5L2685.8-450.5z"/>
	</g>
</g>
<g>
	<g>
		<path class="st0" d="M2811.3-587.6c18.8,1.6,37.7,3.2,56.5,4.8c3.4,0.1,6.7-0.6,9.6-2.2c3.1-1,5.8-2.7,8-5.2
			c2.4-2.3,4.2-4.9,5.2-8c1.6-3,2.3-6.2,2.2-9.6c-0.3-2.2-0.6-4.4-0.9-6.6c-1.2-4.2-3.3-7.9-6.4-11c-1.7-1.3-3.4-2.6-5.1-3.9
			c-3.9-2.3-8.1-3.4-12.6-3.4c-18.8-1.6-37.7-3.2-56.5-4.8c-3.4-0.1-6.7,0.6-9.6,2.2c-3.1,1-5.8,2.7-8,5.2c-2.4,2.3-4.2,4.9-5.2,8
			c-1.6,3-2.3,6.2-2.2,9.6c0.3,2.2,0.6,4.4,0.9,6.6c1.2,4.2,3.3,7.9,6.4,11c1.7,1.3,3.4,2.6,5.1,3.9
			C2802.6-588.7,2806.8-587.6,2811.3-587.6L2811.3-587.6z"/>
	</g>
</g>
<g>
	<g>
		<path class="st0" d="M3262.4-477c1.1,3.8,1.9,7.7,2.4,11.7c-0.2-1.8-0.5-3.5-0.7-5.3c0.8,6,1,12,0.5,18.1
			c-0.1,2.8,0.5,5.3,1.7,7.7c0.8,2.5,2.2,4.6,4.1,6.4c1.8,2,4,3.3,6.4,4.1c2.4,1.3,5,1.8,7.7,1.7c5.2-0.2,10.5-1.9,14.1-5.9
			c1-1.3,2.1-2.7,3.1-4c1.8-3.1,2.7-6.5,2.7-10.1c0.4-5.1,0.3-10.2-0.2-15.2c-0.7-6.7-1.7-13.3-3.4-19.8c-1.3-4.8-4.9-9.4-9.2-12
			c-2.3-1.5-4.8-2.3-7.4-2.4c-2.7-0.6-5.3-0.5-8,0.4c-4.8,1.6-9.5,4.6-12,9.2C3261.9-487.7,3260.9-482.3,3262.4-477L3262.4-477z"/>
	</g>
</g>
<g>
	<g>
		<path class="st0" d="M3371.4-517.6c1.7,26.1,3.5,52.2,5.2,78.3c0.5,7.3,1,14.6,1.5,21.9c-0.1,2.8,0.5,5.3,1.7,7.7
			c0.8,2.5,2.2,4.6,4.1,6.4c1.8,2,4,3.3,6.4,4.1c2.4,1.3,5,1.8,7.7,1.7c5.2-0.2,10.5-1.9,14.1-5.9c3.5-3.8,6.2-8.9,5.9-14.1
			c-1.7-26.1-3.5-52.2-5.2-78.3c-0.5-7.3-1-14.6-1.5-21.9c0.1-2.8-0.5-5.3-1.7-7.7c-0.8-2.5-2.2-4.6-4.1-6.4c-1.8-2-4-3.3-6.4-4.1
			c-2.4-1.3-5-1.8-7.7-1.7c-5.2,0.2-10.5,1.9-14.1,5.9C3373.8-528,3371-522.9,3371.4-517.6L3371.4-517.6z"/>
	</g>
</g>
<g>
	<g>
		<path class="st0" d="M3543.6-517.6c1.7,26.1,3.5,52.2,5.2,78.3c0.5,7.3,1,14.6,1.5,21.9c-0.1,2.8,0.5,5.3,1.7,7.7
			c0.8,2.5,2.2,4.6,4.1,6.4c1.8,2,4,3.3,6.4,4.1c2.4,1.3,5,1.8,7.7,1.7c5.2-0.2,10.5-1.9,14.1-5.9c3.5-3.8,6.2-8.9,5.9-14.1
			c-1.7-26.1-3.5-52.2-5.2-78.3c-0.5-7.3-1-14.6-1.5-21.9c0.1-2.8-0.5-5.3-1.7-7.7c-0.8-2.5-2.2-4.6-4.1-6.4c-1.8-2-4-3.3-6.4-4.1
			c-2.4-1.3-5-1.8-7.7-1.7c-5.2,0.2-10.5,1.9-14.1,5.9C3546-528,3543.3-522.9,3543.6-517.6L3543.6-517.6z"/>
	</g>
</g>
<g>
	<g>
		<path class="st0" d="M3312.4-513.6c1.2,23.9,2.4,47.8,3.5,71.8c0.3,6.8,0.7,13.6,1,20.4c0.3,5.3,2.1,10.3,5.9,14.1
			c1.8,2,4,3.3,6.4,4.1c2.4,1.3,5,1.8,7.7,1.7c5.2-0.2,10.5-1.9,14.1-5.9c3.5-3.8,6.1-8.8,5.9-14.1c-1.2-23.9-2.4-47.8-3.5-71.8
			c-0.3-6.8-0.7-13.6-1-20.4c-0.3-5.3-2.1-10.3-5.9-14.1c-1.8-2-4-3.3-6.4-4.1c-2.4-1.3-5-1.8-7.7-1.7c-5.2,0.2-10.5,1.9-14.1,5.9
			C3314.8-523.9,3312.1-518.9,3312.4-513.6L3312.4-513.6z"/>
	</g>
</g>
<g>
	<g>
		<path class="st0" d="M3150.4-486.1c0.5,1.7,0.9,3.5,1.2,5.3c-0.2-1.8-0.5-3.5-0.7-5.3c0.9,6.9,1.1,14,1.6,21
			c0.5,7.2,1,14.3,1.5,21.5c-0.1,2.8,0.5,5.3,1.7,7.7c0.8,2.5,2.2,4.6,4.1,6.4c1.8,2,4,3.3,6.4,4.1c2.4,1.3,5,1.8,7.7,1.7
			c5.2-0.2,10.5-1.9,14.1-5.9c3.4-3.8,6.2-8.9,5.9-14.1c-0.6-8.2-1.1-16.5-1.7-24.7c-0.3-4.1-0.6-8.2-0.8-12.3
			c-0.4-5.4-0.8-10.9-2.4-16.1c-1.5-4.9-4.7-9.3-9.2-12c-2.3-1.5-4.8-2.3-7.4-2.4c-2.7-0.6-5.3-0.5-8,0.4c-4.8,1.6-9.5,4.6-12,9.2
			C3150-496.8,3148.8-491.3,3150.4-486.1L3150.4-486.1z"/>
	</g>
</g>
<g>
	<g>
		<path class="st0" d="M3480.4-553.5c2.5,22.3,4.6,44.7,6.2,67.1c1.6,22.3,2.7,44.7,3.4,67.1c0.4,12.6,0.6,25.3,0.7,37.9
			c0,5.1,2.2,10.5,5.9,14.1c1.8,2,4,3.3,6.4,4.1c2.4,1.3,5,1.8,7.7,1.7c5.2-0.2,10.5-1.9,14.1-5.9c3.6-3.9,5.9-8.7,5.9-14.1
			c-0.1-22.5-0.8-44.9-1.8-67.4c-1.1-22.4-2.6-44.7-4.6-67c-1.1-12.6-2.4-25.2-3.8-37.7c0.1-2.8-0.5-5.3-1.7-7.7
			c-0.8-2.5-2.2-4.6-4.1-6.4c-1.8-2-4-3.3-6.4-4.1c-2.4-1.3-5-1.8-7.7-1.7c-5.2,0.2-10.5,1.9-14.1,5.9c-1,1.3-2.1,2.7-3.1,4
			C3481.4-560.5,3480.5-557.1,3480.4-553.5L3480.4-553.5z"/>
	</g>
</g>
<g>
	<g>
		<path class="st0" d="M3203.8-539.1c0.9,18.6,1.8,37.3,2.8,55.9c0.9,18.6,1.8,37.3,2.8,55.9c0.5,10.5,1,21,1.6,31.5
			c0.3,5.3,2.1,10.3,5.9,14.1c1.8,2,4,3.3,6.4,4.1c2.4,1.3,5,1.8,7.7,1.7c5.2-0.2,10.5-1.9,14.1-5.9c3.5-3.8,6.1-8.8,5.9-14.1
			c-0.9-18.6-1.8-37.3-2.8-55.9c-0.9-18.6-1.8-37.3-2.8-55.9c-0.5-10.5-1-21-1.6-31.5c-0.3-5.3-2.1-10.3-5.9-14.1
			c-1.8-2-4-3.3-6.4-4.1c-2.4-1.3-5-1.8-7.7-1.7c-5.2,0.2-10.5,1.9-14.1,5.9C3206.1-549.5,3203.5-544.4,3203.8-539.1L3203.8-539.1z"
			/>
	</g>
</g>
<g>
	<g>
		<path class="st0" d="M3430-485c0.6,8.8,1.1,17.7,1.7,26.5c-0.1,2.8,0.5,5.3,1.7,7.7c0.8,2.5,2.2,4.6,4.1,6.4c1.8,2,4,3.3,6.4,4.1
			c2.4,1.3,5,1.8,7.7,1.7c5.2-0.2,10.5-1.9,14.1-5.9c3.5-3.8,6.2-8.9,5.9-14.1c-0.6-8.8-1.1-17.7-1.7-26.5c0.1-2.8-0.5-5.3-1.7-7.7
			c-0.8-2.5-2.2-4.6-4.1-6.4c-1.8-2-4-3.3-6.4-4.1c-2.4-1.3-5-1.8-7.7-1.7c-5.2,0.2-10.5,1.9-14.1,5.9
			C3432.4-495.3,3429.7-490.2,3430-485L3430-485z"/>
	</g>
</g>
<g>
	<path class="st0" d="M3044.9-949c-0.6-15.1-1.2-30.2-1.8-45.3c-0.5-12.8-0.9-25.7-1.2-38.5c-0.3-12-0.5-24-0.7-36
		c-0.1-12.7-0.2-25.3-0.1-38c0-14.7,0.2-29.5,0.4-44.2c0-2.1,0.1-4.1,0.1-6.2c0.1-3.4-0.6-6.7-2.2-9.6c-1-3.1-2.7-5.8-5.2-8
		c-2-2.1-4.3-3.7-6.9-4.7c-3.5-1.8-7.3-2.9-11.3-2.8c-14.5,0.5-29-0.2-43.6-0.4c-3.8-0.1-7.7-0.1-11.5,0c-2.1,0-4.3,0.1-6.4,0.1
		c-1,0-2.1,0.1-3.1,0.1c-0.6,0-1.1,0-1.7,0.1c-1.8,0.1-5.1,0.6-6.8,0.9c-0.3,0-0.5,0.1-0.8,0.2c-0.2,0.1-0.4,0.1-0.5,0.2
		c-1.4,0.5-4.9,1.9-6.1,2.6c-1.2,0.7-2.3,1.7-3.3,2.5c-2.4,1.9-2.7,2-3.8,3.5c-0.2,0-0.2,0,0,0.1c-0.3,0.4-0.7,0.9-1.2,1.5
		c-0.9,1.2-1.5,1.8-2.2,2.9c-0.8,2-1.7,4-2.5,6c-0.1,0.2-0.2,0.4-0.2,0.6c-0.1,0.2-0.1,0.4-0.1,0.6c-0.4,1.7-0.8,5.1-0.9,6.8
		c0,0.4-0.1,0.8-0.1,1.2c0,0.8,0.1,1.7,0.1,2.5c0.1,1.1,0.1,2.3,0.2,3.4c0.3,2.7,0.5,5.5,1.1,8.2c0,0.1,0,0.2,0.1,0.2
		c0,0.2,0.6,1.4,1.1,2.7c0.2,3.5,0.3,7,0.5,10.5c0.3,8.2,0.5,16.4,0.2,24.7c-0.6,17.8-3.8,35.3-5.1,53c-0.1,1.1-0.1,2.1-0.2,3.2
		c-18.3-0.6-36.6-1.1-54.9-1.4c-22.3-0.3-44.6-0.2-66.9,0.3c-9,0.2-18.1,0.4-27.1,0.6c1.7-12.3,2.8-24.6,2.9-37
		c0.1-14.5-0.8-28.9-0.8-43.4c0-8.2,0.2-16.4,0.7-24.6c0.8-2.3,1.2-4.7,1.1-7.2c-0.3-2.2-0.6-4.4-0.9-6.6c-1.2-4.2-3.3-7.9-6.4-11
		c-1.7-1.3-3.4-2.6-5.1-3.9c-3.9-2.3-8.1-3.4-12.6-3.4c-18.3,0-36.5-0.1-54.8-0.1c-5.1,0-10.3,0-15.4,0c-3.4-0.1-6.7,0.6-9.6,2.2
		c-3.1,1-5.8,2.7-8,5.2c-2.4,2.3-4.2,4.9-5.2,8c-1.4,2.7-2.1,5.5-2.2,8.5c-0.6,2.1-1,4.4-0.8,6.6c1.3,26.5,2.5,53.1,3,79.6
		c0.4,23.7,0.3,47.4-0.3,71.1c-0.4,15.8-1,31.6-1.6,47.5c0,0.1,0,0.2,0,0.2c-0.1,1.1-0.2,2.2-0.2,3.4c0.3,6.5,2.4,13.2,7.3,17.7
		c4.8,4.4,11,7.5,17.7,7.3c24.4-0.5,48.9-0.9,73.3-1.2c21.1-0.3,42.2-0.4,63.4-0.4c20,0,39.9,0.2,59.9,0.5c21,0.3,41.9,0.8,62.9,1.4
		c23.8,0.6,47.7,1.4,71.5,2.2c3.2,0.1,6.5,0.2,9.7,0.3c3.4,0.1,6.7-0.6,9.6-2.2c3.1-1,5.8-2.7,8-5.2c2.4-2.3,4.2-4.9,5.2-8
		c1.3-2.5,2-5.2,2.1-8C3044.9-946.7,3045-947.8,3044.9-949z M2940.3-1121C2945.8-1118.6,2939.7-1121.1,2940.3-1121L2940.3-1121z"/>
	<path class="st0" d="M2767.4-1245.1c0.3,1,0.8,2,1.2,2.9c1.2,4.2,3.3,7.8,6.4,10.9c4.9,4.5,10.9,7.4,17.7,7.3
		c14.3-0.1,28.6-0.2,42.9-0.4c11-0.1,22.1-0.3,33.1-0.4c9.1-0.1,18.3-0.2,27.4-0.2c3.4,0.1,6.7-0.6,9.6-2.2c3.1-1,5.8-2.7,8-5.2
		c1.3-1.3,2.5-2.6,3.4-4.1c2.9-4.1,4.8-9,4.5-14.1c-1-18-1.9-35.9-2.9-53.9c0.1-2.3-0.2-4.5-0.9-6.7c0.6-2,0.9-4.1,0.8-6.4
		c-0.3-2.2-0.6-4.4-0.9-6.6c-1.2-4.2-3.3-7.9-6.4-11c-4.9-4.5-10.9-7.4-17.7-7.3c-13.4,0.1-26.8,0.3-40.2,0.6
		c-10.1,0.2-20.3,0.4-30.4,0.6c-8.6,0.1-17.3,0.2-25.9,0.3c-3.4-0.1-6.7,0.6-9.6,2.2c-2.4,0.8-4.5,2-6.4,3.6
		c-3.6,1.2-6.7,3.2-9.5,5.9c-4.4,4.8-7.4,10.9-7.3,17.7c0.3,19,0.7,37.9,1,56.9C2765.2-1251.3,2765.9-1248.1,2767.4-1245.1z"/>
</g>
<g>
	<path class="st0" d="M3300.9-1159.3c-1.3-4.8-4.9-9.4-9.2-12c-2.3-1.5-4.8-2.3-7.4-2.4c-2.7-0.6-5.3-0.5-8,0.4
		c-4.8,1.6-9.5,4.6-12,9.2c-2.5,4.8-3.5,10.1-2,15.4c0.8,3,1.5,6,2,9c0.5,5.1,0.6,10.3,0.2,15.4c-0.1,2.8,0.5,5.3,1.7,7.7
		c0.8,2.5,2.2,4.6,4.1,6.4c1.8,2,4,3.3,6.4,4.1c2.4,1.3,5,1.8,7.7,1.7c5.2-0.2,10.5-1.9,14.1-5.9c1-1.3,2.1-2.7,3.1-4
		c1.8-3.1,2.7-6.5,2.7-10.1c0.4-5.1,0.3-10.2-0.2-15.2C3303.7-1146.2,3302.7-1152.8,3300.9-1159.3z"/>
	<path class="st0" d="M3412.9-1167.3c-0.5-7.3-1-14.6-1.5-21.9c0.1-2.8-0.5-5.3-1.7-7.7c-0.8-2.5-2.2-4.6-4.1-6.4
		c-1.8-2-4-3.3-6.4-4.1c-2.4-1.3-5-1.8-7.7-1.7c-5.2,0.2-10.5,1.9-14.1,5.9c-3.5,3.8-6.2,8.9-5.9,14.1c1.7,26.1,3.5,52.2,5.2,78.3
		c0.5,7.3,1,14.6,1.5,21.9c-0.1,2.8,0.5,5.3,1.7,7.7c0.8,2.5,2.2,4.6,4.1,6.4c1.8,2,4,3.3,6.4,4.1c2.4,1.3,5,1.8,7.7,1.7
		c5.2-0.2,10.5-1.9,14.1-5.9c3.5-3.8,6.2-8.9,5.9-14.1C3416.3-1115.1,3414.6-1141.2,3412.9-1167.3z"/>
	<path class="st0" d="M3590.3-1089c-1.7-26.1-3.5-52.2-5.2-78.3c-0.5-7.3-1-14.6-1.5-21.9c0.1-2.8-0.5-5.3-1.7-7.7
		c-0.8-2.5-2.2-4.6-4.1-6.4c-1.8-2-4-3.3-6.4-4.1c-2.4-1.3-5-1.8-7.7-1.7c-5.2,0.2-10.5,1.9-14.1,5.9c-3.5,3.8-6.2,8.9-5.9,14.1
		c1.7,26.1,3.5,52.2,5.2,78.3c0.5,7.3,1,14.6,1.5,21.9c-0.1,2.8,0.5,5.3,1.7,7.7c0.8,2.5,2.2,4.6,4.1,6.4c1.8,2,4,3.3,6.4,4.1
		c2.4,1.3,5,1.8,7.7,1.7c5.2-0.2,10.5-1.9,14.1-5.9C3587.9-1078.6,3590.6-1083.7,3590.3-1089z"/>
	<path class="st0" d="M3353.4-1164.8c-0.3-6.8-0.7-13.6-1-20.4c-0.3-5.3-2.1-10.3-5.9-14.1c-1.8-2-4-3.3-6.4-4.1
		c-2.4-1.3-5-1.8-7.7-1.7c-5.2,0.2-10.5,1.9-14.1,5.9c-3.5,3.8-6.1,8.8-5.9,14.1c1.2,23.9,2.4,47.8,3.5,71.8
		c0.3,6.8,0.7,13.6,1,20.4c0.3,5.3,2.1,10.3,5.9,14.1c1.8,2,4,3.3,6.4,4.1c2.4,1.3,5,1.8,7.7,1.7c5.2-0.2,10.5-1.9,14.1-5.9
		c3.5-3.8,6.1-8.8,5.9-14.1C3355.8-1117,3354.6-1140.9,3353.4-1164.8z"/>
	<path class="st0" d="M3192.2-1139.9c-0.3-4.1-0.6-8.2-0.8-12.3c-0.4-5.4-0.8-10.9-2.4-16.1c-1.5-4.9-4.7-9.3-9.2-12
		c-2.3-1.5-4.8-2.3-7.4-2.4c-2.7-0.6-5.3-0.5-8,0.4c-4.8,1.6-9.5,4.6-12,9.2c-2.5,4.7-3.6,10.2-2,15.4c0.3,1.1,0.6,2.2,0.8,3.3
		c0.6,5.9,0.8,11.8,1.2,17.7c0.5,7.2,1,14.3,1.5,21.5c-0.1,2.8,0.5,5.3,1.7,7.7c0.8,2.5,2.2,4.6,4.1,6.4c1.8,2,4,3.3,6.4,4.1
		c2.4,1.3,5,1.8,7.7,1.7c5.2-0.2,10.5-1.9,14.1-5.9c3.4-3.8,6.2-8.9,5.9-14.1C3193.3-1123.5,3192.8-1131.7,3192.2-1139.9z"/>
	<path class="st0" d="M3524.3-1187.5c-1.1-12.6-2.4-25.2-3.8-37.7c0.1-2.8-0.5-5.3-1.7-7.7c-0.8-2.5-2.2-4.6-4.1-6.4
		c-1.8-2-4-3.3-6.4-4.1c-2.4-1.3-5-1.8-7.7-1.7c-5.2,0.2-10.5,1.9-14.1,5.9c-1,1.3-2.1,2.7-3.1,4c-1.8,3.1-2.7,6.5-2.7,10.1
		c2.5,22.3,4.6,44.7,6.2,67.1c1.6,22.3,2.7,44.7,3.4,67.1c0.4,12.6,0.6,25.3,0.7,37.9c0,5.1,2.2,10.5,5.9,14.1c1.8,2,4,3.3,6.4,4.1
		c2.4,1.3,5,1.8,7.7,1.7c5.2-0.2,10.5-1.9,14.1-5.9c3.6-3.9,5.9-8.7,5.9-14.1c-0.1-22.5-0.8-44.9-1.8-67.4
		C3527.8-1142.8,3526.3-1165.2,3524.3-1187.5z"/>
	<path class="st0" d="M3248.1-1123.4c-0.9-18.6-1.8-37.3-2.8-55.9c-0.5-10.5-1-21-1.6-31.5c-0.3-5.3-2.1-10.3-5.9-14.1
		c-1.8-2-4-3.3-6.4-4.1c-2.4-1.3-5-1.8-7.7-1.7c-5.2,0.2-10.5,1.9-14.1,5.9c-3.5,3.8-6.1,8.8-5.9,14.1c0.9,18.6,1.8,37.3,2.8,55.9
		c0.9,18.6,1.8,37.3,2.8,55.9c0.5,10.5,1,21,1.6,31.5c0.3,5.3,2.1,10.3,5.9,14.1c1.8,2,4,3.3,6.4,4.1c2.4,1.3,5,1.8,7.7,1.7
		c5.2-0.2,10.5-1.9,14.1-5.9c3.5-3.8,6.1-8.8,5.9-14.1C3249.9-1086.1,3249-1104.8,3248.1-1123.4z"/>
	<path class="st0" d="M3470-1156.6c0.1-2.8-0.5-5.3-1.7-7.7c-0.8-2.5-2.2-4.6-4.1-6.4c-1.8-2-4-3.3-6.4-4.1c-2.4-1.3-5-1.8-7.7-1.7
		c-5.2,0.2-10.5,1.9-14.1,5.9c-3.5,3.8-6.2,8.9-5.9,14.1c0.6,8.8,1.1,17.7,1.7,26.5c-0.1,2.8,0.5,5.3,1.7,7.7
		c0.8,2.5,2.2,4.6,4.1,6.4c1.8,2,4,3.3,6.4,4.1c2.4,1.3,5,1.8,7.7,1.7c5.2-0.2,10.5-1.9,14.1-5.9c3.5-3.8,6.2-8.9,5.9-14.1
		C3471.1-1139,3470.6-1147.8,3470-1156.6z"/>
</g>
<path class="st0" d="M912.1-1065.4c-0.2-5.2-1.9-10.5-5.9-14.1c-1.3-1-2.7-2.1-4-3.1c-3.1-1.8-6.5-2.7-10.1-2.7
	c-2.9-0.3-5.7-0.7-8.6-1c-15.6-2.2-31.1-5.1-46-10c-3.4-1.1-6.9-2.4-10.2-3.7c-8.3-3.7-16.2-8.1-23.5-13.5
	c-5.3-4.3-10.1-9.1-14.4-14.4c-4.6-6.3-8.6-13.2-11.8-20.3c-3.8-9.4-6.4-19.3-7.9-29.3c-1.5-13.1-1.3-26.4,0.3-39.5
	c2.2-15.1,6.1-29.9,10.9-44.4c1.5-4.4,3-8.8,4.6-13.1c0.8-2.7,1-5.3,0.4-8c-0.1-2.7-0.9-5.1-2.4-7.4c-1.3-2.3-3-4.2-5.2-5.6
	c-1.9-1.8-4.2-3-6.8-3.6c-1.1-0.2-2.2-0.4-3.3-0.5c-3.3-0.7-6.5-0.7-9.8,0.2c-18.8,3.5-37.2,9.9-54.1,18.9
	c-9.2,4.9-17.7,10.9-25.8,17.4c-6.6,5.2-12.7,11.1-18.1,17.5c-6.4,7.5-12.2,15.6-16.9,24.3c-4.7,8.6-8.6,17.9-11.2,27.3
	c-5.7,20.2-5.3,41.5-2.9,62.2c1.2,10.7,2.8,21.3,6.2,31.5c2.8,8.8,6.5,17.4,11,25.5c4.5,8.1,9.9,15.6,15.7,22.9
	c4.9,6.1,10.2,11.7,16.1,16.9c6.9,6.1,14.4,11.8,22.2,16.8c7.9,5,16.3,8.9,25,12.5c19.6,8.2,41.1,11.5,62.3,9.4
	c18.7-1.8,37.7-5.1,55.5-11.2c9.1-3.1,18.2-6.9,26.6-11.6c8.3-4.6,16.2-10.3,23.3-16.7c2.9-2.6,5.7-5.5,8.2-8.5
	c1.9-1.7,3.2-3.8,4-6.1c0.2-0.2,0.5-0.4,0.7-0.7c2-1.8,3.3-4,4.1-6.4C911.7-1060.1,912.2-1062.6,912.1-1065.4z"/>
<g>
	<path class="st0" d="M346.1,288.7c1.3-6.6,2.2-13.4,2.4-20.1c0.2-4.9-0.1-9.8-0.7-14.7c-0.8-6.1-1.6-12.1-3.2-18
		c-1.6-5.7-3.9-11.1-6.2-16.5c-1.6-3.7-3.4-7.3-5.5-10.8c-3-5-6.6-9.7-10.3-14.3c-2.4-3-5-5.9-7.8-8.6c-4.3-4.2-9.1-7.9-14-11.4
		c-3.3-2.4-6.8-4.6-10.4-6.5c-5.5-2.8-11.2-5.3-17-7.3c-4.1-1.5-8.3-2.6-12.6-3.4c-10.2-2-20.7-3.1-31.1-2.2c-2.7,0.2-5.4,0.5-8,0.9
		c-5.1-0.4-10.2,0.5-14.6,3.3c-0.2,0.1-0.3,0.2-0.5,0.3c-1,0.5-2,1.2-2.9,1.9c-15.2,10.4-28.2,23.6-38,39.3
		c-5.1,8.2-9.1,17.2-12.2,26.3c-3.1,9.3-4.7,19.3-5.1,29c-0.2,3.6,0,7.2,0.3,10.8c0.6,5.8,1.3,11.7,2.7,17.4
		c2.2,8.9,5.8,17.7,10.3,25.8c1.8,3.3,3.9,6.4,6.2,9.4c3.4,4.5,6.8,8.9,10.8,12.8c4,3.9,8.5,7.3,13,10.5c3,2.2,6.3,4.1,9.7,5.6
		c5.9,2.7,11.9,5.2,18.2,6.9c4.4,1.2,9,2,13.5,2.7c10.7,1.5,21.4,2.8,32.2,2.3c6.2-0.3,12.4-1.1,18.5-2.3c6-1.2,11.6-3.5,17.2-5.9
		c3.9-1.7,7.5-3.8,10.9-6.4c4.8-3.7,9.3-7.2,13.2-11.9c3.8-4.6,7.4-9.3,10.3-14.6c2.9-5.4,5.3-11.2,7.4-16.9
		C344.1,297.6,345.3,293.2,346.1,288.7z"/>
	<path class="st0" d="M211.8,100.3c1,3.1,2.8,5.8,5.2,8.1c2.3,2.5,5,4.2,8.1,5.2c3,1.6,6.2,2.3,9.7,2.2c2.2-0.3,4.5-0.6,6.7-0.9
		c4.3-1.2,8-3.4,11.1-6.5c1.3-1.7,2.6-3.4,3.9-5.1c2.3-3.9,3.4-8.2,3.4-12.7c-0.7-6.6-1-13.3-0.8-19.9c0.1-3.5-0.6-6.7-2.2-9.7
		c-1-3.1-2.8-5.8-5.2-8.1c-2.3-2.5-5-4.2-8.1-5.2c-3-1.6-6.2-2.3-9.7-2.2c-2.2,0.3-4.5,0.6-6.7,0.9c-4.3,1.2-8,3.4-11.1,6.5
		c-1.3,1.7-2.6,3.4-3.9,5.1c-2.3,3.9-3.4,8.2-3.4,12.7c-0.2,6.7,0,13.3,0.8,19.9C209.6,94.1,210.3,97.3,211.8,100.3z"/>
	<path class="st0" d="M312.4,131.7c1.8,2.7,4.1,4.9,7.1,6.5c2,0.8,4,1.7,6,2.5c4.5,1.2,8.9,1.2,13.4,0c2-0.8,4-1.7,6-2.5
		c3.8-2.2,6.8-5.3,9-9c3.3-6.3,6.6-12.6,9.9-18.9c1.8-2.9,2.8-6,3-9.4c0.7-3.3,0.6-6.7-0.4-10c-0.8-3.3-2.3-6.1-4.5-8.6
		c-1.8-2.7-4.1-4.9-7.1-6.5c-2-0.8-4-1.7-6-2.5c-4.5-1.2-8.9-1.2-13.4,0c-2,0.8-4,1.7-6,2.5c-3.8,2.2-6.8,5.3-9,9
		c-3.3,6.3-6.6,12.6-9.9,18.9c-1.8,2.9-2.8,6-3,9.4c-0.7,3.3-0.6,6.7,0.4,10C308.7,126.5,310.2,129.3,312.4,131.7z"/>
	<path class="st0" d="M371.2,198.4c2.2,3.8,5.3,6.8,9,9c2,0.8,4,1.7,6,2.5c4.5,1.2,8.9,1.2,13.4,0c8.1-1.7,16-4.9,23.4-8.5
		c2.9-1.6,5.3-3.7,7.1-6.5c2.2-2.4,3.7-5.3,4.5-8.6c1-3.3,1.2-6.7,0.4-10c-0.2-3.4-1.1-6.5-3-9.4c-1.3-1.7-2.6-3.4-3.9-5.1
		c-3.1-3.1-6.8-5.3-11.1-6.5c-2.2-0.3-4.5-0.6-6.7-0.9c-4.5,0-8.8,1.2-12.7,3.4c-0.4,0.2-0.8,0.4-1.3,0.6c-3.3,1.2-6.7,2.2-10.1,2.9
		c-3.3,0.8-6.1,2.3-8.6,4.5c-2.7,1.8-4.9,4.1-6.5,7.1c-1.8,2.9-2.8,6-3,9.4c-0.7,3.3-0.6,6.7,0.4,10
		C369.5,194.4,370.4,196.4,371.2,198.4z"/>
	<path class="st0" d="M448,283.2c-0.3-2.2-0.6-4.5-0.9-6.7c-1.2-4.3-3.4-8-6.5-11.1c-1.7-1.3-3.4-2.6-5.1-3.9
		c-3.9-2.3-8.2-3.4-12.7-3.4c-3.3,0.4-6.7,0.4-10,0.2c-1.7-0.3-3.4-0.8-5.1-1.3c-3.3-1-6.7-1.2-10-0.4c-3.4,0.2-6.5,1.1-9.4,3
		c-2.9,1.6-5.3,3.7-7.1,6.5c-2.2,2.4-3.7,5.3-4.5,8.6c-0.3,2.2-0.6,4.5-0.9,6.7c0,4.5,1.2,8.8,3.4,12.7c1.3,1.7,2.6,3.4,3.9,5.1
		c3.1,3.1,6.8,5.3,11.1,6.5c5.6,1.7,11.5,2.4,17.3,3c3.7,0.3,7.5,0.3,11.2-0.1c3.5,0.1,6.7-0.6,9.7-2.2c3.1-1,5.8-2.8,8.1-5.2
		c2.5-2.3,4.2-5,5.2-8.1C447.4,289.9,448.1,286.7,448,283.2z"/>
	<path class="st0" d="M407.8,377.6c-2.2-3.8-5.3-6.8-9-9c-3.3-2.1-6.5-4.4-9.6-6.7c-1.6-1.3-3.3-2.7-4.9-4.1c-2.3-2.5-5-4.2-8.1-5.2
		c-3-1.6-6.2-2.3-9.7-2.2c-3.5-0.1-6.7,0.6-9.7,2.2c-3.1,1-5.8,2.8-8.1,5.2c-1.3,1.7-2.6,3.4-3.9,5.1c-2.3,3.9-3.4,8.2-3.4,12.7
		c0.3,2.2,0.6,4.5,0.9,6.7c1.2,4.3,3.4,8,6.5,11.1c4.7,4,9.6,7.8,14.5,11.5c3.3,2.5,6.7,4.9,10.2,7.1c2.9,1.8,6,2.8,9.4,3
		c3.3,0.7,6.7,0.6,10-0.4c3.3-0.8,6.1-2.3,8.6-4.5c2.7-1.8,4.9-4.1,6.5-7.1c0.8-2,1.7-4,2.5-6c1.2-4.5,1.2-8.9,0-13.4
		C409.5,381.6,408.7,379.6,407.8,377.6z"/>
	<path class="st0" d="M270.7,399.7c-1.6-2.9-3.7-5.3-6.5-7.1c-2.4-2.2-5.3-3.7-8.6-4.5c-2.2-0.3-4.5-0.6-6.7-0.9
		c-4.5,0-8.8,1.2-12.7,3.4c-1.7,1.3-3.4,2.6-5.1,3.9c-3.1,3.1-5.3,6.8-6.5,11.1c-1.4,7.8-2.5,15.7-2.4,23.6
		c-0.1,3.5,0.6,6.7,2.2,9.7c1,3.1,2.8,5.8,5.2,8.1c2.3,2.5,5,4.2,8.1,5.2c3,1.6,6.2,2.3,9.7,2.2c2.2-0.3,4.5-0.6,6.7-0.9
		c4.3-1.2,8-3.4,11.1-6.5c1.3-1.7,2.6-3.4,3.9-5.1c2.3-3.9,3.4-8.2,3.4-12.7c0-3,0.1-6,0.4-8.9c0.1-0.4,0.1-0.9,0.2-1.3
		c1-3.3,1.2-6.7,0.4-10C273.5,405.7,272.5,402.6,270.7,399.7z"/>
	<path class="st0" d="M151.6,359.6c-1.3-1.7-2.6-3.4-3.9-5.1c-3.1-3.1-6.8-5.3-11.1-6.5c-2.2-0.3-4.5-0.6-6.7-0.9
		c-4.5,0-8.8,1.2-12.7,3.4c-4.5,1.9-8.8,4.1-12.9,6.6c-2.9,1.6-5.3,3.7-7.1,6.5c-2.2,2.4-3.7,5.3-4.5,8.6c-1,3.3-1.2,6.7-0.4,10
		c0.2,3.4,1.1,6.5,3,9.4c1.3,1.7,2.6,3.4,3.9,5.1c3.1,3.1,6.8,5.3,11.1,6.5c2.2,0.3,4.5,0.6,6.7,0.9c4.5,0,8.8-1.2,12.7-3.4
		c4.1-2.5,8.4-4.7,12.9-6.6c2.9-1.6,5.3-3.7,7.1-6.5c2.2-2.4,3.7-5.3,4.5-8.6c1-3.3,1.2-6.7,0.4-10
		C154.5,365.7,153.5,362.5,151.6,359.6z"/>
	<path class="st0" d="M109.8,276.1c2.7-1.8,4.9-4.1,6.5-7.1c1.8-2.9,2.8-6,3-9.4c0.7-3.3,0.6-6.7-0.4-10c-0.8-2-1.7-4-2.5-6
		c-2.2-3.8-5.3-6.8-9-9c-2-0.8-4-1.7-6-2.5c-4.5-1.2-8.9-1.2-13.4,0c-5.9,1-11.7,2.2-17.4,3.7c-3.3,0.8-6.1,2.3-8.6,4.5
		c-2.7,1.8-4.9,4.1-6.5,7.1c-1.8,2.9-2.8,6-3,9.4c-0.7,3.3-0.6,6.7,0.4,10c0.8,2,1.7,4,2.5,6c2.2,3.8,5.3,6.8,9,9c2,0.8,4,1.7,6,2.5
		c4.5,1.2,8.9,1.2,13.4,0c5.7-1.5,11.5-2.7,17.4-3.7C104.5,279.9,107.4,278.4,109.8,276.1z"/>
	<path class="st0" d="M87.2,155.3c2.2,3.8,5.3,6.8,9,9c6.5,3.2,13.3,6.1,20.1,8.8c3.3,1,6.7,1.2,10,0.4c3.4-0.2,6.5-1.1,9.4-3
		c2.9-1.6,5.3-3.7,7.1-6.5c2.2-2.4,3.7-5.3,4.5-8.6c0.3-2.2,0.6-4.5,0.9-6.7c0-4.5-1.2-8.8-3.4-12.7c-1.3-1.7-2.6-3.4-3.9-5.1
		c-3.1-3.1-6.8-5.3-11.1-6.5c-0.4-0.1-0.7-0.3-1.1-0.4c-2.3-1-4.7-2.1-7-3.2c-2.9-1.8-6-2.8-9.4-3c-3.3-0.7-6.7-0.6-10,0.4
		c-3.3,0.8-6.1,2.3-8.6,4.5c-2.7,1.8-4.9,4.1-6.5,7.1c-0.8,2-1.7,4-2.5,6c-1.2,4.5-1.2,8.9,0,13.4C85.5,151.3,86.4,153.3,87.2,155.3
		z"/>
</g>
<path class="st0" d="M1409.2-1018.6c-0.1-1.3-0.2-2.7-0.5-4c-0.2-27.9-0.3-55.7-0.5-83.6c-0.2-28.2-0.3-56.4-0.5-84.7
	c-0.1-15.8-0.2-31.6-0.3-47.4c0-5.1-2.2-10.5-5.9-14.1c-1.8-2-4-3.3-6.4-4.1c-0.7-0.4-1.5-0.7-2.2-1c-2.7-1.4-5.7-2.2-8.7-2
	c-19,1-38.1,2-57.1,2.7c-18,0.7-35.9,1.3-53.9,1.7c-17.6,0.4-35.2,0.7-52.8,0.7c-17.9,0.1-35.8,0-53.7-0.3
	c-18.9-0.3-37.8-0.7-56.7-1.3c-2.4-0.1-4.8-0.1-7.3-0.2c-5-0.2-10.6,2.3-14.1,5.9c-2,1.8-3.3,4-4.1,6.4c-1.2,2.4-1.8,4.9-1.7,7.6
	c-0.2,1-0.3,1.9-0.3,2.9c-1,26.9-1.5,53.8-1.6,80.7c-0.1,26.9,0.3,53.8,1.1,80.7c0.4,14.4,1,28.7,1.7,43.1c-1.3,2.7-2,5.7-1.9,8.4
	c0.2,5.2,1.9,10.5,5.9,14.1c3.9,3.6,8.7,5.8,14.1,5.9c19.4,0.1,38.8,0.2,58.3,0.3c18.3,0.1,36.7,0.2,55,0.3
	c18,0.1,35.9,0.2,53.9,0.3c18.3,0.1,36.7,0.2,55,0.3c19.3,0.1,38.5,0.2,57.8,0.3c2.5,0,4.9,0,7.4,0c5.1,0,10.5-2.3,14.1-5.9
	C1406.8-1007.9,1409.4-1013.6,1409.2-1018.6z M1368.8-1202.5c-0.8,1.5-1.9,2.6-3.2,3.5c-1.1,1-2.4,1.7-3.9,2.1
	c-6.6,3-12.9,6.6-19,10.4c-12.1,7.7-23.6,16.4-35.9,23.7c-7.2,4.2-14.7,7.7-22.4,10.7c-6.7,2.6-13.5,4.9-20.2,7.7
	c-2.1,0.9-4.2,1.9-6.2,3c-1,1.1-2.1,2.1-3.2,2.8c-2.5,1.5-6.8,2.4-9.6,1.3c-9.1-3.7-18.2-7.6-27.1-11.7
	c-14.5-6.7-28.6-14.2-42.3-22.2c-13.1-7.7-26-15.7-40-21.8c-2-0.6-3.8-1.6-5.3-3.1c-0.7-0.8-1.3-1.7-2-2.5c-1.8-2.8-2-6.4-1.3-9.6
	c0.7-3,3.2-6,5.7-7.5c2.5-1.5,6.8-2.4,9.6-1.3c8.5,3.5,16.7,7.5,24.7,11.9c13.1,7.3,25.7,15.3,38.9,22.3c12.7,6.8,25.7,13,39,18.7
	c0.5,0.2,0.9,0.4,1.4,0.6c10.5-5.3,21.8-8.8,32.7-13.2c5.5-2.4,10.8-5.2,16-8.3c9.6-5.7,18.6-12.3,27.9-18.5
	c4.6-3.1,9.3-6.1,14.2-8.9c5.6-3.2,11.4-6,17.4-8.5c3-1.3,6.9-0.2,9.6,1.3c2.9,1.5,4.8,4.4,5.7,7.5
	C1371.1-1209.1,1370.4-1205.2,1368.8-1202.5z"/>
<path class="st0" d="M2494.3-1065.6c-0.1-2.8-0.2-5.6-0.3-8.4c0.3-4.1,0.3-8.3,0.2-12.4c-0.1-2.4-0.2-4.9-0.3-7.3
	c-0.1-1.8-0.3-3.5-0.8-5.1c-0.2-6.4-0.4-12.8-0.7-19.2c-0.4-11.5-0.9-22.9-1.4-34.4c-0.5-11.6-1-23.2-1.4-34.9
	c-0.7-18-1.3-35.9-1.8-53.9c-0.7-22.4-1.3-44.8-0.1-67.1c0.2-2.8,0.3-5.6,0.5-8.4c0.1-2.8-0.5-5.3-1.7-7.7c-0.8-2.5-2.2-4.6-4.1-6.4
	c-1.8-2-4-3.3-6.4-4.1c-1.2-0.6-2.5-1.1-3.8-1.4c-1.6-1-3.3-1.8-5.1-2.2c-1.8-0.2-3.5-0.5-5.3-0.7c-3.6,0-7,0.9-10.1,2.7
	c-7.8,4.2-15.7,7.9-23.8,11.4c-18.4,7.6-37.3,13.6-56.6,18.6c-20.2,5.2-40.6,9.3-61.1,13c-11.5,2.1-23.1,4-34.7,6
	c-2.6,0.6-4.9,1.8-6.8,3.6c-2.2,1.4-3.9,3.3-5.2,5.6c-1.1,1.7-1.8,3.6-2.2,5.5c-2.6,3.5-4.2,7.6-4.2,12.1c0,33.5,0.2,67.1,0.6,100.6
	c0.4,33.4,1,66.7,1.7,100.1c0,1.4,0.1,2.8,0.1,4.1c-5.1-0.8-10.3-1.2-15.4-0.8c-6.4,0.5-12.9,1.4-19,3.4c-3.8,1.2-7.4,2.8-11,4.4
	c-2.1,1-4.2,2.1-6.1,3.3c-11.1,7-20.2,16.4-27.2,27.4c-2.6,4-4.7,8.2-6.6,12.5c-2.5,5.7-4.9,11.4-6.4,17.4
	c-0.9,3.8-1.4,7.7-1.8,11.5c-0.2,2.3-0.3,4.6-0.1,6.9c0.3,3.8,0.7,7.7,2,11.3c0.8,2.5,1.9,4.9,3,7.2c0.5,1.1,1.1,2.1,1.8,3.1
	c4.5,6.4,10.2,12.1,17.5,15.4c3.7,1.7,7.5,3.3,11.5,4.2c4.1,0.9,8.3,1.5,12.4,1.6c4.5,0.2,8.9-0.5,13.4-1.1c2.7-0.4,5.4-0.9,8.1-1.7
	c6.5-1.8,12.8-4.5,18.8-7.6c5.4-2.8,10.2-6.4,15-10.2c3.6-2.8,6.9-6,9.9-9.4c8.1-9.3,14.3-19.6,18-31.3c0.6-2,1.1-4,1.5-6.1
	c1.5-2.8,2.4-5.9,2.3-9.1c-1-33.5-1.8-67.1-2.4-100.6c-0.5-27.5-0.9-55-1.1-82.4c20.1-5.3,40.3-10.5,60.4-15.6
	c24-6.1,48-12.1,72-17.9c6.1-1.5,12.3-3,18.4-4.4c0.3,10.7,0.7,21.3,1.1,32c0.4,12.1,0.9,24.2,1.5,36.3c0.5,11.1,1,22.3,1.4,33.4
	c0,0.3,0,0.6,0,0.9c-9.1,0.7-18.3,2.1-27.2,4c-5.3,1.2-10.6,2.6-15.8,4.3c-6.6,2.1-13.2,4.7-19.2,8c-3.6,2-6.7,4.4-9.9,7
	c-1.7,1.4-3.3,2.8-4.8,4.4c-3.9,4.2-7.5,9.1-10,14.3c-2.5,5.2-4.7,10.7-6,16.4c-1.3,5.7-2,11.6-2.2,17.4c-0.2,5.4,0.1,10.7,0.8,16
	c0.4,3.3,0.9,6.6,2.1,9.8c1,2.7,2.1,5.4,3.5,7.9c1.3,2.3,3.1,4.4,4.7,6.4c0.7,0.8,1.4,1.6,2.1,2.3c2,1.8,4.2,3.5,6.4,4.9
	c0.9,0.6,1.8,1.1,2.8,1.5c2.4,1.1,5.1,2.4,7.7,2.9c2.8,0.6,5.7,1,8.6,1.1c3.1,0,6.1-0.5,9.1-1c2.6-0.4,5.1-1.2,7.7-1.9
	c8.9-2.4,17.7-5.1,26.3-8.6c5.7-2.3,11.4-4.7,16.8-7.7c5.1-2.9,9.8-6.3,14.3-10c4.5-3.7,8-8.1,11.6-12.7c3.8-5.1,6.4-11.1,8.5-17.1
	c0.3-0.7,0.5-1.5,0.7-2.2C2493.1-1057.9,2494.4-1061.7,2494.3-1065.6z"/>
<path class="st0" d="M1965.9-947.5c-0.4-7.3-1.4-14.7-3.2-21.8c-1.8-7.1-4.5-13.9-7.6-20.5c-1.9-4-4-7.3-6.8-10.7
	c-3.5-4.2-9.1-7.5-14.5-8.5c-0.8-0.1-1.6-0.3-2.4-0.4c-10.2-9.4-20.1-19.1-29.1-29.6c-2.3-2.6-4.5-5.3-6.6-8
	c-6.3-8.4-12-17.3-16.6-26.8c-1.1-2.1-2.1-4.3-3-6.5c-4.3-10.8-7.5-21.9-9.6-33.3c0.5,0,1-0.1,1.6-0.1c4-0.3,7.9-0.7,11.8-1.2
	c1-0.1,2.1-0.3,3.1-0.4c2.4-0.3,5-0.4,7.4-1.1c1-0.3,2-0.8,2.9-1.2c0.2-0.1,1.9-0.7,2.7-1.1c0.2-0.1,0.3-0.2,0.5-0.3
	c1-0.6,3.4-2.5,4.2-3.2c0.1-0.1,0.3-0.2,0.4-0.4c0.7-0.7,2.7-3.3,3.2-4.2c0.1-0.2,0.3-0.4,0.4-0.7c0.7-1.6,1.3-3.2,2-4.8
	c0-0.1,0.1-0.2,0.1-0.4c0.6-1.9,0.7-4.1,0.9-6.1c0.1-0.4,0.1-0.9,0.1-1.3c0-0.4,0-0.8,0.1-1.3c0-1,0.1-2,0.1-3
	c0.1-2.4,0.2-4.9,0.2-7.3c0.1-5.7,0.1-11.5-0.1-17.2c-0.3-6.9-0.9-13.8-2.3-20.5c-0.2-1-0.4-1.9-0.7-2.8c-0.8-2.6-1.9-5.2-3.1-7.6
	c-0.2-0.3-0.4-0.6-0.6-0.9c-1.1-1.5-2.3-3.3-3.6-4.6c-0.9-0.8-3.2-2.6-4.2-3.2c-0.2-0.1-0.4-0.3-0.6-0.4c-0.7-0.4-3-1.3-2.7-1.2
	c-0.9-0.4-1.9-0.9-3-1.2c-3.8-0.8-7.2-0.9-10.9-0.7c-6.2,0.3-12.5,0.5-18.7,0.7c3.7-2.4,7.2-5.1,10.3-8.2c3.3-3.4,6.2-7.2,8.7-11.2
	c2.5-4,4.3-8.5,6.1-12.9c3.1-7.8,4.4-16,5.3-24.3c1-8.6,0.2-17.2-1.3-25.7c-1.4-7.8-4.3-15.4-7.9-22.5c-3.4-6.6-8-12.7-13.1-18
	c-3.1-3.3-6.7-6-10.3-8.7c-2.3-1.8-4.8-3.4-7.3-4.8c-12.8-6.9-27.3-9.9-41.6-8.6c-4.6,0-9.3,0.7-13.7,1.8c-3.5,0.8-6.9,2-10.2,3.3
	c-4.6,1.9-9.3,3.8-13.7,6c-4.4,2.2-8.2,5.1-12.1,8.2c-3.8,3.1-6.9,7.2-9.6,11.2c-1.9,2.7-3.5,5.7-5.1,8.6
	c-4.1,7.6-8.2,15.5-10.4,23.9c-2.3,8.6-2.8,17.7-2.9,26.6c0,3.3,0,6.5,0.3,9.8c0.5,4.8,1,9.8,2.6,14.3c1.1,2.9,2.2,5.9,3.8,8.6
	c1.6,2.8,3.8,5.4,5.8,7.9c2.1,2.5,4.5,4.8,6.9,7c2.8,2.6,5.9,5,8.9,7.3c-4-0.2-8.1-0.3-12.1-0.5c-2.2-0.1-4.5-0.2-6.7-0.3
	c-1.9-0.1-3.9-0.4-5.9-0.3c-2,0.1-4.1,0.4-6,0.8c-1.2,0.3-2.1,0.7-3.4,1.3c-2.9,1.2-2.6,1-5,2.9c-2.3,1.8-4,3.5-5.6,6.1
	c-0.2,0.2-0.3,0.5-0.4,0.7c-0.6,1.1-1.7,3.8-2.1,5c-0.1,0.4-0.2,0.8-0.3,1.2c-0.2,1.3-0.4,2.6-0.5,3.9c-1.5,11-1.8,22.1-2.1,33.1
	c-0.1,5.1-0.2,10.3-0.2,15.4c0,1.9-0.1,3.8,0.1,5.7c0.1,1.9,0.4,4.2,0.8,6.1c0,0.2,0.1,0.3,0.2,0.5c0.3,0.9,1.6,4.1,2.1,4.9
	c0.1,0.2,0.2,0.4,0.4,0.6c0.6,1,2.5,3.4,3.3,4.2c0.7,0.7,3.3,2.7,4.2,3.3c0.2,0.1,0.4,0.2,0.6,0.3c3.9,2,7.3,2.8,11.6,3
	c1.1,0.1,2.3,0.1,3.4,0.1c3.2,0.1,6.3,0.1,9.5,0.2c-0.3,3.8-0.6,7.6-1,11.4c-1,6.1-2.4,12.1-4,18c-1.9,7.2-4,14.3-6.7,21.2
	c-4.4,9.9-9.9,19.3-16.3,27.9c-7,8.8-15.1,16.7-23.9,23.6c-1.7,1.6-2.9,3.4-3.7,5.4c-9.9,4.1-18.7,10.8-24,20.4
	c-2.1,3.8-3.7,7.9-5,12c-0.9,2.8-1.5,5.7-2,8.6c-1.3,7.5-2.2,15.2-1.7,22.8c0.2,3.5,0.6,7,1.2,10.5c-0.3,1.3-0.4,2.6-0.3,3.9
	c0.2,5.2,1.9,10.5,5.9,14.1c3.8,3.5,8.8,6.2,14.1,5.9c35.1-2.1,70.2-3.3,105.3-3.8c35.1-0.5,70.3-0.2,105.4,1
	c19.7,0.6,39.4,1.5,59.1,2.6c2.8,0.1,5.3-0.5,7.7-1.7c2.5-0.8,4.6-2.2,6.4-4.1c2-1.8,3.3-4,4.1-6.4c1.1-2.2,1.7-4.5,1.7-6.9
	C1965.6-934.1,1966.3-940.7,1965.9-947.5z"/>
</svg>
