<?xml version="1.0" encoding="utf-8"?>
<!-- Generator: Adobe Illustrator 25.2.1, SVG Export Plug-In . SVG Version: 6.00 Build 0)  -->
<svg version="1.1" id="Layer_1" xmlns="http://www.w3.org/2000/svg" xmlns:xlink="http://www.w3.org/1999/xlink" x="0px" y="0px"
	 viewBox="0 0 216 360" style="enable-background:new 0 0 216 360;" xml:space="preserve">
<style type="text/css">
	.st0{fill:#F4F3EE;}
</style>
<path class="st0" d="M189.7,312.3c-0.1-3.6-0.9-7.3-2.3-10.6c-4.8-11.7-14.5-22-22.8-31.4c-8.4-9.6-17.3-18.8-25.7-28.4
	c-9.4-10.7-17.1-22.4-25.6-33.9c-4.5-6.1-9.1-12-14.2-17.5c-3.2-3.4-7.1-6.7-9.6-10.8c5-9.3,13.9-16.5,20.5-24.5
	c8.2-9.9,15.1-20.7,23.3-30.6c16.3-19.7,36-37,50-58.5c3.1-4.8,5.8-11.4,6.2-17.7c0.2-0.8,0.6-1.5,0.7-2.3c0.8-4,1-8.3-0.4-12.2
	c-1.7-4.4-4.3-8.2-8.4-10.7c-4.6-2.8-9.5-2.7-14.6-1.9c-2.5,0.4-5.1,0.9-7.5,1.8c-3.6,1.4-6.6,3.2-9.6,5.6c-1.9,0.5-3.7,1.5-5.4,3.3
	c-42.1,44.7-85.7,87.5-117.6,140.5c-1.6,2.7-2,5.2-1.5,7.6c-0.4,2.4-0.1,4.9,1.5,7.6c31.9,53,75.5,95.8,117.6,140.5
	c1.6,1.7,3.3,2.7,5.1,3.2c1.8,1.5,3.8,3,5.9,4c3.1,1.5,6.2,2.6,9.6,3.2c4.2,0.8,8.4,1.4,12.6,0.1c8.3-2.5,14-11.2,13.4-19.8
	C190.7,316.5,190.3,314.4,189.7,312.3z"/>
</svg>
