<?xml version="1.0" encoding="utf-8"?>
<!-- Generator: Adobe Illustrator 25.2.1, SVG Export Plug-In . SVG Version: 6.00 Build 0)  -->
<svg version="1.1" xmlns="http://www.w3.org/2000/svg" xmlns:xlink="http://www.w3.org/1999/xlink" x="0px" y="0px"
	 viewBox="0 0 360 360" style="enable-background:new 0 0 360 360;" xml:space="preserve">
<style type="text/css">
	.st0{display:none;}
	.st1{display:inline;}
	.st2{fill:#F4F3EE;}
</style>
<g id="Layer_1" class="st0">
	
		<image style="display:inline;overflow:visible;" width="512" height="512" xlink:href="../../../../../../Downloads/Home-01-512.png"  transform="matrix(9.113152e-02 0 0 9.113152e-02 156.6703 156.6703)">
	</image>
</g>
<g id="Layer_2" class="st0">
	<g class="st1">
		<g>
			<path d="M161.3,175c-0.1,6.4-0.1,12.9,0,19.3c0,1.3-0.2,2.9,0.3,4.2c0.5,1.3,1.8,1.4,3,1.5c2.8,0,5.6,0.1,8.3,0
				c0.8,0,1.6-0.7,1.5-1.5c0,0,0,0,0,0c-0.1,0.4-0.3,0.7-0.4,1.1c1.2-1.5,0.9-3.6,0.9-5.4c0.1-2.3,0.1-4.5,0.1-6.8
				c0-1.1,0-2.3,0-3.4c0-0.2,0-0.4,0-0.7c0-0.4-0.1-0.3-0.5,0.3c0,0,0.9-0.1,0.9-0.1c1.4-0.1,2.9-0.1,4.3-0.1c1.8,0,3.6-0.1,5.4,0.1
				c0.2,0,0.5,0,0.7,0.1c0.6,0.2,0.5-0.1-0.2-0.7c-0.1,0,0,1.3,0,1.3c0,1.1,0,2.1-0.1,3.2c-0.1,2.2-0.1,4.3-0.1,6.5
				c0.1,1.8,0,3.8,0.9,5.4c-0.1-0.4-0.1-0.8-0.2-1.2c0-0.1,0.1-0.1,0.1-0.2c-0.5,0.7-0.1,1.6,0.5,2.1c0.4,0.3,1,0.2,1.5,0.2
				c0.7,0,1.5,0,2.2,0c1.6,0,3.2,0.2,4.8,0.1c1.1,0,2.4-0.1,3.1-1.1c0.5-0.8,0.6-1.8,0.7-2.7c0.2-6.3,0-12.7-0.2-19
				c0-1.2,0.1-2.7-0.6-3.8c-0.7-1-2.1-1.6-3-2.4c-2.1-1.6-4-3.4-6-5.2c-2-1.8-4-3.5-6.4-4.9c-1.1-0.6-2.3-1.2-3.6-1
				c-1.4,0.1-2.6,1-3.7,1.8c-5,3.6-9.8,7.4-13.9,12c-1.3,1.4,0.8,3.6,2.1,2.1c3-3.4,6.4-6.4,10-9.1c0.9-0.7,1.8-1.4,2.8-2
				c0.8-0.6,1.9-1.7,2.9-1.8c1.1-0.2,2.3,0.9,3.1,1.4c1,0.7,1.9,1.4,2.8,2.1c1.7,1.4,3.3,3,4.9,4.4c0.8,0.7,1.6,1.4,2.4,2
				c0.4,0.3,0.9,0.7,1.3,1c0.4,0.3,1.2,0.6,1.5,1c0.6,0.6,0.3,2.4,0.3,3.3c0,1.4,0.1,2.8,0.1,4.2c0.1,2.7,0.1,5.3,0.1,8
				c0,1.5,0,3,0,4.5c0,0.6,0,1.2,0,1.7c0,0.1-0.1,0.5-0.1,0.5c0,0.1,0,0.1,0,0.2c0.4-0.2,0.4-0.3,0.2-0.2c-0.5-0.2-1.5,0-2,0
				c-0.7,0-1.5,0-2.2-0.1c-0.7,0-1.5-0.1-2.2-0.1c-0.3,0-0.6,0-1,0c-0.2,0-0.3,0-0.5,0c-0.7,0-0.6,0,0,0.2c0.2,0.7,0.4,1.4,0.5,2.1
				c0.4-0.5,0.3-1.1,0.1-1.7c-0.3-0.8-0.3-1.7-0.4-2.5c-0.1-2-0.1-4-0.1-6c0-2,0.1-4,0.1-6c0-2-1-2.6-2.8-2.8
				c-3.2-0.3-6.4-0.1-9.6,0c-1,0-2.4,0-3.3,0.7c-1.4,1.1-0.9,3.5-0.9,5.1c0,2.3,0,4.7-0.1,7c0,1.1-0.1,2.3-0.1,3.4c0,0.3,0,0.7,0,1
				c0,0,0.2-0.4,0.1-0.1c-0.2,0.4-0.5,0.6-0.4,1.1c0.5-0.5,1-1,1.5-1.5c-2.2,0.1-4.5,0-6.8,0c-0.6,0-1.5-0.1-2.1,0
				c0.3-0.1,0.2,0.8,0.3-0.1c0-0.3,0-0.7,0-1c0-1.4-0.1-2.8-0.1-4.2c-0.1-5.5-0.1-11.1,0-16.6C164.3,173,161.3,173,161.3,175
				L161.3,175z"/>
		</g>
	</g>
</g>
<g id="Layer_3" class="st0">
	<g class="st1">
		<g>
			<path d="M165.1,197.5c2.5,0.1,5,0.2,7.5,0.1c0.9,0,1.4-0.7,1.5-1.5c0.6-5.3,1.1-10.6,1.1-15.9c0-1.5-2.1-2.1-2.8-0.8
				c-1.3,2.3-2.1,4.8-2.3,7.5c-0.2,2.5,0.7,5.5-0.4,7.9c0.7-0.2,1.4-0.4,2.1-0.5c-2.3-1.3-4.8-1.6-7.3-1.1c-1.7,0.4-1.3,2.9,0.4,2.9
				c2.2,0,4.5-0.2,6.6-0.6c1.3-0.2,1.4-2.1,0.4-2.7c-2.3-1.3-4.7-2.2-7.2-2.9c-1.4-0.3-2.7,1.5-1.5,2.5c1.4,1.1,2.9,1.9,4.7,2.3
				c0.1-1,0.3-2,0.4-2.9c-1.6-0.1-3.2-0.2-4.8-0.3c0.4,0.9,0.7,1.7,1.1,2.6c0.7-0.9,1.6-1.5,2.3-2.4c0.7-0.9,1.2-1.8,1.6-2.9
				c0.8-2.1,0.8-4.4,0.2-6.5c-0.4-1.4-2.6-1.5-2.9,0c-0.8,3.5-1.2,7.1-1.2,10.7c1-0.1,2-0.3,2.9-0.4c-0.9-5.2-0.9-10.5-0.2-15.8
				c0.2-1.7-2.7-2.1-2.9-0.4c-0.5,3.7-0.5,7.3,0.2,11c0.2,1.1,1.8,1.5,2.5,0.7c1.5-1.8,1.1-3.9,0.8-6c-0.3-2.6-0.8-5.2-1.2-7.8
				c-1,0.3-1.9,0.5-2.9,0.8c1.5,5.7,2.6,11.5,3.4,17.4c0.2,1.9,2.9,2,3,0c0.3-6.8-2-13.3-1.7-20.1c-1,0.1-2,0.3-2.9,0.4
				c1.3,5.1,2.7,10.3,2.7,15.6c0,1.9,3,1.9,3,0c0-5.4,0.1-10.9,0.3-16.3c-1,0-2,0-3,0c0,4.4-0.1,8.8-0.1,13.3c0,1.4,2.1,2.1,2.8,0.8
				c1.1-2.2,1-4.9,1-7.3c0.1-2.6-0.1-5.3-0.3-7.9c-0.1-1.2-1.6-2.1-2.6-1.1c-0.9,0.9-1.8,1.8-2.9,2.5c-1.6,1.1-0.2,3.4,1.5,2.6
				c3.2-1.4,6-3.4,8.3-5.9c-0.8-0.6-1.6-1.2-2.4-1.8c-2.3,3.5-4.6,7.5-5.1,11.8c-0.2,1.8,0.9,3.7,3,3.3c1.8-0.3,3.5-2.1,4.5-3.5
				c1.2-1.5,2.1-3.3,2.5-5.2c0.4-1.9-0.3-4-2.6-3.6c-1.9,0.3-3.7,1.6-5.1,2.8c-1.4,1.2-2.9,2.9-2.3,4.9c0.8,2.4,3.5,2.3,5.5,2
				c2.3-0.3,4.6-0.8,6.5-2.2c1-0.8,0.9-2.3-0.4-2.7c-2.2-0.7-4.7,0.4-6.7,1.3c-1.9,0.8-4.9,1.9-4.6,4.4c0.1,0.5,0.6,1,1,1
				c2.6,0.5,5.3,0,7.9-0.5c2.7-0.4,5.4-1,8.1-1.7c1.6-0.4,1.3-3-0.4-2.9c-5.3,0.2-10.7,0.7-16,1.4c-1.9,0.2-2,3.1,0,3
				c6-0.2,12-0.8,17.9-1.8c1.5-0.3,1.3-2.5,0-2.9c-5.3-1.4-10.8-1.1-16.1-2.6c-0.1,1-0.3,2-0.4,2.9c3.6-0.4,7.2-0.9,10.8-1.3
				c1.5-0.2,2.2-2.6,0.4-2.9c-2.4-0.4-4.7,0.2-7,0.7c-2.5,0.5-5,1-7.4,1.6c0.3,1,0.5,1.9,0.8,2.9c3.5-1.4,7.3-3,9-6.6
				c0.7-1.5,1.1-3.7-0.9-4.4c-1.6-0.6-3.9,0.3-5.5,0.7c0.4,0.9,0.8,1.8,1.2,2.7c1.9-1,3.8-2,5.6-3c0.8-0.4,1.7-1.1,2.6-1.4
				c0.9-0.3,1.4,0.2,1.8,1c0.3-0.7,0.6-1.5,0.9-2.2c-2.7,1-5.7,1.3-8.4,2.4c-1.8,0.7-5.6,2.6-4.6,5.2c0.3,0.8,1,1.3,1.8,1
				c2-0.5,4-1.3,5.8-2.4c1.6-1,3.8-2.4,3.7-4.5c0-1.2-1.3-1.8-2.3-1.3c-2.1,1.1-4.1,2.3-6.1,3.6c-1.6,1.1-3.7,2-3.9,4.2
				c0,0.5,0.3,1.1,0.7,1.3c2.6,1.4,6.2,0.1,8.8-0.8c3-1,5.9-2.4,8.6-4.2c1.3-0.9,0.5-3.4-1.2-2.7c-2.9,1.2-5.6,2.8-8,4.9
				c-1.4,1.2,0.4,3.1,1.8,2.4c2.5-1.2,4.2-3.3,5.1-5.9c0.3-0.7-0.3-1.7-1-1.8c-2-0.4-3.7,1.4-5.1,2.6c-1.5,1.3-3.1,2.6-2.7,4.8
				c0.1,0.7,0.8,1,1.4,1.1c1.8,0.2,3.7-0.1,5.4-0.9c1.4-0.7,3.1-1.8,3.3-3.5c0.5-3.8-5.4-4-7.8-3.3c-1.4,0.4-3.4,1.2-3.8,2.8
				c-0.4,1.7,1.1,2.8,2.5,3.2c3.8,1.2,8.1,1.1,12,0.2c1.4-0.3,1.5-2.6,0-2.9c-3.9-0.9-7.9,0.9-9.8,4.5c-0.5,0.9,0,1.8,0.9,2.2
				c2,0.8,9,2.5,9-1.4c0-0.7-0.5-1.2-1.1-1.4c-1.9-0.6-11.6-3-10.5,1.4c0.1,0.5,0.6,0.9,1,1c2.1,0.5,4.2,0.9,6.3,1.4
				c1,0.2,1.9,0.4,2.9,0.7c0.5,0.1,1,0.2,1.5,0.3c0.3,0.1,0.6,0.1,1,0.2c0.4,0.2,0.6,0,0.4-0.6c0.3-0.7,0.2-0.8-0.3-0.5
				c-0.2,0.1-0.4,0.1-0.7,0.2c-0.5,0.2-1,0.3-1.6,0.4c-0.9,0.2-1.8,0.4-2.7,0.6c-1.6,0.3-3.3,0.7-4.6-0.3c-0.4,0.9-0.8,1.8-1.2,2.7
				c2.1,0.6,4.1,1.2,6.2,1.8c0.6,0.2,2,0.3,2.2,0.9c0.1,0.3-0.1,0.8-0.1,1.1c-0.1,0.6-0.2,1.1-0.2,1.7c0.9-0.3,1.9-0.5,2.8-0.8
				c-0.8-1.7-1.3-3.5-1.8-5.3c-0.4-1.9-3.2-1.1-2.9,0.8c0.7,4.8,0.2,9.7,0.2,14.5c0,0.9-0.2,2,0.5,2.7c0.7,0.7,1.9,0.5,2.8,0.5
				c2.3,0,4.6-0.3,7-0.6c0.8-0.1,1.3-1.1,1-1.8c-0.6-1.7-2-1.9-3.6-2.1c-2-0.2-4-0.3-5.9-0.2c0,1,0,2,0,3c2.4-0.3,4.7-0.5,7.1-0.6
				c1.9-0.1,1.9-2.9,0-3c-2.2-0.1-4.4-0.2-6.6-0.4c0,1,0,2,0,3c2.3-0.2,4.6-0.5,6.9-1.1c1.4-0.3,1.5-2.6,0-2.9
				c-1.8-0.4-3.5-0.5-5.3-0.5c0.1,1,0.3,2,0.4,2.9c1.9-0.4,3.8-0.8,5.6-1.4c1.3-0.4,1.5-2.6,0-2.9c-1.5-0.3-3.1-0.4-4.7-0.5
				c0.1,1,0.3,2,0.4,2.9c2-0.6,4-1.2,6-1.9c1.6-0.5,1.3-2.9-0.4-2.9c-1.8,0-3.5-0.1-5.3-0.1c0.4,0.8,0.9,1.5,1.3,2.3
				c0.2-0.2,0.4-0.3,0.7-0.4c1.9-0.4,1.1-3.2-0.8-2.9c-2.6,0.4-6.6,1.2-7.6,4c-0.3,0.8,0.3,1.6,1,1.8c2.4,1,3.8-1.6,4.5-3.4
				c0.9-2.3,1.3-4.8,1.5-7.3c0.1-1.8-2.4-1.9-2.9-0.4c-1.2,3.1-1.7,6.3-1.6,9.6c0,1.6,2.6,2.1,2.9,0.4c0.9-4.4,1.1-8.9,1.1-13.4
				c-1,0-2,0-3,0c0.2,2.8,0.4,5.6,0.7,8.4c1-0.1,2-0.3,2.9-0.4c-1.4-6-2.9-12-4.3-18c-0.7,0.6-1.5,1.1-2.2,1.7
				c1,0.4,1.3,1.4,1.8,2.4c0.5,1.1,1,2.1,1.9,2.9c1,0.9,2.4,0.2,2.6-1.1c0.1-0.6,0.1-1.1,0.1-1.7c-0.9,0.4-1.7,0.7-2.6,1.1
				c0.8,0.9,1.3,2,1.4,3.2c0.2,2,2.8,1.9,3,0c0.2-1.9-1.5-3.7-3.4-3.5c-0.7,0.1-1.2,0.4-1.4,1.1c-0.9,2.5,1.8,4.4,4.1,3.9
				c2.3-0.6,2.8-3.7,0.4-4.6c-0.8-0.3-1.6,0.3-1.8,1c-0.6,1.6,0.3,3.5,2.1,3.9c1.7,0.4,3.3-1,2.5-2.7c-0.7-1.7-2.9-1.6-3.9-0.3
				c-1.1,1.4-0.5,3.4,0.4,4.8c0.8,1.1,2.9,0.8,2.8-0.8c-0.1-1.2-0.9-2.2-2.2-2.1c-1.5,0.1-2.2,1.4-2.4,2.6c-0.7,3.1-0.7,6.3-0.1,9.4
				c0.3,1.5,2.6,1.4,2.9,0c0.8-3.2,1.5-6.4,2.3-9.5c-1-0.1-2-0.3-2.9-0.4c0.2,3.2,0.3,6.5,0.3,9.7c0,1.9,3,1.9,3,0
				c0.1-3.2,0-6.5-0.3-9.7c-0.1-1.6-2.5-2.1-2.9-0.4c-0.8,3.2-1.5,6.4-2.3,9.5c1,0,1.9,0,2.9,0c-0.3-1.5-0.3-3-0.3-4.5
				c0-0.7,0.1-1.4,0.2-2.2c0-0.3,0.1-0.6,0.2-0.9c0-0.2,0.1-0.4,0.1-0.6c0.2-0.4-0.1-0.5-0.9-0.1c-0.1-0.4-0.3-0.7-0.4-1.1
				c0,0.1,0,0.2,0,0.3c0.9-0.3,1.9-0.5,2.8-0.8c-0.2-0.3-0.4-0.6-0.5-1c-0.1-0.3-0.4-2.8-1.4-1.5c0.3-0.2,0.6-0.5,0.9-0.7
				c0.1,0.1,0.2,0.1,0.2-0.2c-0.6,0.3-1.2,0.7-1.8,1c-0.1-0.4-0.2-0.8-0.3-1.2c-0.1,0-0.2,0-0.3,0c-0.2-0.1-0.3,0.1-0.2-0.2
				c-0.5,0.4-1,0.7-1.4,1.1c0.5-0.1,0.5,0,0.4,0.5c1,0,2,0,3,0c-0.2-2-0.9-3.8-2.3-5.3c-0.9-1-2.6-0.2-2.6,1.1c0,0.6,0,1.1-0.1,1.7
				c0.9-0.4,1.7-0.7,2.6-1.1c-1.9-1.6-1.8-4.6-4.3-5.7c-1.2-0.5-2.5,0.3-2.2,1.7c1.4,6,2.9,12,4.3,18c0.4,1.6,3.1,1.3,2.9-0.4
				c-0.2-2.8-0.4-5.6-0.7-8.4c-0.1-1.9-3-2-3,0c-0.1,4.2-0.1,8.4-1,12.6c1,0.1,2,0.3,2.9,0.4c-0.1-3,0.4-5.9,1.5-8.8
				c-1-0.1-2-0.3-2.9-0.4c-0.1,0.9-1.3,8.2-2.2,7.8c0.3,0.6,0.7,1.2,1,1.8c0.2-0.6,1.9-0.9,2.4-1.1c1-0.3,2.1-0.6,3.1-0.8
				c-0.3-1-0.5-1.9-0.8-2.9c-1.1,0.2-1.8,0.9-2.5,1.7c-0.7,1,0.3,2.2,1.3,2.3c1.8,0,3.5,0.1,5.3,0.1c-0.1-1-0.3-2-0.4-2.9
				c-2,0.6-4,1.2-6,1.9c-1.6,0.5-1.3,2.9,0.4,2.9c1.3,0.1,2.6,0.1,3.9,0.4c0-1,0-1.9,0-2.9c-1.8,0.6-3.7,1-5.6,1.4
				c-1.7,0.3-1.3,3,0.4,2.9c1.5,0,3,0.1,4.5,0.4c0-1,0-1.9,0-2.9c-2,0.5-4,0.8-6.1,1c-1.9,0.1-1.9,2.8,0,3c2.2,0.2,4.4,0.3,6.6,0.4
				c0-1,0-2,0-3c-2.4,0.2-4.7,0.4-7.1,0.6c-1.9,0.2-2,3.1,0,3c1.3,0,2.5,0,3.8,0c0.6,0,1.3,0.1,1.9,0.2c0.3,0,0.6,0.1,0.9,0.1
				c0.4,0.2,0.4,0.1,0.1-0.2c0.3-0.6,0.7-1.2,1-1.8c-1.3,0.2-2.5,0.3-3.8,0.4c-1.1,0.1-2.6,0.3-3.7,0c0.3,0.2,0.6,0.5,0.9,0.7
				c0.2,0.4,0.1,0.4,0.1-0.1c0-0.4,0-0.8,0-1.2c0-0.7,0-1.3,0-2c0-1.5,0.1-2.9,0.1-4.4c0.1-2.8,0-5.6-0.5-8.4
				c-1,0.3-1.9,0.5-2.9,0.8c0.5,2.1,1.2,4.1,2.1,6c0.7,1.5,2.7,0.6,2.8-0.8c0.1-1.2,0.6-2.3,0.3-3.6c-0.3-1.2-1.1-1.9-2.2-2.3
				c-2.7-1-5.5-1.6-8.2-2.4c-1.7-0.5-2.5,1.8-1.2,2.7c1.9,1.4,4.3,1.1,6.5,0.7c1.4-0.3,2.7-0.6,4-1c1.1-0.3,2.8-0.6,3.3-1.8
				c1.3-2.9-3-3.5-4.8-3.9c-3-0.7-6-1.3-9-2c0.3,0.3,0.7,0.7,1,1c0-0.1,0-0.1,0-0.2c-0.1,0.4-0.1,0.8-0.2,1.2
				c-0.3,0.5-0.2,0.3,0.2,0.3c0.3,0,0.6,0,0.9,0c0.7,0,1.4,0.1,2.1,0.1c1.3,0.2,2.6,0.5,3.8,0.9c-0.4-0.5-0.7-1-1.1-1.4
				c0.7-0.6,0.7-0.9,0.1-0.7c-0.3,0-0.6,0-0.9,0c-0.5,0-0.9,0-1.4-0.1c-1.1-0.1-2.1-0.4-3.1-0.8c0.3,0.7,0.6,1.5,0.9,2.2
				c1.2-2.3,3.8-3.7,6.4-3.1c0-1,0-1.9,0-2.9c-2.2,0.5-4.5,0.7-6.8,0.5c-1.1-0.1-2.1-0.3-3.2-0.6c-0.2-0.1-0.5-0.1-0.7-0.2
				c-0.4-0.3-0.4-0.1,0,0.5c0.1,0,1.1-0.5,1.2-0.6c0.9-0.3,1.9-0.4,2.9-0.3c0.4,0.1,0.8,0.1,1.1,0.3c0.2,0,0.4,0.1,0.6,0.2
				c0-0.5-0.1-0.5-0.3-0.1c-0.4,0.2-0.9,0.7-1.3,0.9c-0.4,0.2-0.7,0.3-1.1,0.4c-1,0.3-2,0.4-3.1,0.3c0.5,0.4,1,0.7,1.4,1.1
				c-0.1-0.5,1.7-1.7,2.1-2c0.4-0.3,0.8-0.6,1.1-0.9c0.2-0.1,1.2-0.7,0.9-0.8c-0.3-0.6-0.7-1.2-1-1.8c-0.6,1.9-2,3.2-3.7,4.1
				c0.6,0.8,1.2,1.6,1.8,2.4c2-1.7,4.3-3.1,6.7-4.1c-0.4-0.9-0.8-1.8-1.2-2.7c-2.2,1.5-4.6,2.8-7.1,3.7c-1.2,0.4-2.4,0.8-3.7,1.1
				c-1,0.2-2.6,0.8-3.6,0.3c0.2,0.4,0.5,0.9,0.7,1.3c0-0.3,1.5-1,1.8-1.2c0.7-0.5,1.4-0.9,2.1-1.3c1.5-0.9,3-1.8,4.5-2.6
				c-0.8-0.4-1.5-0.9-2.3-1.3c0,0.5-1,1.1-1.4,1.3c-0.6,0.4-1.2,0.8-1.9,1.2c-1.3,0.7-2.6,1.1-4,1.5c0.6,0.3,1.2,0.7,1.8,1
				c0.1,0.1,0.8-0.5,1-0.7c0.3-0.2,0.7-0.4,1.1-0.6c0.9-0.4,1.8-0.7,2.8-1c2-0.5,4.1-0.9,6-1.6c0.9-0.3,1.4-1.3,0.9-2.2
				c-1.3-2.2-3.6-3.1-6-2c-2.8,1.3-5.5,2.9-8.2,4.3c-1.6,0.8-0.4,3.1,1.2,2.7c0.6-0.1,1.2-0.2,1.8-0.3c0.3-0.1,1.7-0.1,1.9-0.4
				c0.2,0,0.2-0.1-0.1-0.3c-0.2-0.4-0.3-0.5-0.3-0.2c-0.1,0.1-0.2,0.5-0.3,0.7c-0.2,0.5-0.6,1-0.9,1.4c-1.6,1.8-3.9,2.7-6.2,3.6
				c-1.8,0.7-1.1,3.4,0.8,2.9c2.2-0.5,4.3-1,6.5-1.5c2-0.4,4.4-1.2,6.4-0.8c0.1-1,0.3-2,0.4-2.9c-3.6,0.4-7.2,0.9-10.8,1.3
				c-1.6,0.2-2.1,2.4-0.4,2.9c5.2,1.6,10.8,1.2,16.1,2.6c0-1,0-1.9,0-2.9c-5.7,1-11.4,1.5-17.1,1.7c0,1,0,2,0,3
				c5.3-0.7,10.6-1.1,16-1.4c-0.1-1-0.3-2-0.4-2.9c-2.4,0.6-4.7,1.2-7.1,1.6c-2.3,0.4-4.9,1-7.3,0.6c0.3,0.3,0.7,0.7,1,1
				c0-0.1,0-0.2,0-0.3c-0.1,0.4-0.1,0.8-0.2,1.2c0.3-0.5,1.4-0.9,1.8-1.1c0.7-0.4,1.3-0.7,2-1c1.1-0.5,2.7-1.2,4-0.8
				c-0.1-0.9-0.2-1.8-0.4-2.7c-1.2,0.9-2.6,1.3-4.1,1.6c-0.8,0.2-1.7,0.4-2.6,0.4c-0.6,0-1.1,0.1-0.8-0.6c0.5-1.2,2.3-2.2,3.4-2.8
				c0.3-0.1,0.9-0.3,1.1-0.5c0.4-0.1,0.4-0.2,0-0.3c-0.3-0.3-0.4-0.3-0.4,0.1c-0.3,0.5-0.4,1.5-0.6,2c-0.6,1.3-1.4,2.5-2.5,3.4
				c-0.2,0.2-0.5,0.4-0.7,0.6c-0.2,0.1-0.3,0.2-0.5,0.3c-0.3,0.1-0.2,0.3,0.2,0.4c0.1-0.1,0.1-1,0.2-1.1c0.1-0.4,0.2-0.7,0.3-1
				c0.9-3.2,2.6-6,4.3-8.7c0.9-1.4-1.2-3.1-2.4-1.8c-2.2,2.4-4.7,4.2-7.7,5.5c0.5,0.9,1,1.7,1.5,2.6c1.3-0.8,2.5-1.8,3.5-2.9
				c-0.9-0.4-1.7-0.7-2.6-1.1c0.2,2.3,0.4,4.6,0.3,6.9c0,1.1,0,2.2-0.1,3.3c-0.1,1.1,0,2.4-0.5,3.4c0.9,0.3,1.9,0.5,2.8,0.8
				c0-4.4,0.1-8.8,0.1-13.3c0-1.9-2.9-1.9-3,0c-0.3,5.4-0.4,10.8-0.3,16.3c1,0,2,0,3,0c-0.1-5.6-1.4-11-2.8-16.4
				c-0.4-1.7-2.9-1.3-2.9,0.4c-0.3,6.8,2,13.3,1.7,20.1c1,0,2,0,3,0c-0.8-6.1-1.9-12.2-3.5-18.2c-0.5-1.9-3.2-1.1-2.9,0.8
				c0.3,1.9,0.7,3.9,1,5.8c0.1,1,0.3,2,0.4,3c0.1,0.6,0.3,1.6-0.1,2.1c0.8,0.2,1.7,0.4,2.5,0.7c-0.5-3.1-0.6-6.3-0.2-9.4
				c-1-0.1-2-0.3-2.9-0.4c-0.7,5.5-0.6,11.1,0.3,16.6c0.3,1.7,3,1.3,2.9-0.4c0-3.4,0.3-6.7,1-9.9c-1,0-1.9,0-2.9,0
				c0.5,1.6,0.4,3.3-0.2,4.9c-0.7,1.7-2.1,2.5-3.2,3.9c-0.8,1-0.3,2.5,1.1,2.6c1.6,0.1,3.2,0.2,4.8,0.3c1.7,0.1,2.1-2.6,0.4-2.9
				c-1.2-0.2-2.4-0.7-3.3-1.5c-0.5,0.8-1,1.7-1.5,2.5c2.3,0.6,4.4,1.4,6.5,2.6c0.1-0.9,0.2-1.8,0.4-2.7c-1.9,0.4-3.9,0.5-5.9,0.5
				c0.1,1,0.3,2,0.4,2.9c1.7-0.4,3.4-0.1,5,0.8c0.7,0.4,1.7,0.2,2.1-0.5c1.2-2.5,0.8-5,0.8-7.6c0-2.7,0.7-5.3,2-7.7
				c-0.9-0.3-1.9-0.5-2.8-0.8c0,5.3-0.5,10.6-1.1,15.9c0.5-0.5,1-1,1.5-1.5c-2.5,0.1-5,0.1-7.5-0.1
				C163.1,194.4,163.1,197.4,165.1,197.5L165.1,197.5z"/>
		</g>
	</g>
	<g class="st1">
		<g>
			<path d="M168.6,189.8C168.6,189.8,168.6,189.8,168.6,189.8c0-0.1,0-0.2,0-0.3c0.2,1.3,0.2,2.6,0,3.9c0-0.1,0-0.3,0.1-0.4
				c0,0.1,0,0.2,0,0.2c-0.1,0.4-0.1,0.8,0.2,1.2c0.2,0.3,0.5,0.6,0.9,0.7c0.4,0.1,0.8,0.1,1.2-0.2c0.3-0.2,0.6-0.5,0.7-0.9
				c0.1-0.8,0.2-1.7,0.2-2.5c0-0.8-0.1-1.7-0.2-2.5c0-0.3-0.4-0.7-0.7-0.9c-0.3-0.2-0.8-0.3-1.2-0.2c-0.4,0.1-0.7,0.3-0.9,0.7
				c-0.1,0.1-0.1,0.2-0.2,0.4C168.5,189.2,168.5,189.5,168.6,189.8L168.6,189.8z"/>
		</g>
	</g>
</g>
<g id="Layer_4">
	<path class="st2" d="M342.7,155.8c-0.3-10.7,1.2-23.7-5-33.1c-6-9-18-14.2-26.5-20.5c-18.4-13.7-34.8-29.8-51.9-45.1
		c-17.2-15.5-35.2-30.7-55.3-42.3c-9.6-5.6-20-10.2-31.4-9.1c-12.4,1.2-22.3,9-32.1,16C96.7,52.7,55.3,86.4,19.3,126.3
		c-0.3,0.3-0.5,0.7-0.8,1.1c-1.8,2-3,4.7-3,8.2c-1.2,56-1.2,112,0,168.1c0.2,11.2-1.7,25.5,2.5,36.1c4.5,11.2,15.4,12.6,26,12.6
		c24.1,0.1,48.5,0.9,72.6-0.3c5.3-0.3,10.9-3.9,12.5-9.1c6.5-12.2,4.3-28.2,4.7-41.8c0.6-19.7,0.9-39.4,1.1-59.1
		c0.1-7.8,0-15.6,0-23.5c0.1-3.4,0.2-6.7,0.3-10.1c1.5-0.2,2.8-0.4,2.9-0.4c12.4-0.8,24.8-0.9,37.2-1.2c15.7-0.4,31.5-0.6,47.2,0.5
		c1.6,0.1,3.2,0.3,4.9,0.4c0,2.9,0.2,5.8,0.2,6.1c-0.1,9.3-0.4,18.6-0.6,27.9c-0.5,18.7-1.1,37.5-0.5,56.3c0.5,13.6,0.4,28.1,5,41.1
		c-0.2,4.8,2.8,9.7,6.5,12.4c3.7,2.6,8.6,1.8,12.8,1.7c6.3-0.2,12.6-0.1,19,0.1c14,0.4,28.1,1.4,42.1,1.1c10-0.2,20.7-0.6,26.9-9.6
		c4.7-6.8,5.5-15.6,5.8-23.7C346.5,266.2,344.4,210.7,342.7,155.8z"/>
</g>
</svg>
